ply
format ascii 1.0
comment VCGLIB generated
element vertex 642
property float x
property float y
property float z
element face 1280
property list uchar int vertex_indices
end_header
0.0401181 1.34335 0.791147 
-0.0142571 1.22815 -0.734539 
-0.0138904 -1.28183 0.79427 
-0.00765326 -1.22933 -0.753438 
1.27633 0.760998 0.0828832 
1.341 -0.841747 0.00816401 
-1.18489 0.872217 -0.0508973 
-1.2739 -0.814287 -0.0115839 
0.850427 -0.00198852 1.24999 
-0.745556 -0.0213803 1.28393 
0.825153 0.0187378 -1.20065 
-0.74949 0.00448072 -1.24848 
-0.0107586 1.49059 -0.0822845 
0.744915 1.19646 0.531814 
0.676151 1.19682 -0.526759 
-0.740966 1.15792 -0.475986 
-0.732802 1.14508 0.430762 
-0.0336994 -1.46244 0.0454687 
0.704717 -1.21806 -0.523968 
0.782655 -1.27894 0.485625 
-0.709388 -1.24239 0.504363 
-0.737985 -1.3072 -0.52213 
1.43559 -0.000512861 0.0359087 
1.17075 -0.469124 -0.731154 
1.23904 0.384078 -0.747864 
1.17581 0.393112 0.800453 
1.16334 -0.516741 0.73201 
-1.47902 0.0170078 -0.0843559 
-1.251 -0.387878 0.765032 
-1.20752 0.467905 0.699615 
-1.18542 0.508517 -0.829246 
-1.14458 -0.510442 -0.819 
0.0103372 -0.00740626 1.43049 
-0.41728 -0.800181 1.13841 
0.528617 -0.774667 1.16289 
0.530753 0.687613 1.1964 
-0.449767 0.741356 1.24711 
-0.00423186 0.012334 -1.55333 
-0.44819 0.724858 -1.29514 
0.493893 0.730862 -1.18683 
0.443507 -0.741034 -1.24576 
-0.458867 -0.776015 -1.18876 
0.329957 1.41091 0.261052 
0.758665 1.30654 -0.0328188 
0.393178 1.41832 -0.197253 
-0.342131 1.38163 -0.259639 
-0.85748 1.24478 -0.0245941 
-0.325678 1.39115 0.23143 
0.409584 -1.44668 -0.281092 
0.826195 -1.26571 -0.0565397 
0.458589 -1.43633 0.30004 
-0.466169 -1.43167 0.170102 
-0.731776 -1.24148 0.0146577 
-0.424039 -1.42202 -0.302387 
1.46795 -0.240248 -0.357335 
1.25985 0.0556082 -0.796591 
1.39451 0.230415 -0.433493 
1.47384 0.299035 0.423595 
1.31097 0.0706314 0.797798 
1.42418 -0.239383 0.41377 
-1.48553 -0.279015 0.404023 
-1.27857 -0.00327322 0.793232 
-1.50277 0.193314 0.433427 
-1.38419 0.267497 -0.350608 
-1.29227 0.0651708 -0.845388 
-1.40592 -0.194641 -0.395481 
-0.23102 -0.481244 1.41213 
-0.0265245 -0.724362 1.31686 
0.246462 -0.39899 1.43418 
0.15174 0.387202 1.43849 
0.031445 0.722556 1.35648 
-0.306443 0.325663 1.39989 
-0.197885 0.353403 -1.39973 
-0.018989 0.7901 -1.22532 
0.164468 0.379503 -1.41468 
0.2116 -0.38843 -1.46955 
-0.033273 -0.770058 -1.30197 
-0.29142 -0.402284 -1.38834 
0.874835 0.632775 0.961916 
1.03304 0.888438 0.664445 
0.650645 0.966568 0.842094 
-1.04305 0.857129 0.633692 
-0.91914 0.555322 0.987095 
-0.648598 1.03455 0.83799 
1.07234 0.908647 -0.592549 
0.82971 0.632867 -1.0849 
0.646975 1.09782 -0.915755 
-0.898681 0.655786 -0.970427 
-1.01105 0.78871 -0.685265 
-0.583194 1.044 -0.922194 
1.00961 -0.961235 0.635677 
0.923345 -0.624388 1.00543 
0.675359 -1.05615 0.876074 
-0.889498 -0.568537 1.02895 
-1.0838 -0.876101 0.557697 
-0.644058 -0.974755 0.900189 
0.926916 -0.571469 -1.05217 
1.04345 -0.832162 -0.640073 
0.607086 -1.06545 -0.872808 
-1.00654 -0.86005 -0.721332 
-0.896451 -0.639032 -1.09126 
-0.655072 -0.991663 -0.927056 
0.0599786 1.41698 -0.47914 
0.444213 1.26025 -0.650622 
-0.0528847 1.35765 0.415688 
0.360585 1.3066 0.61023 
1.04233 1.0985 0.266849 
1.02244 1.00574 -0.165501 
-0.318625 1.33209 0.693099 
-0.413678 1.35784 -0.586939 
-1.05633 1.08973 -0.178083 
-1.01138 0.968727 0.240483 
-0.00369332 -1.45487 0.487445 
0.420828 -1.25159 0.694629 
0.0312012 -1.45338 -0.451361 
0.426827 -1.22981 -0.575775 
1.04946 -0.987217 -0.211964 
1.07537 -1.01784 0.234973 
-0.396027 -1.30388 -0.618701 
-0.353761 -1.2238 0.642878 
-1.05702 -1.07765 0.282041 
-0.994172 -1.03597 -0.271769 
1.39743 0.41091 -0.0428016 
1.32607 0.682833 -0.39023 
1.41485 -0.450621 -0.0108678 
1.32841 -0.654565 -0.440434 
1.04621 -0.248279 -1.05021 
0.971257 0.255889 -1.02738 
1.32255 -0.642065 0.405643 
1.25076 0.695677 0.371922 
0.989473 0.281825 0.998173 
1.03058 -0.245066 1.00288 
-1.48383 0.464216 -0.0491827 
-1.27381 0.633296 0.372655 
-1.4231 -0.35157 -0.0579042 
-1.28507 -0.662021 0.328201 
-1.08233 -0.246581 1.08801 
-1.07947 0.269794 0.999043 
-1.30712 -0.697345 -0.331174 
-1.29131 0.665001 -0.390252 
-1.0559 0.203904 -1.11651 
-1.00687 -0.184129 -1.01672 
0.393506 0.0158782 1.42965 
0.585257 -0.353764 1.2632 
-0.388736 0.0558768 1.47044 
-0.687573 -0.325026 1.31035 
-0.235386 -1.02992 1.05137 
0.177497 -1.06872 0.976305 
-0.664372 0.464993 1.28705 
0.592035 0.363759 1.30122 
0.285644 1.01176 1.01085 
-0.259667 1.04556 1.06766 
0.427512 0.0800236 -1.40004 
0.655183 0.404285 -1.31899 
-0.332425 0.0356118 -1.41201 
-0.64975 0.38871 -1.30222 
-0.223507 1.05749 -1.02574 
0.269054 1.09798 -1.04139 
-0.687078 -0.462394 -1.32349 
0.711555 -0.417269 -1.34957 
0.204945 -1.03579 -1.03362 
-0.306738 -1.05452 -1.04112 
0.664516 1.38563 0.203056 
0.603458 1.28606 -0.13339 
0.378671 1.43985 0.0257068 
-0.589454 1.36462 -0.0989067 
-0.597672 1.38204 0.152483 
-0.382935 1.48648 -0.0300202 
0.511442 -1.36503 -0.122139 
0.585879 -1.30431 0.201323 
0.434434 -1.41661 -0.00880526 
-0.55753 -1.4061 0.113226 
-0.557983 -1.44492 -0.117587 
-0.382532 -1.41326 -0.0775171 
1.37664 -0.111893 -0.682868 
1.40235 0.145034 -0.583803 
1.39932 0.0232875 -0.371431 
1.352 0.059522 0.564353 
1.32198 -0.171495 0.568798 
1.39965 0.0423825 0.434162 
-1.33778 -0.150199 0.663146 
-1.45051 0.138652 0.522597 
-1.43316 0.056594 0.351274 
-1.35095 0.0932312 -0.511292 
-1.32454 -0.14657 -0.603623 
-1.48432 0.00979232 -0.382271 
-0.146402 -0.636086 1.30617 
0.128745 -0.653556 1.34613 
0.0741253 -0.39732 1.37444 
0.0630755 0.555553 1.44443 
-0.14934 0.69117 1.31379 
0.0378805 0.306409 1.40528 
-0.162418 0.622764 -1.35339 
0.140143 0.537369 -1.38365 
0.000853105 0.382498 -1.48305 
0.120126 -0.655044 -1.39694 
-0.109508 -0.677961 -1.32969 
0.0546013 -0.368975 -1.46015 
1.00113 0.770898 0.834305 
0.806295 1.01421 0.714129 
0.701011 0.864875 0.901769 
-0.990676 0.826437 0.789008 
-0.831385 0.863822 1.03977 
-0.891621 0.900042 0.777925 
0.910454 0.701092 -0.855628 
0.777316 0.877974 -0.930824 
0.82617 0.911514 -0.809571 
-1.05422 0.870234 -0.855257 
-0.841173 0.997377 -0.778104 
-0.776931 0.833805 -1.03748 
1.01099 -0.851692 0.901182 
0.743087 -0.844896 0.977118 
0.865956 -0.92578 0.794755 
-0.984311 -0.771217 0.905172 
-0.852964 -1.03043 0.863806 
-0.785893 -0.899695 0.991279 
0.889156 -0.739665 -0.883322 
0.830086 -0.919897 -0.810756 
0.848816 -0.895126 -0.983049 
-1.00308 -0.825675 -0.87214 
-0.766967 -0.756949 -0.973331 
-0.892408 -0.90741 -0.772043 
0.160413 1.4277 -0.288069 
0.382041 1.33803 -0.410935 
0.242191 1.44746 -0.453034 
0.23201 1.43163 0.464416 
0.452064 1.33883 0.513282 
0.218188 1.39776 0.337616 
0.908666 1.0933 0.184332 
1.03205 1.04807 0.00700673 
0.973648 1.16711 -0.129196 
-0.263287 1.50429 0.385149 
-0.358279 1.39029 0.48497 
-0.221454 1.3883 0.534088 
-0.284424 1.43301 -0.583518 
-0.294833 1.35152 -0.452889 
-0.274748 1.37876 -0.366714 
-0.944524 1.11848 -0.10616 
-1.07365 0.980837 0.0424728 
-0.978387 1.16583 0.157894 
0.158168 -1.41078 0.259239 
0.451542 -1.39965 0.539575 
0.203951 -1.3739 0.537032 
0.237033 -1.29395 -0.535813 
0.328496 -1.3688 -0.507732 
0.189309 -1.44665 -0.304942 
0.919478 -1.24293 -0.0633861 
1.12343 -1.03722 0.00649636 
0.898493 -1.15989 0.0546857 
-0.188582 -1.4872 -0.401678 
-0.453259 -1.34908 -0.380654 
-0.221632 -1.40967 -0.595317 
-0.237868 -1.40321 0.595852 
-0.332897 -1.35157 0.498986 
-0.134431 -1.49442 0.382844 
-0.921445 -1.12109 0.0733962 
-1.03277 -1.11995 -0.0170142 
-0.941808 -1.17939 -0.121589 
1.44464 0.393147 -0.188652 
1.40631 0.421543 -0.319278 
1.45082 0.553786 -0.199273 
1.41813 -0.545049 -0.22249 
1.34807 -0.499979 -0.43788 
1.37788 -0.418962 -0.218144 
1.14569 -0.0418186 -0.89022 
0.97849 -0.0151142 -1.08149 
1.15004 0.0368233 -0.906595 
1.41231 -0.322591 0.213868 
1.44113 -0.449256 0.369851 
1.35984 -0.502767 0.140864 
1.33276 0.532361 0.26123 
1.31888 0.374658 0.348241 
1.47302 0.330569 0.207138 
1.15198 0.154316 0.953445 
1.121 0.00798798 1.06598 
1.17317 -0.0856718 0.914302 
-1.4613 0.345953 0.202165 
-1.36231 0.534311 0.406685 
-1.35972 0.582612 0.210677 
-1.386 -0.622615 0.245253 
-1.3266 -0.486931 0.334988 
-1.442 -0.316779 0.164745 
-1.2106 -0.0848832 1.00023 
-0.982781 -0.0854169 1.06548 
-1.17956 0.10294 0.9369 
-1.45979 -0.242165 -0.26053 
-1.2967 -0.479509 -0.337765 
-1.40974 -0.552908 -0.160624 
-1.39918 0.548513 -0.219278 
-1.37389 0.46352 -0.399268 
-1.50527 0.28565 -0.237375 
-1.1832 0.1887 -0.955149 
-0.997774 -0.0772289 -1.05488 
-1.14777 -0.127362 -1.00374 
0.351265 -0.214096 1.35744 
0.479518 -0.31731 1.37023 
0.607555 -0.144927 1.3547 
-0.512695 -0.168209 1.33913 
-0.494304 -0.379572 1.44213 
-0.290464 -0.286087 1.52899 
-0.0851447 -0.969015 1.10126 
-0.00161844 -1.11847 1.0523 
0.0953048 -0.925322 1.09102 
-0.344544 0.226763 1.46857 
-0.43571 0.444787 1.37844 
-0.509392 0.169853 1.36542 
0.561156 0.240065 1.41798 
0.443941 0.359431 1.43516 
0.378826 0.224003 1.42301 
0.134207 0.994886 1.16076 
-0.0120299 1.06409 1.11008 
-0.0988693 0.925912 1.17447 
0.350956 0.168334 -1.44038 
0.497301 0.454824 -1.44151 
0.497814 0.168438 -1.40494 
-0.572797 0.19639 -1.43257 
-0.404454 0.418843 -1.37789 
-0.355142 0.21396 -1.48981 
-0.189807 0.889858 -1.18571 
0.00925423 1.03892 -1.10916 
0.121417 0.890322 -1.12402 
-0.274754 -0.216382 -1.40774 
-0.496222 -0.49646 -1.36338 
-0.572471 -0.148484 -1.42069 
0.538995 -0.188012 -1.44974 
0.43506 -0.318185 -1.33481 
0.37116 -0.177738 -1.49124 
0.159168 -0.933874 -1.09326 
-0.00276589 -1.03461 -1.12174 
-0.0359625 -0.888791 -1.16177 
0.371031 1.09474 0.939614 
0.596467 1.16795 0.829408 
0.334693 1.24133 0.811767 
0.883026 0.336767 1.19286 
0.963033 0.462891 1.06682 
0.702819 0.521286 1.16255 
1.24729 0.817223 0.528057 
1.11551 0.83345 0.324847 
1.05704 0.944925 0.37771 
-0.583035 1.13081 0.749454 
-0.499279 1.04005 0.883739 
-0.302387 1.14887 0.866192 
-1.1166 0.935856 0.381209 
-1.14792 0.775386 0.494214 
-1.02231 1.06816 0.437876 
-0.926607 0.365762 1.04939 
-0.82499 0.3134 1.22794 
-0.733468 0.543553 1.19072 
0.565256 1.20308 -0.680915 
0.423737 1.12148 -1.02614 
0.378459 1.20172 -0.821395 
1.26444 0.886772 -0.324155 
1.25996 0.772527 -0.548795 
1.096 0.996724 -0.472369 
0.988638 0.396842 -1.08871 
0.868266 0.31688 -1.19854 
0.781497 0.548463 -1.19088 
-0.50165 1.01949 -0.962494 
-0.561335 1.18723 -0.84158 
-0.372295 1.18076 -0.856256 
-0.860736 0.266318 -1.17561 
-0.939494 0.362337 -1.0102 
-0.747179 0.522343 -1.13357 
-1.17774 0.819831 -0.555938 
-1.11598 0.920045 -0.299486 
-1.01571 0.941752 -0.426612 
0.443495 -1.19723 0.82081 
0.456496 -1.02924 0.98377 
0.236724 -1.10293 0.881582 
1.14269 -0.927516 0.336021 
1.12951 -0.848679 0.4825 
1.02117 -0.910068 0.42953 
0.982086 -0.459876 1.0421 
0.909454 -0.337967 1.11934 
0.790049 -0.464664 1.16871 
-0.408091 -1.06507 0.935281 
-0.569842 -1.15859 0.820217 
-0.32352 -1.26382 0.823217 
-0.848211 -0.37327 1.24136 
-0.937747 -0.440104 1.03521 
-0.828248 -0.457068 1.18635 
-1.16205 -0.848238 0.487528 
-1.19032 -0.919965 0.271964 
-1.06618 -0.981629 0.481927 
0.465579 -1.04811 -0.982555 
0.534331 -1.13391 -0.797222 
0.2988 -1.19832 -0.863331 
0.778254 -0.332861 -1.16635 
0.962757 -0.448667 -1.08458 
0.714283 -0.490519 -1.20239 
1.20095 -0.799537 -0.588203 
1.22591 -0.869105 -0.35864 
1.0587 -0.984695 -0.442277 
-0.561561 -1.20147 -0.782964 
-0.448418 -1.05818 -0.974544 
-0.335382 -1.17859 -0.819032 
-1.22786 -0.867228 -0.291031 
-1.1166 -0.759233 -0.607976 
-0.972262 -0.96453 -0.433491 
-1.02495 -0.393396 -1.01424 
-0.834002 -0.347077 -1.1751 
-0.716357 -0.509832 -1.17353 
0.114404 1.49617 0.111432 
0.220056 1.45384 -0.0576623 
0.487026 1.3044 0.418999 
0.787129 1.31624 0.306019 
0.824974 1.27735 -0.277558 
0.549948 1.41217 -0.385972 
-0.213764 1.53447 -0.144732 
-0.203247 1.48064 0.0486831 
-0.543695 1.35849 -0.356316 
-0.833353 1.23615 -0.223555 
-0.727785 1.25487 0.260386 
-0.54011 1.35157 0.356055 
0.200556 -1.45481 -0.157429 
0.157617 -1.55049 0.145268 
0.608659 -1.35938 -0.422952 
0.765359 -1.20855 -0.327848 
0.841326 -1.32663 0.29832 
0.62035 -1.40651 0.316868 
-0.233218 -1.41203 0.208122 
-0.231519 -1.46649 -0.166642 
-0.600096 -1.37429 0.309343 
-0.773969 -1.25887 0.201034 
-0.775929 -1.25793 -0.241546 
-0.610387 -1.27224 -0.329946 
1.47233 -0.133635 -0.19441 
1.40739 0.0995638 -0.246616 
1.2731 -0.4233 -0.58873 
1.26052 -0.258867 -0.754417 
1.21938 0.176825 -0.788834 
1.27646 0.372199 -0.574186 
1.48212 0.116733 0.270846 
1.53737 -0.125076 0.168315 
1.25481 0.359262 0.55033 
1.27559 0.204793 0.710288 
1.30366 -0.273712 0.803939 
1.28118 -0.36729 0.580533 
-1.47995 -0.0921265 0.239497 
-1.4894 0.154858 0.215281 
-1.3199 -0.367411 0.537128 
-1.25361 -0.304102 0.854842 
-1.24851 0.165791 0.744288 
-1.25351 0.448918 0.646892 
-1.53375 0.0286435 -0.234672 
-1.45878 -0.0988327 -0.264531 
-1.38236 0.425944 -0.579342 
-1.17714 0.247251 -0.788223 
-1.27981 -0.220468 -0.756986 
-1.31616 -0.351695 -0.629808 
-0.0873426 -0.17668 1.42161 
0.117232 -0.170019 1.45608 
-0.288193 -0.537938 1.34612 
-0.19943 -0.758472 1.25686 
0.233561 -0.810691 1.26606 
0.32186 -0.588331 1.36684 
0.126207 0.248634 1.47586 
-0.120581 0.227839 1.48846 
0.351462 0.587971 1.35762 
0.250001 0.807924 1.2877 
-0.26983 0.740022 1.20671 
-0.349193 0.534284 1.41646 
-0.139992 0.120509 -1.46416 
0.116348 0.259653 -1.54767 
-0.368439 0.534314 -1.33053 
-0.239281 0.697765 -1.15941 
0.260349 0.804531 -1.21431 
0.27412 0.607707 -1.26232 
0.150322 -0.177734 -1.50257 
-0.0752904 -0.162385 -1.47354 
0.433523 -0.577237 -1.36738 
0.256598 -0.768021 -1.23221 
-0.23668 -0.784649 -1.20739 
-0.342674 -0.592058 -1.3275 
0.734113 0.679444 1.20486 
0.616731 0.978344 1.0475 
1.1167 0.555489 0.914734 
1.13498 0.698881 0.743553 
0.870601 1.10551 0.51648 
0.753877 1.12591 0.677066 
-0.843023 1.02125 0.555746 
-0.674285 1.11944 0.689977 
-1.18441 0.661493 0.705874 
-1.05529 0.55347 0.892703 
-0.666606 0.647697 1.10415 
-0.579203 0.906413 1.00008 
0.867509 1.01694 -0.516412 
0.680384 1.09126 -0.621881 
1.15555 0.70762 -0.702609 
1.03817 0.531565 -0.913212 
0.654572 0.735817 -1.08335 
0.633256 0.963783 -1.1285 
-0.700284 0.716669 -1.12031 
-0.573691 0.921651 -1.04822 
-1.08628 0.591402 -0.944758 
-1.09135 0.693184 -0.74099 
-0.813351 1.03812 -0.535763 
-0.676457 1.19602 -0.704765 
0.883622 -1.08682 0.560477 
0.684051 -1.08163 0.761707 
1.10735 -0.652127 0.712614 
1.08466 -0.557052 0.869829 
0.741067 -0.721373 1.11851 
0.530373 -0.833126 1.06166 
-0.695794 -0.763059 1.17168 
-0.511014 -0.813185 1.10764 
-1.0524 -0.483578 0.822764 
-1.10678 -0.684677 0.786199 
-0.895909 -1.08298 0.511096 
-0.693448 -1.17782 0.689733 
0.770904 -0.773114 -1.0993 
0.553587 -0.844802 -1.02248 
1.12813 -0.544015 -0.882804 
1.08205 -0.694628 -0.717995 
0.952321 -1.08911 -0.529463 
0.683573 -1.11875 -0.667684 
-0.874343 -1.03424 -0.574199 
-0.754224 -1.18428 -0.701254 
-1.10493 -0.722023 -0.745234 
-1.07521 -0.485539 -0.881832 
-0.68679 -0.644567 -1.18695 
-0.52582 -0.952132 -1.05326 
0.0699776 1.28623 -0.584027 
0.182302 1.26012 -0.719298 
-0.0298481 1.49846 -0.228014 
0.677655 1.36352 -0.565486 
0.0116131 1.50729 0.230421 
-0.0049641 1.34262 0.581146 
0.171568 1.29942 0.661738 
0.507599 1.25335 0.569715 
0.862836 1.11965 -0.394317 
0.916708 1.15146 0.370984 
1.08571 0.902995 0.154568 
1.21064 0.888497 -0.125961 
-0.258483 1.23258 0.73513 
-0.658189 1.19936 0.564751 
-0.178574 1.2425 -0.702835 
-0.533701 1.30994 -0.568675 
-0.892405 1.15682 0.351543 
-0.95733 1.08899 -0.268314 
-1.2157 0.930999 -0.156561 
-1.15046 0.93747 0.204098 
0.0406545 -1.34469 0.563111 
0.166471 -1.23464 0.753698 
-0.0346612 -1.48459 0.273072 
0.653149 -1.34757 0.562199 
-0.0240007 -1.54913 -0.262177 
-0.000172729 -1.39432 -0.616213 
0.190511 -1.30131 -0.822929 
0.565044 -1.31688 -0.603886 
0.987177 -1.125 0.321837 
0.848322 -1.0997 -0.375415 
1.09239 -0.948455 -0.113538 
1.1544 -0.978785 0.0885499 
-0.191134 -1.28345 -0.758673 
-0.607533 -1.27812 -0.572344 
-0.229272 -1.22973 0.653405 
-0.663142 -1.19837 0.571471 
-0.905216 -1.1807 -0.350635 
-0.89756 -1.19107 0.413535 
-1.20441 -0.899617 0.0885882 
-1.23821 -0.961533 -0.116394 
1.29034 0.587516 0.0841663 
1.32718 0.687777 -0.167956 
1.48237 0.173709 0.0427852 
1.23056 0.601149 -0.544889 
1.44057 -0.200809 -0.00572304 
1.35814 -0.582712 -0.0421503 
1.29188 -0.69932 -0.177745 
1.26535 -0.522537 -0.609458 
1.19537 0.367 -0.920429 
1.16233 -0.406701 -0.854576 
0.849124 -0.151006 -1.13762 
0.93329 0.122039 -1.1765 
1.33607 -0.729546 0.162841 
1.2434 -0.600744 0.580052 
1.30546 0.747311 0.207551 
1.26821 0.568783 0.504569 
1.09817 -0.354915 0.970652 
1.22115 0.355828 0.90675 
0.868674 0.179218 1.18365 
0.962405 -0.143616 1.13258 
-1.38188 0.61263 0.0313577 
-1.26857 0.744087 0.124645 
-1.45757 0.263024 -0.0750384 
-1.27174 0.492264 0.566119 
-1.4869 -0.165234 0.0113469 
-1.36306 -0.664919 0.0175717 
-1.35874 -0.722434 0.215087 
-1.2668 -0.579081 0.593906 
-1.1424 0.38824 0.986311 
-1.13451 -0.284077 0.964325 
-0.963185 -0.163319 1.13353 
-0.931828 0.108765 1.15095 
-1.37791 -0.711441 -0.16552 
-1.3175 -0.553211 -0.614433 
-1.25441 0.734766 -0.194118 
-1.31546 0.476246 -0.528701 
-1.17 -0.399362 -0.963213 
-1.15171 0.310967 -0.875813 
-0.91871 0.176473 -1.21265 
-0.946559 -0.167242 -1.24502 
0.636024 0.0185884 1.36554 
0.715415 -0.186577 1.27751 
0.27479 0.0336271 1.48099 
0.557777 -0.593429 1.27055 
-0.146799 0.0249783 1.49844 
-0.646144 -0.0246114 1.40296 
-0.721054 -0.149507 1.28405 
-0.506002 -0.541859 1.31179 
0.342688 -0.871922 1.13482 
-0.301536 -0.895018 1.19313 
-0.136794 -1.12955 0.893282 
0.0994399 -1.1408 0.903506 
-0.664818 0.195703 1.31106 
-0.609304 0.569542 1.26153 
0.684596 0.251052 1.21411 
0.637197 0.588561 1.2619 
-0.35452 0.928986 1.1813 
0.3434 0.985542 1.11094 
0.155322 1.1342 0.93474 
-0.091094 1.1883 0.949959 
0.586799 -0.00263134 -1.40378 
0.678247 0.275903 -1.29365 
0.242479 0.0370237 -1.48301 
0.611778 0.565698 -1.2691 
-0.162046 0.0521336 -1.43464 
-0.643434 0.0228495 -1.3084 
-0.769035 0.22076 -1.31841 
-0.561608 0.483228 -1.21157 
0.32954 0.851737 -1.12525 
-0.370442 0.882273 -1.21663 
-0.109946 1.12957 -0.900828 
0.102097 1.18507 -0.925649 
-0.742447 -0.255865 -1.26256 
-0.575693 -0.585264 -1.24075 
0.710299 -0.161762 -1.32407 
0.493294 -0.578783 -1.26969 
-0.36073 -0.85205 -1.11784 
0.433441 -0.8511 -1.10611 
0.149811 -1.14272 -0.846175 
-0.0807145 -1.15753 -0.87414 
3 162 163 164 
3 165 166 167 
3 168 169 170 
3 171 172 173 
3 174 175 176 
3 177 178 179 
3 180 181 182 
3 183 184 185 
3 186 187 188 
3 189 190 191 
3 192 193 194 
3 195 196 197 
3 198 199 200 
3 201 202 203 
3 204 205 206 
3 207 208 209 
3 210 211 212 
3 213 214 215 
3 216 217 218 
3 219 220 221 
3 222 223 224 
3 225 226 227 
3 228 229 230 
3 231 232 233 
3 234 235 236 
3 237 238 239 
3 240 241 242 
3 243 244 245 
3 246 247 248 
3 249 250 251 
3 252 253 254 
3 255 256 257 
3 258 259 260 
3 261 262 263 
3 264 265 266 
3 267 268 269 
3 270 271 272 
3 273 274 275 
3 276 277 278 
3 279 280 281 
3 282 283 284 
3 285 286 287 
3 288 289 290 
3 291 292 293 
3 294 295 296 
3 297 298 299 
3 300 301 302 
3 303 304 305 
3 306 307 308 
3 309 310 311 
3 312 313 314 
3 315 316 317 
3 318 319 320 
3 321 322 323 
3 324 325 326 
3 327 328 329 
3 330 331 332 
3 333 334 335 
3 336 337 338 
3 339 340 341 
3 342 343 344 
3 345 346 347 
3 348 349 350 
3 351 352 353 
3 354 355 356 
3 357 358 359 
3 360 361 362 
3 363 364 365 
3 366 367 368 
3 369 370 371 
3 372 373 374 
3 375 376 377 
3 378 379 380 
3 381 382 383 
3 384 385 386 
3 387 388 389 
3 390 391 392 
3 393 394 395 
3 396 397 398 
3 399 400 401 
3 402 164 403 
3 404 405 162 
3 163 406 407 
3 408 167 409 
3 410 411 165 
3 166 412 413 
3 414 170 415 
3 416 417 168 
3 169 418 419 
3 420 173 421 
3 422 423 171 
3 172 424 425 
3 426 176 427 
3 428 429 174 
3 175 430 431 
3 432 179 433 
3 434 435 177 
3 178 436 437 
3 438 182 439 
3 440 441 180 
3 181 442 443 
3 444 185 445 
3 446 447 183 
3 184 448 449 
3 450 188 451 
3 452 453 186 
3 187 454 455 
3 456 191 457 
3 458 459 189 
3 190 460 461 
3 462 194 463 
3 464 465 192 
3 193 466 467 
3 468 197 469 
3 470 471 195 
3 196 472 473 
3 474 200 475 
3 476 477 198 
3 199 478 479 
3 480 203 481 
3 482 483 201 
3 202 484 485 
3 486 206 487 
3 488 489 204 
3 205 490 491 
3 492 209 493 
3 494 495 207 
3 208 496 497 
3 498 212 499 
3 500 501 210 
3 211 502 503 
3 504 215 505 
3 506 507 213 
3 214 508 509 
3 510 218 511 
3 512 513 216 
3 217 514 515 
3 516 221 517 
3 518 519 219 
3 220 520 521 
3 522 224 523 
3 524 403 222 
3 223 407 525 
3 526 227 402 
3 527 528 225 
3 226 529 404 
3 406 230 530 
3 405 531 228 
3 229 532 533 
3 527 233 534 
3 526 409 231 
3 232 413 535 
3 524 236 408 
3 522 536 234 
3 235 537 410 
3 412 239 538 
3 411 539 237 
3 238 540 541 
3 542 242 543 
3 544 415 240 
3 241 419 545 
3 546 245 414 
3 547 548 243 
3 244 549 416 
3 418 248 550 
3 417 551 246 
3 247 552 553 
3 547 251 554 
3 546 421 249 
3 250 425 555 
3 544 254 420 
3 542 556 252 
3 253 557 422 
3 424 257 558 
3 423 559 255 
3 256 560 561 
3 562 260 563 
3 564 427 258 
3 259 431 565 
3 566 263 426 
3 567 568 261 
3 262 569 428 
3 430 266 570 
3 429 571 264 
3 265 572 573 
3 567 269 574 
3 566 433 267 
3 268 437 575 
3 564 272 432 
3 562 576 270 
3 271 577 434 
3 436 275 578 
3 435 579 273 
3 274 580 581 
3 582 278 583 
3 584 439 276 
3 277 443 585 
3 586 281 438 
3 587 588 279 
3 280 589 440 
3 442 284 590 
3 441 591 282 
3 283 592 593 
3 587 287 594 
3 586 445 285 
3 286 449 595 
3 584 290 444 
3 582 596 288 
3 289 597 446 
3 448 293 598 
3 447 599 291 
3 292 600 601 
3 602 296 603 
3 604 451 294 
3 295 455 605 
3 606 299 450 
3 607 608 297 
3 298 609 452 
3 454 302 610 
3 453 611 300 
3 301 612 613 
3 607 305 614 
3 606 457 303 
3 304 461 615 
3 604 308 456 
3 602 616 306 
3 307 617 458 
3 460 311 618 
3 459 619 309 
3 310 620 621 
3 622 314 623 
3 624 463 312 
3 313 467 625 
3 626 317 462 
3 627 628 315 
3 316 629 464 
3 466 320 630 
3 465 631 318 
3 319 632 633 
3 627 323 634 
3 626 469 321 
3 322 473 635 
3 624 326 468 
3 622 636 324 
3 325 637 470 
3 472 329 638 
3 471 639 327 
3 328 640 641 
3 620 332 528 
3 619 475 330 
3 331 479 529 
3 617 335 474 
3 616 580 333 
3 334 579 476 
3 478 338 531 
3 477 577 336 
3 337 576 532 
3 534 341 621 
3 535 481 339 
3 340 485 618 
3 538 344 480 
3 541 583 342 
3 343 585 482 
3 484 347 615 
3 483 590 345 
3 346 593 614 
3 523 350 633 
3 525 487 348 
3 349 491 630 
3 530 353 486 
3 533 563 351 
3 352 565 488 
3 490 356 625 
3 489 570 354 
3 355 573 623 
3 632 359 536 
3 631 493 357 
3 358 497 537 
3 629 362 492 
3 628 600 360 
3 361 599 494 
3 496 365 539 
3 495 597 363 
3 364 596 540 
3 543 368 613 
3 545 499 366 
3 367 503 610 
3 550 371 498 
3 553 574 369 
3 370 575 500 
3 502 374 605 
3 501 578 372 
3 373 581 603 
3 612 377 556 
3 611 505 375 
3 376 509 557 
3 609 380 504 
3 608 592 378 
3 379 591 506 
3 508 383 559 
3 507 589 381 
3 382 588 560 
3 640 386 548 
3 639 511 384 
3 385 515 549 
3 637 389 510 
3 636 572 387 
3 388 571 512 
3 514 392 551 
3 513 569 390 
3 391 568 552 
3 554 395 641 
3 555 517 393 
3 394 521 638 
3 558 398 516 
3 561 594 396 
3 397 595 518 
3 520 401 635 
3 519 598 399 
3 400 601 634 
3 42 162 164 
3 162 43 163 
3 164 163 44 
3 45 165 167 
3 165 46 166 
3 167 166 47 
3 48 168 170 
3 168 49 169 
3 170 169 50 
3 51 171 173 
3 171 52 172 
3 173 172 53 
3 54 174 176 
3 174 55 175 
3 176 175 56 
3 57 177 179 
3 177 58 178 
3 179 178 59 
3 60 180 182 
3 180 61 181 
3 182 181 62 
3 63 183 185 
3 183 64 184 
3 185 184 65 
3 66 186 188 
3 186 67 187 
3 188 187 68 
3 69 189 191 
3 189 70 190 
3 191 190 71 
3 72 192 194 
3 192 73 193 
3 194 193 74 
3 75 195 197 
3 195 76 196 
3 197 196 77 
3 78 198 200 
3 198 79 199 
3 200 199 80 
3 81 201 203 
3 201 82 202 
3 203 202 83 
3 84 204 206 
3 204 85 205 
3 206 205 86 
3 87 207 209 
3 207 88 208 
3 209 208 89 
3 90 210 212 
3 210 91 211 
3 212 211 92 
3 93 213 215 
3 213 94 214 
3 215 214 95 
3 96 216 218 
3 216 97 217 
3 218 217 98 
3 99 219 221 
3 219 100 220 
3 221 220 101 
3 102 222 224 
3 222 44 223 
3 224 223 103 
3 104 225 227 
3 225 105 226 
3 227 226 42 
3 43 228 230 
3 228 106 229 
3 230 229 107 
3 104 231 233 
3 231 47 232 
3 233 232 108 
3 102 234 236 
3 234 109 235 
3 236 235 45 
3 46 237 239 
3 237 110 238 
3 239 238 111 
3 112 240 242 
3 240 50 241 
3 242 241 113 
3 114 243 245 
3 243 115 244 
3 245 244 48 
3 49 246 248 
3 246 116 247 
3 248 247 117 
3 114 249 251 
3 249 53 250 
3 251 250 118 
3 112 252 254 
3 252 119 253 
3 254 253 51 
3 52 255 257 
3 255 120 256 
3 257 256 121 
3 122 258 260 
3 258 56 259 
3 260 259 123 
3 124 261 263 
3 261 125 262 
3 263 262 54 
3 55 264 266 
3 264 126 265 
3 266 265 127 
3 124 267 269 
3 267 59 268 
3 269 268 128 
3 122 270 272 
3 270 129 271 
3 272 271 57 
3 58 273 275 
3 273 130 274 
3 275 274 131 
3 132 276 278 
3 276 62 277 
3 278 277 133 
3 134 279 281 
3 279 135 280 
3 281 280 60 
3 61 282 284 
3 282 136 283 
3 284 283 137 
3 134 285 287 
3 285 65 286 
3 287 286 138 
3 132 288 290 
3 288 139 289 
3 290 289 63 
3 64 291 293 
3 291 140 292 
3 293 292 141 
3 142 294 296 
3 294 68 295 
3 296 295 143 
3 144 297 299 
3 297 145 298 
3 299 298 66 
3 67 300 302 
3 300 146 301 
3 302 301 147 
3 144 303 305 
3 303 71 304 
3 305 304 148 
3 142 306 308 
3 306 149 307 
3 308 307 69 
3 70 309 311 
3 309 150 310 
3 311 310 151 
3 152 312 314 
3 312 74 313 
3 314 313 153 
3 154 315 317 
3 315 155 316 
3 317 316 72 
3 73 318 320 
3 318 156 319 
3 320 319 157 
3 154 321 323 
3 321 77 322 
3 323 322 158 
3 152 324 326 
3 324 159 325 
3 326 325 75 
3 76 327 329 
3 327 160 328 
3 329 328 161 
3 150 330 332 
3 330 80 331 
3 332 331 105 
3 149 333 335 
3 333 130 334 
3 335 334 78 
3 79 336 338 
3 336 129 337 
3 338 337 106 
3 108 339 341 
3 339 83 340 
3 341 340 151 
3 111 342 344 
3 342 133 343 
3 344 343 81 
3 82 345 347 
3 345 137 346 
3 347 346 148 
3 103 348 350 
3 348 86 349 
3 350 349 157 
3 107 351 353 
3 351 123 352 
3 353 352 84 
3 85 354 356 
3 354 127 355 
3 356 355 153 
3 156 357 359 
3 357 89 358 
3 359 358 109 
3 155 360 362 
3 360 140 361 
3 362 361 87 
3 88 363 365 
3 363 139 364 
3 365 364 110 
3 113 366 368 
3 366 92 367 
3 368 367 147 
3 117 369 371 
3 369 128 370 
3 371 370 90 
3 91 372 374 
3 372 131 373 
3 374 373 143 
3 146 375 377 
3 375 95 376 
3 377 376 119 
3 145 378 380 
3 378 136 379 
3 380 379 93 
3 94 381 383 
3 381 135 382 
3 383 382 120 
3 160 384 386 
3 384 98 385 
3 386 385 115 
3 159 387 389 
3 387 126 388 
3 389 388 96 
3 97 390 392 
3 390 125 391 
3 392 391 116 
3 118 393 395 
3 393 101 394 
3 395 394 161 
3 121 396 398 
3 396 138 397 
3 398 397 99 
3 100 399 401 
3 399 141 400 
3 401 400 158 
3 12 402 403 
3 402 42 164 
3 403 164 44 
3 42 404 162 
3 404 13 405 
3 162 405 43 
3 44 163 407 
3 163 43 406 
3 407 406 14 
3 12 408 409 
3 408 45 167 
3 409 167 47 
3 45 410 165 
3 410 15 411 
3 165 411 46 
3 47 166 413 
3 166 46 412 
3 413 412 16 
3 17 414 415 
3 414 48 170 
3 415 170 50 
3 48 416 168 
3 416 18 417 
3 168 417 49 
3 50 169 419 
3 169 49 418 
3 419 418 19 
3 17 420 421 
3 420 51 173 
3 421 173 53 
3 51 422 171 
3 422 20 423 
3 171 423 52 
3 53 172 425 
3 172 52 424 
3 425 424 21 
3 22 426 427 
3 426 54 176 
3 427 176 56 
3 54 428 174 
3 428 23 429 
3 174 429 55 
3 56 175 431 
3 175 55 430 
3 431 430 24 
3 22 432 433 
3 432 57 179 
3 433 179 59 
3 57 434 177 
3 434 25 435 
3 177 435 58 
3 59 178 437 
3 178 58 436 
3 437 436 26 
3 27 438 439 
3 438 60 182 
3 439 182 62 
3 60 440 180 
3 440 28 441 
3 180 441 61 
3 62 181 443 
3 181 61 442 
3 443 442 29 
3 27 444 445 
3 444 63 185 
3 445 185 65 
3 63 446 183 
3 446 30 447 
3 183 447 64 
3 65 184 449 
3 184 64 448 
3 449 448 31 
3 32 450 451 
3 450 66 188 
3 451 188 68 
3 66 452 186 
3 452 33 453 
3 186 453 67 
3 68 187 455 
3 187 67 454 
3 455 454 34 
3 32 456 457 
3 456 69 191 
3 457 191 71 
3 69 458 189 
3 458 35 459 
3 189 459 70 
3 71 190 461 
3 190 70 460 
3 461 460 36 
3 37 462 463 
3 462 72 194 
3 463 194 74 
3 72 464 192 
3 464 38 465 
3 192 465 73 
3 74 193 467 
3 193 73 466 
3 467 466 39 
3 37 468 469 
3 468 75 197 
3 469 197 77 
3 75 470 195 
3 470 40 471 
3 195 471 76 
3 77 196 473 
3 196 76 472 
3 473 472 41 
3 35 474 475 
3 474 78 200 
3 475 200 80 
3 78 476 198 
3 476 25 477 
3 198 477 79 
3 80 199 479 
3 199 79 478 
3 479 478 13 
3 16 480 481 
3 480 81 203 
3 481 203 83 
3 81 482 201 
3 482 29 483 
3 201 483 82 
3 83 202 485 
3 202 82 484 
3 485 484 36 
3 14 486 487 
3 486 84 206 
3 487 206 86 
3 84 488 204 
3 488 24 489 
3 204 489 85 
3 86 205 491 
3 205 85 490 
3 491 490 39 
3 38 492 493 
3 492 87 209 
3 493 209 89 
3 87 494 207 
3 494 30 495 
3 207 495 88 
3 89 208 497 
3 208 88 496 
3 497 496 15 
3 19 498 499 
3 498 90 212 
3 499 212 92 
3 90 500 210 
3 500 26 501 
3 210 501 91 
3 92 211 503 
3 211 91 502 
3 503 502 34 
3 33 504 505 
3 504 93 215 
3 505 215 95 
3 93 506 213 
3 506 28 507 
3 213 507 94 
3 95 214 509 
3 214 94 508 
3 509 508 20 
3 40 510 511 
3 510 96 218 
3 511 218 98 
3 96 512 216 
3 512 23 513 
3 216 513 97 
3 98 217 515 
3 217 97 514 
3 515 514 18 
3 21 516 517 
3 516 99 221 
3 517 221 101 
3 99 518 219 
3 518 31 519 
3 219 519 100 
3 101 220 521 
3 220 100 520 
3 521 520 41 
3 1 522 523 
3 522 102 224 
3 523 224 103 
3 102 524 222 
3 524 12 403 
3 222 403 44 
3 103 223 525 
3 223 44 407 
3 525 407 14 
3 12 526 402 
3 526 104 227 
3 402 227 42 
3 104 527 225 
3 527 0 528 
3 225 528 105 
3 42 226 404 
3 226 105 529 
3 404 529 13 
3 14 406 530 
3 406 43 230 
3 530 230 107 
3 43 405 228 
3 405 13 531 
3 228 531 106 
3 107 229 533 
3 229 106 532 
3 533 532 4 
3 0 527 534 
3 527 104 233 
3 534 233 108 
3 104 526 231 
3 526 12 409 
3 231 409 47 
3 108 232 535 
3 232 47 413 
3 535 413 16 
3 12 524 408 
3 524 102 236 
3 408 236 45 
3 102 522 234 
3 522 1 536 
3 234 536 109 
3 45 235 410 
3 235 109 537 
3 410 537 15 
3 16 412 538 
3 412 46 239 
3 538 239 111 
3 46 411 237 
3 411 15 539 
3 237 539 110 
3 111 238 541 
3 238 110 540 
3 541 540 6 
3 2 542 543 
3 542 112 242 
3 543 242 113 
3 112 544 240 
3 544 17 415 
3 240 415 50 
3 113 241 545 
3 241 50 419 
3 545 419 19 
3 17 546 414 
3 546 114 245 
3 414 245 48 
3 114 547 243 
3 547 3 548 
3 243 548 115 
3 48 244 416 
3 244 115 549 
3 416 549 18 
3 19 418 550 
3 418 49 248 
3 550 248 117 
3 49 417 246 
3 417 18 551 
3 246 551 116 
3 117 247 553 
3 247 116 552 
3 553 552 5 
3 3 547 554 
3 547 114 251 
3 554 251 118 
3 114 546 249 
3 546 17 421 
3 249 421 53 
3 118 250 555 
3 250 53 425 
3 555 425 21 
3 17 544 420 
3 544 112 254 
3 420 254 51 
3 112 542 252 
3 542 2 556 
3 252 556 119 
3 51 253 422 
3 253 119 557 
3 422 557 20 
3 21 424 558 
3 424 52 257 
3 558 257 121 
3 52 423 255 
3 423 20 559 
3 255 559 120 
3 121 256 561 
3 256 120 560 
3 561 560 7 
3 4 562 563 
3 562 122 260 
3 563 260 123 
3 122 564 258 
3 564 22 427 
3 258 427 56 
3 123 259 565 
3 259 56 431 
3 565 431 24 
3 22 566 426 
3 566 124 263 
3 426 263 54 
3 124 567 261 
3 567 5 568 
3 261 568 125 
3 54 262 428 
3 262 125 569 
3 428 569 23 
3 24 430 570 
3 430 55 266 
3 570 266 127 
3 55 429 264 
3 429 23 571 
3 264 571 126 
3 127 265 573 
3 265 126 572 
3 573 572 10 
3 5 567 574 
3 567 124 269 
3 574 269 128 
3 124 566 267 
3 566 22 433 
3 267 433 59 
3 128 268 575 
3 268 59 437 
3 575 437 26 
3 22 564 432 
3 564 122 272 
3 432 272 57 
3 122 562 270 
3 562 4 576 
3 270 576 129 
3 57 271 434 
3 271 129 577 
3 434 577 25 
3 26 436 578 
3 436 58 275 
3 578 275 131 
3 58 435 273 
3 435 25 579 
3 273 579 130 
3 131 274 581 
3 274 130 580 
3 581 580 8 
3 6 582 583 
3 582 132 278 
3 583 278 133 
3 132 584 276 
3 584 27 439 
3 276 439 62 
3 133 277 585 
3 277 62 443 
3 585 443 29 
3 27 586 438 
3 586 134 281 
3 438 281 60 
3 134 587 279 
3 587 7 588 
3 279 588 135 
3 60 280 440 
3 280 135 589 
3 440 589 28 
3 29 442 590 
3 442 61 284 
3 590 284 137 
3 61 441 282 
3 441 28 591 
3 282 591 136 
3 137 283 593 
3 283 136 592 
3 593 592 9 
3 7 587 594 
3 587 134 287 
3 594 287 138 
3 134 586 285 
3 586 27 445 
3 285 445 65 
3 138 286 595 
3 286 65 449 
3 595 449 31 
3 27 584 444 
3 584 132 290 
3 444 290 63 
3 132 582 288 
3 582 6 596 
3 288 596 139 
3 63 289 446 
3 289 139 597 
3 446 597 30 
3 31 448 598 
3 448 64 293 
3 598 293 141 
3 64 447 291 
3 447 30 599 
3 291 599 140 
3 141 292 601 
3 292 140 600 
3 601 600 11 
3 8 602 603 
3 602 142 296 
3 603 296 143 
3 142 604 294 
3 604 32 451 
3 294 451 68 
3 143 295 605 
3 295 68 455 
3 605 455 34 
3 32 606 450 
3 606 144 299 
3 450 299 66 
3 144 607 297 
3 607 9 608 
3 297 608 145 
3 66 298 452 
3 298 145 609 
3 452 609 33 
3 34 454 610 
3 454 67 302 
3 610 302 147 
3 67 453 300 
3 453 33 611 
3 300 611 146 
3 147 301 613 
3 301 146 612 
3 613 612 2 
3 9 607 614 
3 607 144 305 
3 614 305 148 
3 144 606 303 
3 606 32 457 
3 303 457 71 
3 148 304 615 
3 304 71 461 
3 615 461 36 
3 32 604 456 
3 604 142 308 
3 456 308 69 
3 142 602 306 
3 602 8 616 
3 306 616 149 
3 69 307 458 
3 307 149 617 
3 458 617 35 
3 36 460 618 
3 460 70 311 
3 618 311 151 
3 70 459 309 
3 459 35 619 
3 309 619 150 
3 151 310 621 
3 310 150 620 
3 621 620 0 
3 10 622 623 
3 622 152 314 
3 623 314 153 
3 152 624 312 
3 624 37 463 
3 312 463 74 
3 153 313 625 
3 313 74 467 
3 625 467 39 
3 37 626 462 
3 626 154 317 
3 462 317 72 
3 154 627 315 
3 627 11 628 
3 315 628 155 
3 72 316 464 
3 316 155 629 
3 464 629 38 
3 39 466 630 
3 466 73 320 
3 630 320 157 
3 73 465 318 
3 465 38 631 
3 318 631 156 
3 157 319 633 
3 319 156 632 
3 633 632 1 
3 11 627 634 
3 627 154 323 
3 634 323 158 
3 154 626 321 
3 626 37 469 
3 321 469 77 
3 158 322 635 
3 322 77 473 
3 635 473 41 
3 37 624 468 
3 624 152 326 
3 468 326 75 
3 152 622 324 
3 622 10 636 
3 324 636 159 
3 75 325 470 
3 325 159 637 
3 470 637 40 
3 41 472 638 
3 472 76 329 
3 638 329 161 
3 76 471 327 
3 471 40 639 
3 327 639 160 
3 161 328 641 
3 328 160 640 
3 641 640 3 
3 0 620 528 
3 620 150 332 
3 528 332 105 
3 150 619 330 
3 619 35 475 
3 330 475 80 
3 105 331 529 
3 331 80 479 
3 529 479 13 
3 35 617 474 
3 617 149 335 
3 474 335 78 
3 149 616 333 
3 616 8 580 
3 333 580 130 
3 78 334 476 
3 334 130 579 
3 476 579 25 
3 13 478 531 
3 478 79 338 
3 531 338 106 
3 79 477 336 
3 477 25 577 
3 336 577 129 
3 106 337 532 
3 337 129 576 
3 532 576 4 
3 0 534 621 
3 534 108 341 
3 621 341 151 
3 108 535 339 
3 535 16 481 
3 339 481 83 
3 151 340 618 
3 340 83 485 
3 618 485 36 
3 16 538 480 
3 538 111 344 
3 480 344 81 
3 111 541 342 
3 541 6 583 
3 342 583 133 
3 81 343 482 
3 343 133 585 
3 482 585 29 
3 36 484 615 
3 484 82 347 
3 615 347 148 
3 82 483 345 
3 483 29 590 
3 345 590 137 
3 148 346 614 
3 346 137 593 
3 614 593 9 
3 1 523 633 
3 523 103 350 
3 633 350 157 
3 103 525 348 
3 525 14 487 
3 348 487 86 
3 157 349 630 
3 349 86 491 
3 630 491 39 
3 14 530 486 
3 530 107 353 
3 486 353 84 
3 107 533 351 
3 533 4 563 
3 351 563 123 
3 84 352 488 
3 352 123 565 
3 488 565 24 
3 39 490 625 
3 490 85 356 
3 625 356 153 
3 85 489 354 
3 489 24 570 
3 354 570 127 
3 153 355 623 
3 355 127 573 
3 623 573 10 
3 1 632 536 
3 632 156 359 
3 536 359 109 
3 156 631 357 
3 631 38 493 
3 357 493 89 
3 109 358 537 
3 358 89 497 
3 537 497 15 
3 38 629 492 
3 629 155 362 
3 492 362 87 
3 155 628 360 
3 628 11 600 
3 360 600 140 
3 87 361 494 
3 361 140 599 
3 494 599 30 
3 15 496 539 
3 496 88 365 
3 539 365 110 
3 88 495 363 
3 495 30 597 
3 363 597 139 
3 110 364 540 
3 364 139 596 
3 540 596 6 
3 2 543 613 
3 543 113 368 
3 613 368 147 
3 113 545 366 
3 545 19 499 
3 366 499 92 
3 147 367 610 
3 367 92 503 
3 610 503 34 
3 19 550 498 
3 550 117 371 
3 498 371 90 
3 117 553 369 
3 553 5 574 
3 369 574 128 
3 90 370 500 
3 370 128 575 
3 500 575 26 
3 34 502 605 
3 502 91 374 
3 605 374 143 
3 91 501 372 
3 501 26 578 
3 372 578 131 
3 143 373 603 
3 373 131 581 
3 603 581 8 
3 2 612 556 
3 612 146 377 
3 556 377 119 
3 146 611 375 
3 611 33 505 
3 375 505 95 
3 119 376 557 
3 376 95 509 
3 557 509 20 
3 33 609 504 
3 609 145 380 
3 504 380 93 
3 145 608 378 
3 608 9 592 
3 378 592 136 
3 93 379 506 
3 379 136 591 
3 506 591 28 
3 20 508 559 
3 508 94 383 
3 559 383 120 
3 94 507 381 
3 507 28 589 
3 381 589 135 
3 120 382 560 
3 382 135 588 
3 560 588 7 
3 3 640 548 
3 640 160 386 
3 548 386 115 
3 160 639 384 
3 639 40 511 
3 384 511 98 
3 115 385 549 
3 385 98 515 
3 549 515 18 
3 40 637 510 
3 637 159 389 
3 510 389 96 
3 159 636 387 
3 636 10 572 
3 387 572 126 
3 96 388 512 
3 388 126 571 
3 512 571 23 
3 18 514 551 
3 514 97 392 
3 551 392 116 
3 97 513 390 
3 513 23 569 
3 390 569 125 
3 116 391 552 
3 391 125 568 
3 552 568 5 
3 3 554 641 
3 554 118 395 
3 641 395 161 
3 118 555 393 
3 555 21 517 
3 393 517 101 
3 161 394 638 
3 394 101 521 
3 638 521 41 
3 21 558 516 
3 558 121 398 
3 516 398 99 
3 121 561 396 
3 561 7 594 
3 396 594 138 
3 99 397 518 
3 397 138 595 
3 518 595 31 
3 41 520 635 
3 520 100 401 
3 635 401 158 
3 100 519 399 
3 519 31 598 
3 399 598 141 
3 158 400 634 
3 400 141 601 
3 634 601 11 
