ply
format ascii 1.0
comment Created by Blender 2.76 (sub 0) - www.blender.org, source file: 'untitled.blend'
element vertex 7
property float x
property float y
property float z
property float nx
property float ny
property float nz
element face 6
property list uchar uint vertex_indices
end_header
0.000000 0.000000 0.000000 -0.000000 0.000000 1.000000
0.000000 1.000000 0.000000 -0.000000 0.000000 1.000000
-0.866025 0.500000 0.000000 -0.000000 0.000000 1.000000
-0.866025 -0.500000 0.000000 -0.000000 -0.000000 1.000000
0.000000 -1.000000 0.000000 0.000000 -0.000000 1.000000
0.866025 -0.500000 0.000000 0.000000 0.000000 1.000000
0.866025 0.500000 0.000000 0.000000 0.000000 1.000000
3 0 1 2
3 0 2 3
3 0 3 4
3 0 4 5
3 0 5 6
3 0 6 1
