ply
format ascii 1.0
comment VCGLIB generated
element vertex 642
property float x
property float y
property float z
element face 1280
property list uchar int vertex_indices
end_header
0.0200015 1.34817 0.815349 
-0.00624596 1.2501 -0.750954 
0.00135342 -1.29466 0.79896 
-0.0100926 -1.22294 -0.738914 
1.25158 0.744164 0.0963693 
1.32515 -0.843213 0.0124919 
-1.20138 0.864255 -0.026165 
-1.25728 -0.78765 -0.00151346 
0.867251 -0.0105712 1.25081 
-0.751423 -0.00214267 1.28746 
0.840053 0.0445279 -1.21897 
-0.737057 0.0116129 -1.27152 
0.0119284 1.4863 -0.0914815 
0.745623 1.2164 0.555674 
0.664714 1.21868 -0.546402 
-0.765586 1.13726 -0.470426 
-0.726425 1.13459 0.455029 
-0.0292587 -1.48297 0.0697038 
0.692559 -1.1951 -0.534985 
0.797989 -1.28852 0.467177 
-0.717196 -1.26374 0.485036 
-0.737443 -1.28944 -0.507656 
1.43976 0.0132605 0.0194211 
1.1924 -0.481311 -0.754374 
1.25788 0.387123 -0.722558 
1.20167 0.398207 0.778428 
1.16809 -0.531938 0.726169 
-1.47667 0.0329204 -0.0840618 
-1.25108 -0.410792 0.761616 
-1.19195 0.486993 0.713291 
-1.16163 0.493129 -0.810247 
-1.16678 -0.49862 -0.808914 
0.0292766 -0.0180795 1.42768 
-0.441497 -0.815878 1.15008 
0.507849 -0.798196 1.15094 
0.508622 0.663277 1.21621 
-0.467254 0.748443 1.22505 
-0.000890643 -0.00489569 -1.5328 
-0.471224 0.734216 -1.27086 
0.494113 0.729121 -1.17013 
0.430734 -0.745652 -1.27112 
-0.47931 -0.776168 -1.17563 
0.346269 1.40303 0.236844 
0.745498 1.30111 -0.0460542 
0.418351 1.41879 -0.207349 
-0.355579 1.38664 -0.267401 
-0.877786 1.25897 0.00139986 
-0.34137 1.38201 0.213525 
0.387749 -1.45218 -0.26297 
0.801972 -1.24432 -0.0668274 
0.477736 -1.45439 0.311804 
-0.44571 -1.4435 0.155044 
-0.724851 -1.26367 0.0183863 
-0.414653 -1.43071 -0.27742 
1.49077 -0.250429 -0.358566 
1.24591 0.0586472 -0.819483 
1.39947 0.239817 -0.415526 
1.47813 0.319413 0.405756 
1.32402 0.0958435 0.801125 
1.42868 -0.265063 0.411815 
-1.46464 -0.258879 0.410681 
-1.27259 0.0106527 0.814729 
-1.48518 0.187496 0.459406 
-1.38954 0.244396 -0.359983 
-1.29932 0.0915583 -0.838275 
-1.38753 -0.208867 -0.411998 
-0.208857 -0.463839 1.43168 
-0.0130637 -0.729339 1.33012 
0.268752 -0.417585 1.44599 
0.150689 0.39978 1.45128 
0.0551073 0.72935 1.36274 
-0.302792 0.311768 1.39341 
-0.199405 0.33043 -1.38536 
-0.0211988 0.788446 -1.20738 
0.179552 0.397467 -1.39702 
0.207128 -0.378749 -1.49279 
-0.0275938 -0.764883 -1.28114 
-0.292857 -0.410317 -1.39915 
0.859992 0.620363 0.959177 
1.05667 0.901643 0.647615 
0.660401 0.976767 0.858727 
-1.0537 0.84431 0.609761 
-0.909604 0.567652 0.96686 
-0.651362 1.018 0.842771 
1.06084 0.933851 -0.596474 
0.8092 0.62693 -1.10581 
0.629894 1.12423 -0.904824 
-0.921598 0.654091 -0.994199 
-1.01811 0.798841 -0.69478 
-0.566325 1.05109 -0.945172 
0.98298 -0.971055 0.649566 
0.940017 -0.61819 0.979832 
0.694769 -1.06708 0.889474 
-0.863654 -0.555567 1.05247 
-1.07984 -0.901296 0.579752 
-0.670696 -0.993791 0.889638 
0.906034 -0.580917 -1.06298 
1.06017 -0.837858 -0.625907 
0.626702 -1.05154 -0.87518 
-1.02311 -0.855937 -0.74328 
-0.909328 -0.634881 -1.09636 
-0.680729 -0.997509 -0.952626 
0.0353923 1.40387 -0.488975 
0.459696 1.24632 -0.674156 
-0.0405503 1.37434 0.393628 
0.368306 1.32332 0.595803 
1.06617 1.12101 0.269643 
1.0088 1.0183 -0.141734 
-0.344767 1.3376 0.70411 
-0.415523 1.37345 -0.598485 
-1.05345 1.06579 -0.158809 
-0.986935 0.945801 0.227242 
0.0218509 -1.47571 0.487768 
0.409868 -1.23028 0.70769 
0.0233761 -1.44641 -0.448275 
0.423611 -1.24178 -0.582633 
1.05849 -1.00202 -0.22298 
1.06052 -1.01961 0.209849 
-0.413778 -1.30513 -0.611649 
-0.333832 -1.20022 0.638869 
-1.07531 -1.07787 0.280762 
-1.01985 -1.03841 -0.269305 
1.38518 0.407344 -0.0345126 
1.34081 0.694976 -0.387302 
1.41598 -0.472972 -0.0276347 
1.30596 -0.653463 -0.442506 
1.04357 -0.26482 -1.04042 
0.98427 0.251169 -1.04603 
1.33711 -0.637867 0.412414 
1.2457 0.693135 0.375601 
1.00707 0.287666 0.974966 
1.02023 -0.238236 1.0039 
-1.46505 0.485463 -0.025059 
-1.27341 0.642613 0.382253 
-1.44644 -0.36779 -0.0439887 
-1.2985 -0.674022 0.316549 
-1.07117 -0.234554 1.08649 
-1.08518 0.268165 1.01947 
-1.30482 -0.711086 -0.33322 
-1.3089 0.672869 -0.368171 
-1.04315 0.202702 -1.11526 
-0.990654 -0.16901 -1.03531 
0.384074 0.0231119 1.40564 
0.57328 -0.372795 1.27518 
-0.364447 0.0401777 1.49287 
-0.676037 -0.327491 1.29411 
-0.208833 -1.04789 1.07382 
0.175858 -1.06574 0.97046 
-0.672255 0.443611 1.29413 
0.608775 0.351452 1.2895 
0.297797 0.985538 1.0246 
-0.27293 1.06222 1.06986 
0.422332 0.0605859 -1.41728 
0.652664 0.399539 -1.32859 
-0.349635 0.028486 -1.41064 
-0.671202 0.366451 -1.27664 
-0.234533 1.03512 -1.04481 
0.253813 1.10064 -1.0308 
-0.681495 -0.440953 -1.30762 
0.697552 -0.405756 -1.37267 
0.205893 -1.03879 -1.05628 
-0.31871 -1.04412 -1.02044 
0.681412 1.36418 0.177626 
0.629787 1.28876 -0.136897 
0.368733 1.45201 0.0417426 
-0.571352 1.382 -0.0784608 
-0.580664 1.36173 0.177223 
-0.358323 1.47759 -0.0292936 
0.519972 -1.34167 -0.12664 
0.583613 -1.32162 0.181666 
0.435734 -1.4063 -0.00479736 
-0.552217 -1.38109 0.100967 
-0.558663 -1.42969 -0.124623 
-0.381973 -1.39837 -0.0551808 
1.40036 -0.133607 -0.675038 
1.41544 0.168091 -0.585262 
1.40618 0.0366838 -0.366536 
1.35694 0.0708616 0.58703 
1.30097 -0.178295 0.588171 
1.40081 0.0599859 0.409558 
-1.32961 -0.157965 0.67552 
-1.465 0.162868 0.533308 
-1.43324 0.0534613 0.350549 
-1.3314 0.117326 -0.523792 
-1.30932 -0.125423 -0.611168 
-1.48794 0.0173576 -0.393428 
-0.124809 -0.648325 1.28174 
0.128564 -0.634191 1.35971 
0.0699526 -0.372293 1.35455 
0.0516067 0.555073 1.46881 
-0.158744 0.672193 1.30374 
0.0141815 0.299613 1.39277 
-0.148737 0.642559 -1.34236 
0.12643 0.55005 -1.37519 
0.00130907 0.383732 -1.48012 
0.139706 -0.630759 -1.41311 
-0.127755 -0.658752 -1.33143 
0.0385937 -0.376616 -1.46919 
1.02537 0.785753 0.823621 
0.783976 0.990927 0.729633 
0.676405 0.858858 0.924966 
-0.998665 0.82339 0.77874 
-0.82521 0.847787 1.02263 
-0.901085 0.896963 0.800133 
0.936117 0.725138 -0.858856 
0.779244 0.89493 -0.936435 
0.838599 0.936893 -0.822642 
-1.0702 0.852936 -0.8493 
-0.839526 0.97765 -0.783961 
-0.759299 0.818428 -1.03995 
1.01746 -0.865005 0.919363 
0.746082 -0.839529 0.965583 
0.885352 -0.940908 0.793853 
-1.00873 -0.769139 0.92786 
-0.828503 -1.02936 0.883871 
-0.791329 -0.923364 1.00163 
0.904778 -0.724236 -0.87426 
0.805968 -0.893779 -0.792322 
0.857324 -0.89403 -0.957673 
-1.0271 -0.833616 -0.88881 
-0.766787 -0.731755 -0.976645 
-0.900716 -0.90589 -0.796659 
0.167239 1.42195 -0.301144 
0.361297 1.33453 -0.395263 
0.217466 1.44175 -0.46296 
0.254019 1.44716 0.45749 
0.457756 1.34331 0.495116 
0.206274 1.40479 0.318899 
0.888517 1.08217 0.19338 
1.01061 1.03959 -0.0185558 
0.962205 1.18548 -0.102895 
-0.251374 1.48768 0.386301 
-0.344313 1.40718 0.507038 
-0.247232 1.41111 0.525987 
-0.267861 1.45777 -0.570658 
-0.314865 1.37162 -0.451172 
-0.275037 1.37788 -0.387187 
-0.93631 1.13235 -0.0929346 
-1.05748 1.00123 0.0178976 
-0.979842 1.19145 0.151507 
0.157819 -1.42327 0.244551 
0.450825 -1.37356 0.534948 
0.177717 -1.36051 0.522622 
0.259536 -1.27967 -0.55408 
0.316229 -1.36463 -0.527913 
0.163233 -1.43584 -0.278359 
0.921787 -1.25908 -0.0643534 
1.13193 -1.01849 -0.00726635 
0.893554 -1.15166 0.0346472 
-0.191427 -1.50709 -0.422765 
-0.435822 -1.34265 -0.387564 
-0.245552 -1.43063 -0.602806 
-0.239747 -1.42374 0.57508 
-0.322516 -1.37626 0.519161 
-0.115649 -1.50471 0.380521 
-0.896175 -1.13079 0.055213 
-1.00759 -1.10067 -0.0246775 
-0.94426 -1.17827 -0.137187 
1.45509 0.415994 -0.169351 
1.42339 0.414876 -0.293202 
1.47349 0.537887 -0.19344 
1.40722 -0.558199 -0.210948 
1.35634 -0.488339 -0.420194 
1.39204 -0.42361 -0.198481 
1.15336 -0.0543538 -0.907515 
0.957169 -0.0290483 -1.08181 
1.1372 0.0214044 -0.914307 
1.41848 -0.313793 0.233942 
1.45837 -0.456673 0.386103 
1.36971 -0.519768 0.12378 
1.34204 0.511357 0.254916 
1.30732 0.369411 0.355446 
1.49967 0.30692 0.199314 
1.16965 0.1715 0.967642 
1.13167 0.00617382 1.04097 
1.19321 -0.0821384 0.902029 
-1.46825 0.36332 0.201143 
-1.35031 0.531179 0.387792 
-1.35431 0.570051 0.211036 
-1.39101 -0.598634 0.25528 
-1.32202 -0.480339 0.35068 
-1.41707 -0.295075 0.14852 
-1.20513 -0.0631942 0.987025 
-0.958468 -0.0727262 1.04279 
-1.16772 0.0996268 0.939066 
-1.44629 -0.252108 -0.2815 
-1.32214 -0.469737 -0.314699 
-1.40953 -0.557802 -0.16736 
-1.3912 0.522358 -0.211905 
-1.39222 0.459026 -0.394583 
-1.4869 0.259064 -0.252767 
-1.17581 0.213715 -0.975506 
-0.979939 -0.0734148 -1.08022 
-1.16981 -0.125904 -0.989717 
0.333206 -0.227466 1.34148 
0.490294 -0.343847 1.371 
0.624029 -0.170234 1.33857 
-0.499824 -0.16664 1.34477 
-0.514837 -0.39669 1.44829 
-0.276956 -0.294863 1.50399 
-0.0936202 -0.986092 1.07634 
0.00118282 -1.10149 1.02572 
0.104418 -0.917173 1.09493 
-0.334099 0.239542 1.44727 
-0.437912 0.466176 1.37044 
-0.500885 0.175349 1.35755 
0.54376 0.235366 1.41147 
0.437083 0.340934 1.45689 
0.40428 0.211642 1.40095 
0.13915 0.969364 1.15659 
-0.00542293 1.05676 1.1155 
-0.0905153 0.948054 1.17021 
0.359403 0.17292 -1.46316 
0.482987 0.443186 -1.42484 
0.488865 0.181267 -1.39355 
-0.563082 0.191057 -1.44236 
-0.429281 0.422784 -1.36571 
-0.359811 0.237711 -1.46945 
-0.199419 0.912394 -1.20438 
0.00425168 1.03973 -1.12669 
0.138916 0.87107 -1.12221 
-0.278499 -0.200611 -1.41045 
-0.47756 -0.49891 -1.38818 
-0.549922 -0.13858 -1.43046 
0.551541 -0.213726 -1.47335 
0.432323 -0.307515 -1.33708 
0.385305 -0.165226 -1.51624 
0.158827 -0.9527 -1.06784 
-0.00942028 -1.03638 -1.10045 
-0.0346228 -0.868893 -1.16634 
0.381512 1.10547 0.942463 
0.582092 1.14826 0.821359 
0.344274 1.26698 0.827936 
0.894479 0.358293 1.19226 
0.938051 0.470294 1.06718 
0.680901 0.499284 1.14691 
1.24977 0.836035 0.551599 
1.11966 0.825252 0.302894 
1.05995 0.956742 0.380657 
-0.585508 1.1173 0.74563 
-0.479652 1.06369 0.863974 
-0.30658 1.13146 0.85341 
-1.10217 0.9547 0.367404 
-1.14399 0.779014 0.475266 
-1.04565 1.07348 0.453 
-0.922916 0.375828 1.06918 
-0.81027 0.299278 1.23987 
-0.721875 0.560252 1.16779 
0.581565 1.19602 -0.665362 
0.416324 1.13861 -1.05077 
0.39389 1.21181 -0.795716 
1.28678 0.865999 -0.342551 
1.24284 0.79285 -0.575016 
1.09175 0.994305 -0.468293 
0.992108 0.397754 -1.10599 
0.860191 0.294814 -1.17908 
0.766544 0.567786 -1.21221 
-0.478 1.02374 -0.94046 
-0.587287 1.18112 -0.853279 
-0.356025 1.1939 -0.877492 
-0.842425 0.268223 -1.16009 
-0.922174 0.359909 -0.988782 
-0.721586 0.529469 -1.1185 
-1.1517 0.796036 -0.569954 
-1.11253 0.926389 -0.285921 
-1.00287 0.96669 -0.408444 
0.449121 -1.21391 0.831632 
0.467456 -1.04894 0.972171 
0.243049 -1.12192 0.890539 
1.16398 -0.903563 0.331452 
1.1029 -0.833084 0.506505 
1.03675 -0.903822 0.424438 
0.992416 -0.454706 1.01746 
0.908187 -0.333425 1.09758 
0.801435 -0.483344 1.17996 
-0.409809 -1.04424 0.944802 
-0.580061 -1.15881 0.839723 
-0.349586 -1.27974 0.849688 
-0.859207 -0.356201 1.22218 
-0.913117 -0.428409 1.01331 
-0.834856 -0.445315 1.20671 
-1.17132 -0.847573 0.487469 
-1.17802 -0.935639 0.250406 
-1.05184 -0.971901 0.49158 
0.484824 -1.05366 -0.964913 
0.538159 -1.11451 -0.785422 
0.28548 -1.21581 -0.878416 
0.757771 -0.349749 -1.17069 
0.942076 -0.449882 -1.09852 
0.701087 -0.493773 -1.17797 
1.19252 -0.78273 -0.578696 
1.21118 -0.88824 -0.375137 
1.07058 -0.964856 -0.447779 
-0.544573 -1.19396 -0.805407 
-0.448446 -1.0581 -0.975873 
-0.344437 -1.20135 -0.827633 
-1.25178 -0.876637 -0.290455 
-1.12894 -0.762456 -0.597619 
-0.962274 -0.961765 -0.451018 
-1.00223 -0.377158 -1.00835 
-0.813532 -0.365935 -1.17907 
-0.713049 -0.516753 -1.16997 
0.127884 1.47446 0.108162 
0.201365 1.47578 -0.0800943 
0.472561 1.29965 0.423319 
0.798004 1.3291 0.314251 
0.800579 1.29295 -0.252066 
0.552798 1.38877 -0.390373 
-0.227226 1.54772 -0.119699 
-0.207568 1.48994 0.0632849 
-0.568797 1.36159 -0.333903 
-0.835761 1.21589 -0.234733 
-0.753302 1.27476 0.254164 
-0.542228 1.3261 0.345108 
0.202675 -1.46808 -0.146461 
0.137387 -1.52621 0.142426 
0.62333 -1.33283 -0.436858 
0.778852 -1.20582 -0.33849 
0.823749 -1.31069 0.274261 
0.601137 -1.42156 0.328778 
-0.21116 -1.42551 0.196463 
-0.213717 -1.45571 -0.171892 
-0.62014 -1.36236 0.297313 
-0.773566 -1.27573 0.190203 
-0.759805 -1.246 -0.238975 
-0.609964 -1.25387 -0.329766 
1.49658 -0.127263 -0.194348 
1.39107 0.0927598 -0.27049 
1.2728 -0.421012 -0.569996 
1.26283 -0.249122 -0.777403 
1.20693 0.181959 -0.798635 
1.27902 0.368466 -0.599879 
1.5061 0.119624 0.283751 
1.52265 -0.148451 0.191032 
1.25593 0.37868 0.558308 
1.25261 0.197965 0.709967 
1.30753 -0.282959 0.783321 
1.25845 -0.366193 0.57978 
-1.49989 -0.117996 0.214363 
-1.46394 0.15797 0.226561 
-1.34409 -0.350077 0.526873 
-1.26093 -0.310873 0.867523 
-1.25486 0.156333 0.733192 
-1.27362 0.451413 0.63909 
-1.55781 0.00559114 -0.249725 
-1.4482 -0.118192 -0.259743 
-1.39877 0.437126 -0.557132 
-1.1875 0.262368 -0.791585 
-1.26425 -0.198621 -0.759549 
-1.29906 -0.331053 -0.655928 
-0.085636 -0.153562 1.43949 
0.135353 -0.180894 1.44052 
-0.28406 -0.528493 1.34777 
-0.179725 -0.74247 1.23434 
0.218795 -0.792085 1.24716 
0.31871 -0.585811 1.35525 
0.101175 0.261416 1.50212 
-0.0967337 0.203596 1.50317 
0.345278 0.605957 1.3675 
0.267923 0.816337 1.29156 
-0.251359 0.723472 1.20702 
-0.339508 0.509186 1.43256 
-0.119195 0.126213 -1.46528 
0.11213 0.258393 -1.55946 
-0.368508 0.544957 -1.35038 
-0.231584 0.678589 -1.15008 
0.283121 0.786992 -1.21886 
0.29648 0.587346 -1.26445 
0.160718 -0.177609 -1.51338 
-0.0816792 -0.171007 -1.44927 
0.45766 -0.594057 -1.38633 
0.254371 -0.748486 -1.24958 
-0.249476 -0.770986 -1.19239 
-0.329925 -0.609282 -1.34043 
0.708402 0.68882 1.22924 
0.597834 0.968747 1.02604 
1.13381 0.541995 0.9024 
1.12087 0.681078 0.737527 
0.88103 1.12477 0.537248 
0.780166 1.11211 0.662543 
-0.81913 1.00492 0.551072 
-0.696006 1.12755 0.678169 
-1.19684 0.683481 0.68106 
-1.07939 0.561538 0.877334 
-0.676965 0.656722 1.12483 
-0.59185 0.92321 0.98449 
0.860067 1.02418 -0.518827 
0.687277 1.11105 -0.615431 
1.12975 0.71117 -0.703565 
1.05981 0.534735 -0.901295 
0.635015 0.736211 -1.06109 
0.635695 0.969125 -1.1248 
-0.682984 0.736254 -1.12129 
-0.554537 0.943808 -1.0678 
-1.10916 0.576531 -0.928643 
-1.06689 0.692335 -0.734747 
-0.83115 1.0565 -0.548954 
-0.670002 1.19462 -0.724835 
0.869858 -1.08735 0.570625 
0.696 -1.08719 0.748356 
1.10455 -0.650578 0.726326 
1.07745 -0.579733 0.862214 
0.764226 -0.700086 1.10381 
0.525885 -0.819353 1.04245 
-0.693192 -0.745501 1.16427 
-0.518967 -0.797836 1.12605 
-1.02744 -0.459359 0.832881 
-1.12168 -0.680672 0.76825 
-0.904211 -1.06607 0.519286 
-0.718271 -1.17563 0.665691 
0.759399 -0.747057 -1.09512 
0.529125 -0.852628 -1.01432 
1.12272 -0.555351 -0.880023 
1.08861 -0.683782 -0.72811 
0.966342 -1.10233 -0.548689 
0.663512 -1.11326 -0.644892 
-0.849327 -1.03046 -0.553856 
-0.74576 -1.16873 -0.703575 
-1.08775 -0.741441 -0.757313 
-1.07651 -0.503112 -0.865052 
-0.685459 -0.646976 -1.17078 
-0.546982 -0.952334 -1.07159 
0.0836476 1.30729 -0.58702 
0.172084 1.26107 -0.738114 
-0.0235116 1.48676 -0.233383 
0.691435 1.35843 -0.592029 
0.0215159 1.50055 0.234332 
-0.00138755 1.31767 0.573941 
0.146155 1.31833 0.661783 
0.496775 1.24429 0.578857 
0.842124 1.13859 -0.414253 
0.938833 1.17591 0.377514 
1.06284 0.914446 0.155488 
1.21145 0.863061 -0.150757 
-0.249824 1.24015 0.725307 
-0.681568 1.19404 0.576509 
-0.201828 1.22041 -0.724487 
-0.526375 1.3181 -0.588604 
-0.918953 1.16624 0.37719 
-0.957164 1.11425 -0.278394 
-1.23306 0.908878 -0.174367 
-1.16109 0.910805 0.184073 
0.0632244 -1.36756 0.581206 
0.163292 -1.23003 0.773026 
-0.0359677 -1.49799 0.273301 
0.668688 -1.35768 0.583777 
-0.0233723 -1.55583 -0.236016 
0.00547272 -1.42036 -0.608561 
0.202896 -1.32723 -0.832531 
0.576407 -1.31596 -0.614897 
0.961791 -1.11478 0.315375 
0.8318 -1.07344 -0.381873 
1.08251 -0.926291 -0.116193 
1.13595 -0.986469 0.0638353 
-0.216927 -1.26577 -0.77012 
-0.606429 -1.27157 -0.567233 
-0.233258 -1.24922 0.678489 
-0.667636 -1.18555 0.597185 
-0.928728 -1.18216 -0.32417 
-0.904005 -1.20784 0.414247 
-1.1952 -0.915101 0.0728545 
-1.26213 -0.96687 -0.132534 
1.28663 0.598969 0.0635218 
1.34749 0.707447 -0.169616 
1.50463 0.194255 0.0321352 
1.21471 0.59613 -0.522321 
1.4565 -0.183145 -0.0293161 
1.37248 -0.596212 -0.0262517 
1.30527 -0.709663 -0.189976 
1.27853 -0.512656 -0.611787 
1.18259 0.359426 -0.911573 
1.16049 -0.411524 -0.877726 
0.857814 -0.132868 -1.12265 
0.948004 0.133815 -1.16853 
1.32246 -0.722178 0.164691 
1.2458 -0.582561 0.603552 
1.30376 0.754751 0.222046 
1.26959 0.563895 0.478895 
1.08878 -0.373086 0.961305 
1.2262 0.377508 0.880615 
0.844722 0.161454 1.17661 
0.973978 -0.136551 1.14739 
-1.36679 0.601715 0.0376324 
-1.26517 0.721218 0.116027 
-1.47287 0.253209 -0.049619 
-1.25852 0.511523 0.583053 
-1.47685 -0.174341 0.00905118 
-1.36518 -0.645978 0.0370566 
-1.35987 -0.739553 0.189732 
-1.25061 -0.564484 0.616899 
-1.12567 0.405554 0.964871 
-1.15149 -0.281859 0.976619 
-0.938692 -0.172678 1.10824 
-0.927729 0.129471 1.12946 
-1.35576 -0.732704 -0.170156 
-1.2966 -0.534586 -0.626479 
-1.24325 0.736772 -0.188602 
-1.33326 0.502797 -0.530913 
-1.19498 -0.400608 -0.955875 
-1.17538 0.299245 -0.880547 
-0.892718 0.15481 -1.22674 
-0.968676 -0.179218 -1.23022 
0.652869 0.00443617 1.34431 
0.733639 -0.169962 1.30365 
0.298193 0.0457229 1.4592 
0.549875 -0.587102 1.29406 
-0.140078 0.0158005 1.49728 
-0.660577 -0.0249205 1.40169 
-0.71103 -0.148131 1.3082 
-0.515308 -0.537485 1.29755 
0.355317 -0.868225 1.12558 
-0.276327 -0.88677 1.19859 
-0.123456 -1.13113 0.911255 
0.118217 -1.15082 0.911425 
-0.646566 0.182417 1.30441 
-0.58617 0.575023 1.28787 
0.704567 0.236585 1.2046 
0.629342 0.58633 1.27875 
-0.336981 0.91011 1.17286 
0.358418 0.984029 1.13354 
0.129429 1.11865 0.934372 
-0.0995553 1.17129 0.93117 
0.610463 0.0203618 -1.39748 
0.693214 0.291004 -1.2707 
0.238696 0.0437079 -1.50001 
0.62801 0.568847 -1.25395 
-0.146142 0.0485845 -1.46063 
-0.663704 0.0381144 -1.30995 
-0.745781 0.226895 -1.31217 
-0.573462 0.477713 -1.23351 
0.313621 0.846997 -1.13607 
-0.360061 0.895741 -1.2178 
-0.091685 1.14003 -0.905671 
0.0999933 1.18383 -0.94206 
-0.748267 -0.234218 -1.24562 
-0.571845 -0.574054 -1.24733 
0.702626 -0.161316 -1.30753 
0.486302 -0.571938 -1.26455 
-0.342603 -0.848621 -1.13324 
0.431142 -0.832856 -1.10035 
0.152243 -1.16706 -0.871826 
-0.0624367 -1.14482 -0.859654 
3 162 163 164 
3 165 166 167 
3 168 169 170 
3 171 172 173 
3 174 175 176 
3 177 178 179 
3 180 181 182 
3 183 184 185 
3 186 187 188 
3 189 190 191 
3 192 193 194 
3 195 196 197 
3 198 199 200 
3 201 202 203 
3 204 205 206 
3 207 208 209 
3 210 211 212 
3 213 214 215 
3 216 217 218 
3 219 220 221 
3 222 223 224 
3 225 226 227 
3 228 229 230 
3 231 232 233 
3 234 235 236 
3 237 238 239 
3 240 241 242 
3 243 244 245 
3 246 247 248 
3 249 250 251 
3 252 253 254 
3 255 256 257 
3 258 259 260 
3 261 262 263 
3 264 265 266 
3 267 268 269 
3 270 271 272 
3 273 274 275 
3 276 277 278 
3 279 280 281 
3 282 283 284 
3 285 286 287 
3 288 289 290 
3 291 292 293 
3 294 295 296 
3 297 298 299 
3 300 301 302 
3 303 304 305 
3 306 307 308 
3 309 310 311 
3 312 313 314 
3 315 316 317 
3 318 319 320 
3 321 322 323 
3 324 325 326 
3 327 328 329 
3 330 331 332 
3 333 334 335 
3 336 337 338 
3 339 340 341 
3 342 343 344 
3 345 346 347 
3 348 349 350 
3 351 352 353 
3 354 355 356 
3 357 358 359 
3 360 361 362 
3 363 364 365 
3 366 367 368 
3 369 370 371 
3 372 373 374 
3 375 376 377 
3 378 379 380 
3 381 382 383 
3 384 385 386 
3 387 388 389 
3 390 391 392 
3 393 394 395 
3 396 397 398 
3 399 400 401 
3 402 164 403 
3 404 405 162 
3 163 406 407 
3 408 167 409 
3 410 411 165 
3 166 412 413 
3 414 170 415 
3 416 417 168 
3 169 418 419 
3 420 173 421 
3 422 423 171 
3 172 424 425 
3 426 176 427 
3 428 429 174 
3 175 430 431 
3 432 179 433 
3 434 435 177 
3 178 436 437 
3 438 182 439 
3 440 441 180 
3 181 442 443 
3 444 185 445 
3 446 447 183 
3 184 448 449 
3 450 188 451 
3 452 453 186 
3 187 454 455 
3 456 191 457 
3 458 459 189 
3 190 460 461 
3 462 194 463 
3 464 465 192 
3 193 466 467 
3 468 197 469 
3 470 471 195 
3 196 472 473 
3 474 200 475 
3 476 477 198 
3 199 478 479 
3 480 203 481 
3 482 483 201 
3 202 484 485 
3 486 206 487 
3 488 489 204 
3 205 490 491 
3 492 209 493 
3 494 495 207 
3 208 496 497 
3 498 212 499 
3 500 501 210 
3 211 502 503 
3 504 215 505 
3 506 507 213 
3 214 508 509 
3 510 218 511 
3 512 513 216 
3 217 514 515 
3 516 221 517 
3 518 519 219 
3 220 520 521 
3 522 224 523 
3 524 403 222 
3 223 407 525 
3 526 227 402 
3 527 528 225 
3 226 529 404 
3 406 230 530 
3 405 531 228 
3 229 532 533 
3 527 233 534 
3 526 409 231 
3 232 413 535 
3 524 236 408 
3 522 536 234 
3 235 537 410 
3 412 239 538 
3 411 539 237 
3 238 540 541 
3 542 242 543 
3 544 415 240 
3 241 419 545 
3 546 245 414 
3 547 548 243 
3 244 549 416 
3 418 248 550 
3 417 551 246 
3 247 552 553 
3 547 251 554 
3 546 421 249 
3 250 425 555 
3 544 254 420 
3 542 556 252 
3 253 557 422 
3 424 257 558 
3 423 559 255 
3 256 560 561 
3 562 260 563 
3 564 427 258 
3 259 431 565 
3 566 263 426 
3 567 568 261 
3 262 569 428 
3 430 266 570 
3 429 571 264 
3 265 572 573 
3 567 269 574 
3 566 433 267 
3 268 437 575 
3 564 272 432 
3 562 576 270 
3 271 577 434 
3 436 275 578 
3 435 579 273 
3 274 580 581 
3 582 278 583 
3 584 439 276 
3 277 443 585 
3 586 281 438 
3 587 588 279 
3 280 589 440 
3 442 284 590 
3 441 591 282 
3 283 592 593 
3 587 287 594 
3 586 445 285 
3 286 449 595 
3 584 290 444 
3 582 596 288 
3 289 597 446 
3 448 293 598 
3 447 599 291 
3 292 600 601 
3 602 296 603 
3 604 451 294 
3 295 455 605 
3 606 299 450 
3 607 608 297 
3 298 609 452 
3 454 302 610 
3 453 611 300 
3 301 612 613 
3 607 305 614 
3 606 457 303 
3 304 461 615 
3 604 308 456 
3 602 616 306 
3 307 617 458 
3 460 311 618 
3 459 619 309 
3 310 620 621 
3 622 314 623 
3 624 463 312 
3 313 467 625 
3 626 317 462 
3 627 628 315 
3 316 629 464 
3 466 320 630 
3 465 631 318 
3 319 632 633 
3 627 323 634 
3 626 469 321 
3 322 473 635 
3 624 326 468 
3 622 636 324 
3 325 637 470 
3 472 329 638 
3 471 639 327 
3 328 640 641 
3 620 332 528 
3 619 475 330 
3 331 479 529 
3 617 335 474 
3 616 580 333 
3 334 579 476 
3 478 338 531 
3 477 577 336 
3 337 576 532 
3 534 341 621 
3 535 481 339 
3 340 485 618 
3 538 344 480 
3 541 583 342 
3 343 585 482 
3 484 347 615 
3 483 590 345 
3 346 593 614 
3 523 350 633 
3 525 487 348 
3 349 491 630 
3 530 353 486 
3 533 563 351 
3 352 565 488 
3 490 356 625 
3 489 570 354 
3 355 573 623 
3 632 359 536 
3 631 493 357 
3 358 497 537 
3 629 362 492 
3 628 600 360 
3 361 599 494 
3 496 365 539 
3 495 597 363 
3 364 596 540 
3 543 368 613 
3 545 499 366 
3 367 503 610 
3 550 371 498 
3 553 574 369 
3 370 575 500 
3 502 374 605 
3 501 578 372 
3 373 581 603 
3 612 377 556 
3 611 505 375 
3 376 509 557 
3 609 380 504 
3 608 592 378 
3 379 591 506 
3 508 383 559 
3 507 589 381 
3 382 588 560 
3 640 386 548 
3 639 511 384 
3 385 515 549 
3 637 389 510 
3 636 572 387 
3 388 571 512 
3 514 392 551 
3 513 569 390 
3 391 568 552 
3 554 395 641 
3 555 517 393 
3 394 521 638 
3 558 398 516 
3 561 594 396 
3 397 595 518 
3 520 401 635 
3 519 598 399 
3 400 601 634 
3 42 162 164 
3 162 43 163 
3 164 163 44 
3 45 165 167 
3 165 46 166 
3 167 166 47 
3 48 168 170 
3 168 49 169 
3 170 169 50 
3 51 171 173 
3 171 52 172 
3 173 172 53 
3 54 174 176 
3 174 55 175 
3 176 175 56 
3 57 177 179 
3 177 58 178 
3 179 178 59 
3 60 180 182 
3 180 61 181 
3 182 181 62 
3 63 183 185 
3 183 64 184 
3 185 184 65 
3 66 186 188 
3 186 67 187 
3 188 187 68 
3 69 189 191 
3 189 70 190 
3 191 190 71 
3 72 192 194 
3 192 73 193 
3 194 193 74 
3 75 195 197 
3 195 76 196 
3 197 196 77 
3 78 198 200 
3 198 79 199 
3 200 199 80 
3 81 201 203 
3 201 82 202 
3 203 202 83 
3 84 204 206 
3 204 85 205 
3 206 205 86 
3 87 207 209 
3 207 88 208 
3 209 208 89 
3 90 210 212 
3 210 91 211 
3 212 211 92 
3 93 213 215 
3 213 94 214 
3 215 214 95 
3 96 216 218 
3 216 97 217 
3 218 217 98 
3 99 219 221 
3 219 100 220 
3 221 220 101 
3 102 222 224 
3 222 44 223 
3 224 223 103 
3 104 225 227 
3 225 105 226 
3 227 226 42 
3 43 228 230 
3 228 106 229 
3 230 229 107 
3 104 231 233 
3 231 47 232 
3 233 232 108 
3 102 234 236 
3 234 109 235 
3 236 235 45 
3 46 237 239 
3 237 110 238 
3 239 238 111 
3 112 240 242 
3 240 50 241 
3 242 241 113 
3 114 243 245 
3 243 115 244 
3 245 244 48 
3 49 246 248 
3 246 116 247 
3 248 247 117 
3 114 249 251 
3 249 53 250 
3 251 250 118 
3 112 252 254 
3 252 119 253 
3 254 253 51 
3 52 255 257 
3 255 120 256 
3 257 256 121 
3 122 258 260 
3 258 56 259 
3 260 259 123 
3 124 261 263 
3 261 125 262 
3 263 262 54 
3 55 264 266 
3 264 126 265 
3 266 265 127 
3 124 267 269 
3 267 59 268 
3 269 268 128 
3 122 270 272 
3 270 129 271 
3 272 271 57 
3 58 273 275 
3 273 130 274 
3 275 274 131 
3 132 276 278 
3 276 62 277 
3 278 277 133 
3 134 279 281 
3 279 135 280 
3 281 280 60 
3 61 282 284 
3 282 136 283 
3 284 283 137 
3 134 285 287 
3 285 65 286 
3 287 286 138 
3 132 288 290 
3 288 139 289 
3 290 289 63 
3 64 291 293 
3 291 140 292 
3 293 292 141 
3 142 294 296 
3 294 68 295 
3 296 295 143 
3 144 297 299 
3 297 145 298 
3 299 298 66 
3 67 300 302 
3 300 146 301 
3 302 301 147 
3 144 303 305 
3 303 71 304 
3 305 304 148 
3 142 306 308 
3 306 149 307 
3 308 307 69 
3 70 309 311 
3 309 150 310 
3 311 310 151 
3 152 312 314 
3 312 74 313 
3 314 313 153 
3 154 315 317 
3 315 155 316 
3 317 316 72 
3 73 318 320 
3 318 156 319 
3 320 319 157 
3 154 321 323 
3 321 77 322 
3 323 322 158 
3 152 324 326 
3 324 159 325 
3 326 325 75 
3 76 327 329 
3 327 160 328 
3 329 328 161 
3 150 330 332 
3 330 80 331 
3 332 331 105 
3 149 333 335 
3 333 130 334 
3 335 334 78 
3 79 336 338 
3 336 129 337 
3 338 337 106 
3 108 339 341 
3 339 83 340 
3 341 340 151 
3 111 342 344 
3 342 133 343 
3 344 343 81 
3 82 345 347 
3 345 137 346 
3 347 346 148 
3 103 348 350 
3 348 86 349 
3 350 349 157 
3 107 351 353 
3 351 123 352 
3 353 352 84 
3 85 354 356 
3 354 127 355 
3 356 355 153 
3 156 357 359 
3 357 89 358 
3 359 358 109 
3 155 360 362 
3 360 140 361 
3 362 361 87 
3 88 363 365 
3 363 139 364 
3 365 364 110 
3 113 366 368 
3 366 92 367 
3 368 367 147 
3 117 369 371 
3 369 128 370 
3 371 370 90 
3 91 372 374 
3 372 131 373 
3 374 373 143 
3 146 375 377 
3 375 95 376 
3 377 376 119 
3 145 378 380 
3 378 136 379 
3 380 379 93 
3 94 381 383 
3 381 135 382 
3 383 382 120 
3 160 384 386 
3 384 98 385 
3 386 385 115 
3 159 387 389 
3 387 126 388 
3 389 388 96 
3 97 390 392 
3 390 125 391 
3 392 391 116 
3 118 393 395 
3 393 101 394 
3 395 394 161 
3 121 396 398 
3 396 138 397 
3 398 397 99 
3 100 399 401 
3 399 141 400 
3 401 400 158 
3 12 402 403 
3 402 42 164 
3 403 164 44 
3 42 404 162 
3 404 13 405 
3 162 405 43 
3 44 163 407 
3 163 43 406 
3 407 406 14 
3 12 408 409 
3 408 45 167 
3 409 167 47 
3 45 410 165 
3 410 15 411 
3 165 411 46 
3 47 166 413 
3 166 46 412 
3 413 412 16 
3 17 414 415 
3 414 48 170 
3 415 170 50 
3 48 416 168 
3 416 18 417 
3 168 417 49 
3 50 169 419 
3 169 49 418 
3 419 418 19 
3 17 420 421 
3 420 51 173 
3 421 173 53 
3 51 422 171 
3 422 20 423 
3 171 423 52 
3 53 172 425 
3 172 52 424 
3 425 424 21 
3 22 426 427 
3 426 54 176 
3 427 176 56 
3 54 428 174 
3 428 23 429 
3 174 429 55 
3 56 175 431 
3 175 55 430 
3 431 430 24 
3 22 432 433 
3 432 57 179 
3 433 179 59 
3 57 434 177 
3 434 25 435 
3 177 435 58 
3 59 178 437 
3 178 58 436 
3 437 436 26 
3 27 438 439 
3 438 60 182 
3 439 182 62 
3 60 440 180 
3 440 28 441 
3 180 441 61 
3 62 181 443 
3 181 61 442 
3 443 442 29 
3 27 444 445 
3 444 63 185 
3 445 185 65 
3 63 446 183 
3 446 30 447 
3 183 447 64 
3 65 184 449 
3 184 64 448 
3 449 448 31 
3 32 450 451 
3 450 66 188 
3 451 188 68 
3 66 452 186 
3 452 33 453 
3 186 453 67 
3 68 187 455 
3 187 67 454 
3 455 454 34 
3 32 456 457 
3 456 69 191 
3 457 191 71 
3 69 458 189 
3 458 35 459 
3 189 459 70 
3 71 190 461 
3 190 70 460 
3 461 460 36 
3 37 462 463 
3 462 72 194 
3 463 194 74 
3 72 464 192 
3 464 38 465 
3 192 465 73 
3 74 193 467 
3 193 73 466 
3 467 466 39 
3 37 468 469 
3 468 75 197 
3 469 197 77 
3 75 470 195 
3 470 40 471 
3 195 471 76 
3 77 196 473 
3 196 76 472 
3 473 472 41 
3 35 474 475 
3 474 78 200 
3 475 200 80 
3 78 476 198 
3 476 25 477 
3 198 477 79 
3 80 199 479 
3 199 79 478 
3 479 478 13 
3 16 480 481 
3 480 81 203 
3 481 203 83 
3 81 482 201 
3 482 29 483 
3 201 483 82 
3 83 202 485 
3 202 82 484 
3 485 484 36 
3 14 486 487 
3 486 84 206 
3 487 206 86 
3 84 488 204 
3 488 24 489 
3 204 489 85 
3 86 205 491 
3 205 85 490 
3 491 490 39 
3 38 492 493 
3 492 87 209 
3 493 209 89 
3 87 494 207 
3 494 30 495 
3 207 495 88 
3 89 208 497 
3 208 88 496 
3 497 496 15 
3 19 498 499 
3 498 90 212 
3 499 212 92 
3 90 500 210 
3 500 26 501 
3 210 501 91 
3 92 211 503 
3 211 91 502 
3 503 502 34 
3 33 504 505 
3 504 93 215 
3 505 215 95 
3 93 506 213 
3 506 28 507 
3 213 507 94 
3 95 214 509 
3 214 94 508 
3 509 508 20 
3 40 510 511 
3 510 96 218 
3 511 218 98 
3 96 512 216 
3 512 23 513 
3 216 513 97 
3 98 217 515 
3 217 97 514 
3 515 514 18 
3 21 516 517 
3 516 99 221 
3 517 221 101 
3 99 518 219 
3 518 31 519 
3 219 519 100 
3 101 220 521 
3 220 100 520 
3 521 520 41 
3 1 522 523 
3 522 102 224 
3 523 224 103 
3 102 524 222 
3 524 12 403 
3 222 403 44 
3 103 223 525 
3 223 44 407 
3 525 407 14 
3 12 526 402 
3 526 104 227 
3 402 227 42 
3 104 527 225 
3 527 0 528 
3 225 528 105 
3 42 226 404 
3 226 105 529 
3 404 529 13 
3 14 406 530 
3 406 43 230 
3 530 230 107 
3 43 405 228 
3 405 13 531 
3 228 531 106 
3 107 229 533 
3 229 106 532 
3 533 532 4 
3 0 527 534 
3 527 104 233 
3 534 233 108 
3 104 526 231 
3 526 12 409 
3 231 409 47 
3 108 232 535 
3 232 47 413 
3 535 413 16 
3 12 524 408 
3 524 102 236 
3 408 236 45 
3 102 522 234 
3 522 1 536 
3 234 536 109 
3 45 235 410 
3 235 109 537 
3 410 537 15 
3 16 412 538 
3 412 46 239 
3 538 239 111 
3 46 411 237 
3 411 15 539 
3 237 539 110 
3 111 238 541 
3 238 110 540 
3 541 540 6 
3 2 542 543 
3 542 112 242 
3 543 242 113 
3 112 544 240 
3 544 17 415 
3 240 415 50 
3 113 241 545 
3 241 50 419 
3 545 419 19 
3 17 546 414 
3 546 114 245 
3 414 245 48 
3 114 547 243 
3 547 3 548 
3 243 548 115 
3 48 244 416 
3 244 115 549 
3 416 549 18 
3 19 418 550 
3 418 49 248 
3 550 248 117 
3 49 417 246 
3 417 18 551 
3 246 551 116 
3 117 247 553 
3 247 116 552 
3 553 552 5 
3 3 547 554 
3 547 114 251 
3 554 251 118 
3 114 546 249 
3 546 17 421 
3 249 421 53 
3 118 250 555 
3 250 53 425 
3 555 425 21 
3 17 544 420 
3 544 112 254 
3 420 254 51 
3 112 542 252 
3 542 2 556 
3 252 556 119 
3 51 253 422 
3 253 119 557 
3 422 557 20 
3 21 424 558 
3 424 52 257 
3 558 257 121 
3 52 423 255 
3 423 20 559 
3 255 559 120 
3 121 256 561 
3 256 120 560 
3 561 560 7 
3 4 562 563 
3 562 122 260 
3 563 260 123 
3 122 564 258 
3 564 22 427 
3 258 427 56 
3 123 259 565 
3 259 56 431 
3 565 431 24 
3 22 566 426 
3 566 124 263 
3 426 263 54 
3 124 567 261 
3 567 5 568 
3 261 568 125 
3 54 262 428 
3 262 125 569 
3 428 569 23 
3 24 430 570 
3 430 55 266 
3 570 266 127 
3 55 429 264 
3 429 23 571 
3 264 571 126 
3 127 265 573 
3 265 126 572 
3 573 572 10 
3 5 567 574 
3 567 124 269 
3 574 269 128 
3 124 566 267 
3 566 22 433 
3 267 433 59 
3 128 268 575 
3 268 59 437 
3 575 437 26 
3 22 564 432 
3 564 122 272 
3 432 272 57 
3 122 562 270 
3 562 4 576 
3 270 576 129 
3 57 271 434 
3 271 129 577 
3 434 577 25 
3 26 436 578 
3 436 58 275 
3 578 275 131 
3 58 435 273 
3 435 25 579 
3 273 579 130 
3 131 274 581 
3 274 130 580 
3 581 580 8 
3 6 582 583 
3 582 132 278 
3 583 278 133 
3 132 584 276 
3 584 27 439 
3 276 439 62 
3 133 277 585 
3 277 62 443 
3 585 443 29 
3 27 586 438 
3 586 134 281 
3 438 281 60 
3 134 587 279 
3 587 7 588 
3 279 588 135 
3 60 280 440 
3 280 135 589 
3 440 589 28 
3 29 442 590 
3 442 61 284 
3 590 284 137 
3 61 441 282 
3 441 28 591 
3 282 591 136 
3 137 283 593 
3 283 136 592 
3 593 592 9 
3 7 587 594 
3 587 134 287 
3 594 287 138 
3 134 586 285 
3 586 27 445 
3 285 445 65 
3 138 286 595 
3 286 65 449 
3 595 449 31 
3 27 584 444 
3 584 132 290 
3 444 290 63 
3 132 582 288 
3 582 6 596 
3 288 596 139 
3 63 289 446 
3 289 139 597 
3 446 597 30 
3 31 448 598 
3 448 64 293 
3 598 293 141 
3 64 447 291 
3 447 30 599 
3 291 599 140 
3 141 292 601 
3 292 140 600 
3 601 600 11 
3 8 602 603 
3 602 142 296 
3 603 296 143 
3 142 604 294 
3 604 32 451 
3 294 451 68 
3 143 295 605 
3 295 68 455 
3 605 455 34 
3 32 606 450 
3 606 144 299 
3 450 299 66 
3 144 607 297 
3 607 9 608 
3 297 608 145 
3 66 298 452 
3 298 145 609 
3 452 609 33 
3 34 454 610 
3 454 67 302 
3 610 302 147 
3 67 453 300 
3 453 33 611 
3 300 611 146 
3 147 301 613 
3 301 146 612 
3 613 612 2 
3 9 607 614 
3 607 144 305 
3 614 305 148 
3 144 606 303 
3 606 32 457 
3 303 457 71 
3 148 304 615 
3 304 71 461 
3 615 461 36 
3 32 604 456 
3 604 142 308 
3 456 308 69 
3 142 602 306 
3 602 8 616 
3 306 616 149 
3 69 307 458 
3 307 149 617 
3 458 617 35 
3 36 460 618 
3 460 70 311 
3 618 311 151 
3 70 459 309 
3 459 35 619 
3 309 619 150 
3 151 310 621 
3 310 150 620 
3 621 620 0 
3 10 622 623 
3 622 152 314 
3 623 314 153 
3 152 624 312 
3 624 37 463 
3 312 463 74 
3 153 313 625 
3 313 74 467 
3 625 467 39 
3 37 626 462 
3 626 154 317 
3 462 317 72 
3 154 627 315 
3 627 11 628 
3 315 628 155 
3 72 316 464 
3 316 155 629 
3 464 629 38 
3 39 466 630 
3 466 73 320 
3 630 320 157 
3 73 465 318 
3 465 38 631 
3 318 631 156 
3 157 319 633 
3 319 156 632 
3 633 632 1 
3 11 627 634 
3 627 154 323 
3 634 323 158 
3 154 626 321 
3 626 37 469 
3 321 469 77 
3 158 322 635 
3 322 77 473 
3 635 473 41 
3 37 624 468 
3 624 152 326 
3 468 326 75 
3 152 622 324 
3 622 10 636 
3 324 636 159 
3 75 325 470 
3 325 159 637 
3 470 637 40 
3 41 472 638 
3 472 76 329 
3 638 329 161 
3 76 471 327 
3 471 40 639 
3 327 639 160 
3 161 328 641 
3 328 160 640 
3 641 640 3 
3 0 620 528 
3 620 150 332 
3 528 332 105 
3 150 619 330 
3 619 35 475 
3 330 475 80 
3 105 331 529 
3 331 80 479 
3 529 479 13 
3 35 617 474 
3 617 149 335 
3 474 335 78 
3 149 616 333 
3 616 8 580 
3 333 580 130 
3 78 334 476 
3 334 130 579 
3 476 579 25 
3 13 478 531 
3 478 79 338 
3 531 338 106 
3 79 477 336 
3 477 25 577 
3 336 577 129 
3 106 337 532 
3 337 129 576 
3 532 576 4 
3 0 534 621 
3 534 108 341 
3 621 341 151 
3 108 535 339 
3 535 16 481 
3 339 481 83 
3 151 340 618 
3 340 83 485 
3 618 485 36 
3 16 538 480 
3 538 111 344 
3 480 344 81 
3 111 541 342 
3 541 6 583 
3 342 583 133 
3 81 343 482 
3 343 133 585 
3 482 585 29 
3 36 484 615 
3 484 82 347 
3 615 347 148 
3 82 483 345 
3 483 29 590 
3 345 590 137 
3 148 346 614 
3 346 137 593 
3 614 593 9 
3 1 523 633 
3 523 103 350 
3 633 350 157 
3 103 525 348 
3 525 14 487 
3 348 487 86 
3 157 349 630 
3 349 86 491 
3 630 491 39 
3 14 530 486 
3 530 107 353 
3 486 353 84 
3 107 533 351 
3 533 4 563 
3 351 563 123 
3 84 352 488 
3 352 123 565 
3 488 565 24 
3 39 490 625 
3 490 85 356 
3 625 356 153 
3 85 489 354 
3 489 24 570 
3 354 570 127 
3 153 355 623 
3 355 127 573 
3 623 573 10 
3 1 632 536 
3 632 156 359 
3 536 359 109 
3 156 631 357 
3 631 38 493 
3 357 493 89 
3 109 358 537 
3 358 89 497 
3 537 497 15 
3 38 629 492 
3 629 155 362 
3 492 362 87 
3 155 628 360 
3 628 11 600 
3 360 600 140 
3 87 361 494 
3 361 140 599 
3 494 599 30 
3 15 496 539 
3 496 88 365 
3 539 365 110 
3 88 495 363 
3 495 30 597 
3 363 597 139 
3 110 364 540 
3 364 139 596 
3 540 596 6 
3 2 543 613 
3 543 113 368 
3 613 368 147 
3 113 545 366 
3 545 19 499 
3 366 499 92 
3 147 367 610 
3 367 92 503 
3 610 503 34 
3 19 550 498 
3 550 117 371 
3 498 371 90 
3 117 553 369 
3 553 5 574 
3 369 574 128 
3 90 370 500 
3 370 128 575 
3 500 575 26 
3 34 502 605 
3 502 91 374 
3 605 374 143 
3 91 501 372 
3 501 26 578 
3 372 578 131 
3 143 373 603 
3 373 131 581 
3 603 581 8 
3 2 612 556 
3 612 146 377 
3 556 377 119 
3 146 611 375 
3 611 33 505 
3 375 505 95 
3 119 376 557 
3 376 95 509 
3 557 509 20 
3 33 609 504 
3 609 145 380 
3 504 380 93 
3 145 608 378 
3 608 9 592 
3 378 592 136 
3 93 379 506 
3 379 136 591 
3 506 591 28 
3 20 508 559 
3 508 94 383 
3 559 383 120 
3 94 507 381 
3 507 28 589 
3 381 589 135 
3 120 382 560 
3 382 135 588 
3 560 588 7 
3 3 640 548 
3 640 160 386 
3 548 386 115 
3 160 639 384 
3 639 40 511 
3 384 511 98 
3 115 385 549 
3 385 98 515 
3 549 515 18 
3 40 637 510 
3 637 159 389 
3 510 389 96 
3 159 636 387 
3 636 10 572 
3 387 572 126 
3 96 388 512 
3 388 126 571 
3 512 571 23 
3 18 514 551 
3 514 97 392 
3 551 392 116 
3 97 513 390 
3 513 23 569 
3 390 569 125 
3 116 391 552 
3 391 125 568 
3 552 568 5 
3 3 554 641 
3 554 118 395 
3 641 395 161 
3 118 555 393 
3 555 21 517 
3 393 517 101 
3 161 394 638 
3 394 101 521 
3 638 521 41 
3 21 558 516 
3 558 121 398 
3 516 398 99 
3 121 561 396 
3 561 7 594 
3 396 594 138 
3 99 397 518 
3 397 138 595 
3 518 595 31 
3 41 520 635 
3 520 100 401 
3 635 401 158 
3 100 519 399 
3 519 31 598 
3 399 598 141 
3 158 400 634 
3 400 141 601 
3 634 601 11 
