ply
format ascii 1.0
comment VCGLIB generated
element vertex 12
property float x
property float y
property float z
property float nx
property float ny
property float nz
property int flags
element face 20
property list uchar int vertex_indices
property int flags
end_header
0 0 -1 3.69549e-06 0 -4.16078 0 
0.8236 -0.42572 -0.57215 3.0108 -2.18747 -1.86078 0 
-0.376385 -0.75064 -0.447215 -1.15 -3.53941 -1.86077 0 
0.8236 0.42572 -0.347215 3.0108 2.18747 -1.86078 0 
-0.994425 0 -0.347215 -3.7215 0 -1.86074 0 
-0.376385 0.75064 -0.447215 -1.15 3.53941 -1.86077 0 
-0.4236 -0.42572 0.647215 -3.0108 -2.18747 1.86078 0 
0.994425 0 0.347215 3.7215 0 1.86074 0 
0.376385 -0.75064 0.547215 1.15 -3.53941 1.86077 0 
-0.8236 0.42572 0.347215 -3.0108 2.18747 1.86078 0 
0.376385 0.75064 0.447215 1.15 3.53941 1.86077 0 
0 0 1 -3.69549e-06 0 4.16078 0 
3 0 1 2 0 
3 1 0 3 0 
3 0 2 4 0 
3 0 4 5 0 
3 0 5 3 0 
3 1 3 7 0 
3 2 1 8 0 
3 4 2 6 0 
3 5 4 9 0 
3 3 5 10 0 
3 1 7 8 0 
3 2 8 6 0 
3 4 6 9 0 
3 5 9 10 0 
3 3 10 7 0 
3 8 7 11 0 
3 6 8 11 0 
3 9 6 11 0 
3 10 9 11 0 
3 7 10 11 0 
