ply
format ascii 1.0
comment VCGLIB generated
element vertex 32
property float x
property float y
property float z
element face 60
property list uchar int vertex_indices
end_header
3.89972 0.133838 2.08975 
2.36963 2.54573 3.02331 
-0.246063 1.64341 5.07175 
-0.503628 -1.59878 3.76978 
2.76064 -2.31733 2.45816 
2.50003 -0.332567 3.51252 
-2.57425 2.74525 2.27957 
-4.24977 -0.428954 1.98402 
-2.48337 -2.5293 2.91436 
-1.44571 0.576247 2.88223 
1.80242 3.59552 0.244311 
-1.54891 3.93408 -0.414964 
-0.406041 2.81069 2.38529 
-2.06884 -4.40729 -0.370335 
1.28791 -4.55817 0.517337 
0.390449 -3.36872 1.49223 
4.48682 0.620756 -1.01257 
2.23684 2.05116 -2.14803 
3.63701 1.7557 -0.0282387 
-2.33691 2.63454 -2.36352 
-3.84448 0.494386 -1.4171 
-2.72283 1.57749 -0.688021 
-2.10361 -2.46056 -2.68017 
-2.94042 -1.30731 -0.233361 
3.25298 -2.65453 -2.88001 
3.0436 -2.42092 -0.271958 
0.163121 1.34228 -4.18076 
0.475097 2.70179 -2.40599 
0.0646493 -1.70322 -4.0059 
0.0364005 -2.28234 -2.23472 
1.3049 0.587527 -3.7916 
-1.69605 -0.243989 -3.22809 
3 5 0 1 
3 5 1 2 
3 5 2 3 
3 5 3 4 
3 5 4 0 
3 9 6 7 
3 9 7 8 
3 9 8 3 
3 9 3 2 
3 9 2 6 
3 12 6 2 
3 12 2 1 
3 12 1 10 
3 12 10 11 
3 12 11 6 
3 15 8 13 
3 15 13 14 
3 15 14 4 
3 15 4 3 
3 15 3 8 
3 18 1 0 
3 18 0 16 
3 18 16 17 
3 18 17 10 
3 18 10 1 
3 21 6 11 
3 21 11 19 
3 21 19 20 
3 21 20 7 
3 21 7 6 
3 23 8 7 
3 23 7 20 
3 23 20 22 
3 23 22 13 
3 23 13 8 
3 25 0 4 
3 25 4 14 
3 25 14 24 
3 25 24 16 
3 25 16 0 
3 27 11 10 
3 27 10 17 
3 27 17 26 
3 27 26 19 
3 27 19 11 
3 29 22 28 
3 29 28 24 
3 29 24 14 
3 29 14 13 
3 29 13 22 
3 30 17 16 
3 30 16 24 
3 30 24 28 
3 30 28 26 
3 30 26 17 
3 31 22 20 
3 31 20 19 
3 31 19 26 
3 31 26 28 
3 31 28 22 
