ply
format ascii 1.0
comment VCGLIB generated
element vertex 642
property float x
property float y
property float z
element face 1280
property list uchar int vertex_indices
end_header
-0.0380817 8.50792 5.39679 
0.100135 8.45677 -5.1897 
-0.124361 -8.38712 5.34123 
0.170053 -8.5438 -5.3996 
8.54181 5.34581 -0.128513 
8.37089 -5.28923 -0.0454124 
-8.49667 5.14175 0.0602144 
-8.66023 -5.35932 0.120375 
5.41498 -0.0230711 8.59752 
-5.22816 -0.0682131 8.58759 
5.42714 0.0669152 -8.59723 
-5.12122 -0.00615977 -8.47376 
0.030498 10.0427 -0.0210721 
4.94121 8.1297 3.20501 
4.97213 7.99179 -3.06003 
-4.98317 8.02939 -2.91874 
-4.85537 8.21244 2.97283 
0.0316321 -9.85824 -0.046137 
4.9788 -7.96395 -2.98617 
4.8966 -8.10801 2.95275 
-4.84911 -8.11139 3.19287 
-5.11304 -8.14851 -3.16684 
10.0929 0.145368 0.139233 
7.98881 -3.1768 -4.99444 
7.93044 3.14888 -4.91961 
8.13379 2.9925 4.8464 
8.13201 -3.21642 5.14187 
-9.90229 0.0785923 0.110424 
-8.21181 -3.20599 5.06344 
-7.9346 3.04416 4.87239 
-8.24523 3.02183 -4.97563 
-7.96931 -3.09834 -4.86076 
-0.12902 -0.0884611 10.1114 
-3.25317 -5.01661 7.94173 
3.10594 -5.00313 8.17365 
3.01312 4.86728 8.2492 
-3.14762 5.08233 7.94974 
-0.0887843 0.0068255 -9.88863 
-3.24174 5.0584 -7.92141 
3.17525 5.04076 -8.14063 
3.22084 -4.94109 -8.03576 
-3.10833 -4.99344 -8.21714 
2.57653 9.56131 1.58237 
5.14338 8.56747 0.114373 
2.53949 9.41408 -1.68657 
-2.46112 9.51024 -1.64608 
-5.10396 8.62195 -0.112362 
-2.78895 9.36401 1.69227 
2.75294 -9.63548 -1.67174 
5.37714 -8.37314 0.16683 
2.52481 -9.41973 1.67713 
-2.50488 -9.6111 1.51048 
-5.0873 -8.48596 0.109834 
-2.67408 -9.43075 -1.62701 
9.40631 -1.46073 -2.55434 
8.51349 0.158186 -5.35653 
9.66928 1.76292 -2.78565 
9.38371 1.77584 2.49831 
8.62054 0.102311 5.17526 
9.40424 -1.57567 2.50677 
-9.62327 -1.5063 2.77081 
-8.39347 0.0688651 5.12572 
-9.33844 1.69027 2.69082 
-9.40182 1.47164 -2.65989 
-8.57338 -0.0840098 -5.29789 
-9.67634 -1.52841 -2.68426 
-1.71639 -2.54697 9.42008 
-0.0755712 -5.12927 8.39405 
1.5919 -2.55979 9.67363 
1.68306 2.76441 9.54935 
0.109783 5.10715 8.49038 
-1.54587 2.76474 9.39009 
-1.50425 2.76366 -9.39216 
0.00929656 5.32785 -8.36786 
1.77587 2.45911 -9.62913 
1.56209 -2.79076 -9.35974 
0.0550965 -5.33799 -8.4472 
-1.48678 -2.6117 -9.49642 
5.73 4.41072 6.7917 
6.72391 5.92057 4.12559 
4.30724 6.8612 5.77323 
-7.01726 5.76266 4.11151 
-5.96046 4.0852 7.04838 
-4.39067 6.89636 5.94166 
6.70993 5.87037 -4.18578 
5.76052 4.35647 -6.80334 
4.11354 6.86701 -5.70675 
-5.78505 4.20296 -6.86706 
-6.94817 5.85292 -4.25416 
-4.23651 6.87218 -6.00925 
6.94419 -6.0068 4.27435 
6.00873 -4.34434 6.96102 
4.4156 -6.8824 5.96212 
-5.72225 -4.21795 6.80741 
-6.83571 -5.84132 4.34448 
-4.31279 -6.78949 5.89908 
5.72368 -4.12734 -7.04879 
6.72562 -5.83235 -4.29722 
4.28502 -6.72946 -5.77355 
-7.02425 -5.88187 -4.33189 
-5.97839 -4.3682 -6.91628 
-4.15948 -7.03919 -5.8301 
-0.000323733 9.45124 -2.85862 
2.50965 8.78735 -4.25633 
0.00944585 9.65304 2.67855 
2.52638 8.77401 4.20398 
7.14237 7.10417 1.77043 
7.14869 6.77467 -1.56971 
-2.68786 8.66853 4.35464 
-2.75677 8.69939 -4.50036 
-7.08373 7.08319 -1.70943 
-6.9449 7.00375 1.51893 
-0.0498933 -9.72697 2.65044 
2.59628 -8.65033 4.24412 
-0.0932852 -9.46037 -2.62056 
2.62473 -8.71342 -4.25267 
7.08458 -7.07585 -1.52685 
7.07558 -6.77441 1.69566 
-2.6805 -8.72544 -4.38081 
-2.49154 -8.71008 4.19646 
-6.90135 -6.91126 1.43597 
-7.17778 -7.0089 -1.53732 
9.54799 2.78488 0.134528 
8.64628 4.21526 -2.66124 
9.71743 -2.77637 -0.0765246 
8.66362 -4.18357 -2.58897 
6.88775 -1.55999 -6.97534 
6.79391 1.53435 -6.98516 
8.74544 -4.31912 2.70868 
8.5303 4.29282 2.45208 
6.8722 1.50605 7.07338 
6.87516 -1.69049 7.17549 
-9.78633 2.75022 0.0340315 
-8.4859 4.20283 2.68253 
-9.71413 -2.59747 -0.133297 
-8.62475 -4.33997 2.44773 
-7.09913 -1.48415 7.08871 
-6.8808 1.7576 7.19006 
-8.70758 -4.24196 -2.58277 
-8.77103 4.16622 -2.45563 
-7.05578 1.54116 -7.15055 
-6.82966 -1.56071 -7.06161 
2.82262 0.0517691 9.769 
4.28967 -2.57957 8.46703 
-2.87148 0.0978109 9.76813 
-4.43779 -2.67238 8.60114 
-1.6831 -7.08204 6.86113 
1.7708 -6.85182 6.8393 
-4.17792 2.51346 8.79831 
4.34279 2.54233 8.79886 
1.5802 7.01911 6.87171 
-1.58911 6.95404 7.09043 
2.88184 -0.14967 -9.5882 
4.46447 2.57324 -8.74936 
-2.59353 0.00871504 -9.47104 
-4.22421 2.68194 -8.72501 
-1.69029 6.8534 -6.9245 
1.61868 7.19119 -6.92906 
-4.25172 -2.44044 -8.53019 
4.42447 -2.60975 -8.75999 
1.69076 -6.8841 -6.89925 
-1.76098 -7.04021 -6.79246 
4.16714 9.08604 0.992117 
4.02511 9.03841 -0.853245 
2.74362 9.51313 0.151916 
-3.94137 9.29223 -0.761506 
-3.86649 9.03495 0.89111 
-2.69437 9.72941 0.0653892 
4.1477 -9.12507 -0.772578 
4.07099 -9.2127 0.689853 
2.77887 -9.81015 -0.170233 
-4.0159 -9.28292 0.80647 
-4.04377 -9.28506 -0.710572 
-2.71608 -9.59159 -0.151956 
9.22099 -0.869853 -4.1003 
9.1997 0.658112 -4.1111 
9.59701 0.137668 -2.70074 
8.98289 0.757374 3.87696 
9.22148 -0.910674 4.05492 
9.60772 0.160691 2.81323 
-9.12089 -0.720929 4.14692 
-9.11791 0.732499 4.16704 
-9.47026 0.0347714 2.50658 
-9.02202 0.979187 -3.93331 
-9.00076 -0.749325 -4.15314 
-9.78699 -0.029422 -2.81303 
-0.913433 -3.89389 9.29172 
0.869554 -3.86762 9.05265 
0.10042 -2.61714 9.64721 
0.809298 3.83887 9.1259 
-0.861198 4.02102 9.055 
-0.0603174 2.52769 9.64626 
-0.885792 3.85486 -9.26061 
0.776419 4.13588 -9.27787 
-0.157266 2.75971 -9.53954 
0.682113 -3.87557 -9.23338 
-0.94013 -4.13898 -8.95799 
-0.128207 -2.58743 -9.51153 
6.43361 5.13758 5.64332 
5.79218 6.62888 5.15054 
5.10626 5.59447 6.3343 
-6.39489 5.19858 5.54792 
-5.22843 5.4716 6.40315 
-5.69479 6.42123 5.03773 
6.43869 5.10515 -5.46969 
5.03253 5.64602 -6.34564 
5.61097 6.52557 -4.98332 
-6.49873 5.23855 -5.5887 
-5.72162 6.36519 -5.24929 
-5.03885 5.51838 -6.59142 
6.40425 -5.1122 5.64204 
5.11396 -5.72331 6.35688 
5.70133 -6.468 5.02713 
-6.2964 -5.01502 5.66457 
-5.7424 -6.54734 5.30039 
-5.23397 -5.65212 6.46268 
6.31249 -5.0017 -5.75906 
5.8129 -6.53988 -4.97226 
5.18475 -5.62252 -6.57808 
-6.35711 -5.19204 -5.70579 
-4.97752 -5.58914 -6.33426 
-5.66002 -6.60539 -5.25621 
1.37476 9.75632 -2.15264 
2.75424 9.251 -3.01853 
1.27879 9.40495 -3.49658 
1.27221 9.13153 3.48521 
2.7666 9.07084 2.87435 
1.16397 9.56947 2.16204 
6.37314 7.9318 0.965519 
6.99805 7.09428 -0.0773963 
6.19759 7.85028 -0.662207 
-1.37442 9.52147 2.03756 
-2.63657 9.24004 3.11458 
-1.43697 9.26085 3.59963 
-1.26971 9.39629 -3.57625 
-2.68148 9.09814 -2.94486 
-1.29245 9.55218 -2.05184 
-6.13195 7.69955 -0.929748 
-7.25471 6.92411 -0.161788 
-6.3634 7.75553 0.888053 
1.26274 -9.54203 2.15283 
2.55164 -9.26026 2.99501 
1.23697 -9.16339 3.46909 
1.16575 -9.1106 -3.50447 
2.68057 -9.15636 -2.95474 
1.20049 -9.52529 -2.03441 
6.3159 -7.80115 -0.929618 
7.20244 -7.13094 -0.0474831 
6.3469 -7.87259 0.832188 
-1.172 -9.72227 -2.0537 
-2.58148 -9.11277 -2.91644 
-1.47875 -9.10935 -3.41074 
-1.32312 -9.36214 3.66028 
-2.58738 -9.25913 3.04981 
-1.36987 -9.54767 2.07126 
-6.3597 -7.64001 0.64693 
-7.27657 -6.92674 0.00961719 
-6.31114 -7.7833 -0.730458 
9.68091 2.19121 -1.49073 
9.02699 2.98534 -2.68876 
9.08185 3.44118 -1.48802 
9.35121 -3.71238 -1.18112 
9.26894 -2.97603 -2.7977 
9.6752 -2.28437 -1.40828 
7.67733 -0.763354 -6.3397 
6.94765 0.0639739 -7.26129 
7.72934 0.88485 -6.07533 
9.77405 -2.06327 1.30052 
9.18032 -3.03092 2.77667 
9.27133 -3.56286 1.25194 
9.39661 3.61373 1.28405 
9.31774 2.97898 2.65144 
9.78145 2.10084 1.20189 
7.93591 0.895576 6.16636 
6.90937 0.13265 6.95164 
7.71825 -0.933399 6.2784 
-9.72299 2.1797 1.30415 
-9.26765 2.92804 2.58174 
-9.20245 3.68883 1.41235 
-9.23981 -3.62067 1.25857 
-9.05061 -3.07062 2.78749 
-9.75781 -2.27711 1.26777 
-7.71211 -0.943045 6.21512 
-6.89196 -0.170972 7.03649 
-7.87418 0.693955 6.08551 
-9.72403 -2.22922 -1.39358 
-9.31975 -2.92649 -2.55474 
-9.25092 -3.42819 -1.48823 
-9.13679 3.60377 -1.20848 
-9.1336 2.86409 -2.74435 
-9.51986 2.33772 -1.31627 
-7.68452 0.680866 -6.09347 
-7.14491 0.132595 -6.96231 
-7.73195 -0.714925 -6.04965 
2.36815 -1.47678 9.526 
2.88948 -2.67657 9.16968 
3.56673 -1.3364 9.16317 
-3.68497 -1.17106 9.14406 
-3.11373 -2.56229 9.25815 
-2.36745 -1.39375 9.78435 
-0.908004 -6.29736 7.8858 
0.0882827 -7.26347 7.15548 
0.835416 -6.29568 7.88784 
-2.19987 1.47794 9.67301 
-3.03175 2.78462 9.19588 
-3.56617 1.16402 9.41395 
3.43243 1.32168 9.2209 
2.95606 2.71648 9.11258 
2.21887 1.47565 9.51939 
0.75161 6.35705 7.76489 
-0.112597 6.99768 7.07016 
-0.667049 6.34875 7.86568 
2.29874 1.32506 -9.52036 
3.02275 2.81247 -9.04207 
3.42832 1.29582 -9.15209 
-3.5296 1.48515 -9.13141 
-2.96221 2.48636 -9.21889 
-2.34615 1.29014 -9.81793 
-0.83305 6.35551 -7.63512 
0.00704233 7.03292 -6.8807 
0.954516 6.18311 -7.94202 
-2.1902 -1.37605 -9.83076 
-3.11118 -2.76459 -9.15893 
-3.71053 -1.25694 -9.2411 
3.74763 -1.2377 -9.08862 
3.09568 -2.6825 -9.01262 
2.22268 -1.49242 -9.49537 
0.949694 -6.33866 -7.84448 
0.157481 -7.0975 -7.0916 
-0.66022 -6.35325 -7.77127 
3.08641 7.18855 6.3124 
3.62112 7.83773 5.12458 
2.29619 8.00432 5.72533 
5.70878 2.25303 7.8257 
6.64554 3.07498 7.17437 
5.31386 3.48634 7.77091 
7.96377 5.03433 3.40664 
8.05109 5.55069 2.11228 
6.93204 6.64299 3.13062 
-3.44191 7.98137 5.00772 
-3.08285 7.12311 6.31287 
-2.24154 8.01288 5.72769 
-7.90124 5.79166 2.05003 
-7.96966 5.06342 3.33092 
-7.08582 6.37453 3.11757 
-6.55878 2.83989 7.03222 
-5.68758 1.96611 7.98194 
-5.01796 3.59522 7.90135 
3.41363 7.70394 -5.09872 
2.90951 7.08536 -6.43797 
2.09941 8.03916 -5.74957 
7.90763 5.54065 -2.25411 
8.00404 5.18782 -3.33305 
6.93921 6.53879 -3.10258 
6.43283 2.78878 -7.09201 
5.65555 2.04751 -7.94235 
5.28658 3.57696 -7.84127 
-2.95244 7.10858 -6.5204 
-3.5603 7.69888 -5.16486 
-1.99329 7.91353 -5.82711 
-5.71265 2.25965 -7.75521 
-6.3381 2.89739 -6.85047 
-5.32228 3.39519 -7.8085 
-7.6939 5.1842 -3.54405 
-7.7552 5.86743 -2.2108 
-7.09392 6.39885 -2.95013 
3.54806 -7.95763 5.11335 
2.86661 -6.9654 6.33852 
2.16373 -7.79436 5.61449 
7.78314 -5.61666 2.19245 
7.74978 -5.2387 3.47996 
6.93644 -6.58879 3.08904 
6.38688 -3.06258 6.91254 
5.82451 -2.26535 8.01214 
5.01748 -3.59856 7.90186 
-3.01115 -7.05774 6.6394 
-3.32951 -7.95584 5.03017 
-2.21928 -7.96804 5.81237 
-5.76396 -1.96506 7.98527 
-6.45038 -3.11144 7.00453 
-5.24846 -3.52445 7.91167 
-7.73012 -5.13759 3.59722 
-7.86632 -5.60292 1.99018 
-6.90027 -6.42575 2.85809 
2.99531 -6.94526 -6.5399 
3.39092 -7.98099 -5.08843 
2.05169 -7.76774 -5.58784 
5.67614 -2.23374 -8.01657 
6.36439 -2.94179 -7.12122 
5.28348 -3.59274 -7.91083 
7.765 -5.20646 -3.42756 
7.76092 -5.82658 -2.24584 
7.16643 -6.3548 -2.79285 
-3.63145 -7.76558 -5.11885 
-3.05872 -7.09211 -6.52712 
-2.12147 -7.8929 -5.73879 
-8.01816 -5.58425 -2.17095 
-7.97472 -5.24253 -3.43256 
-7.08017 -6.49195 -3.08603 
-6.45611 -3.02882 -7.10708 
-5.59761 -2.09531 -7.88251 
-5.18554 -3.41897 -7.73139 
1.36399 9.88956 0.871663 
1.35797 9.89285 -0.877458 
3.75829 9.00057 2.43594 
5.2092 8.32784 1.47389 
5.35614 8.40938 -1.69974 
3.8115 8.95068 -2.43027 
-1.17891 10.0336 -0.710551 
-1.4781 9.87844 0.69231 
-3.92003 8.85332 -2.30876 
-5.03355 8.49392 -1.61699 
-5.10363 8.35398 1.69759 
-3.89689 9.06274 2.36278 
1.41387 -10.001 -0.929122 
1.28982 -9.81118 0.814993 
3.90375 -8.85401 -2.55981 
5.27227 -8.56931 -1.52356 
5.05556 -8.2443 1.58867 
4.00993 -9.07318 2.23943 
-1.48598 -9.92495 0.791553 
-1.23476 -9.93912 -0.93437 
-3.99177 -9.05656 2.40024 
-5.36244 -8.41009 1.55728 
-5.21323 -8.50014 -1.52233 
-3.816 -8.8761 -2.45226 
9.74211 -0.919802 -1.16693 
9.74228 0.977943 -1.16126 
8.98946 -2.54149 -3.70815 
8.33228 -1.3978 -5.02877 
8.35816 1.40242 -5.25004 
9.00878 2.494 -3.80835 
10.0369 0.972972 1.41094 
9.87712 -0.668525 1.22942 
9.07644 2.34682 3.83544 
8.43697 1.39706 5.0269 
8.54469 -1.69319 5.10273 
9.04354 -2.47701 3.75433 
-9.74716 -0.660061 1.24166 
-9.76665 0.74208 1.235 
-8.80922 -2.33753 3.77744 
-8.5316 -1.5896 5.04218 
-8.30487 1.52586 5.01952 
-8.90613 2.52174 4.01592 
-9.80103 0.950559 -1.38983 
-10.0007 -0.832313 -1.38391 
-9.02633 2.34658 -3.87071 
-8.43469 1.48442 -5.11845 
-8.36903 -1.68775 -5.12929 
-8.79316 -2.22673 -3.70572 
-0.974438 -1.24304 9.90907 
0.75919 -1.19965 9.71061 
-2.4272 -3.80711 8.87852 
-1.60463 -5.3071 8.33199 
1.50489 -5.05804 8.28692 
2.4414 -4.02433 8.95852 
0.650651 1.2252 9.71194 
-0.829824 1.36549 9.80523 
2.2803 3.7562 8.88822 
1.69437 5.03061 8.36675 
-1.45137 5.05181 8.28121 
-2.41482 3.83107 8.74735 
-0.843537 1.43269 -9.81163 
0.942978 1.21919 -9.75294 
-2.50921 3.86411 -8.82479 
-1.62844 5.07624 -8.30575 
1.72192 5.07768 -8.23805 
2.55261 3.91278 -8.88476 
0.743407 -1.21307 -9.78405 
-0.750082 -1.25625 -9.77281 
2.25088 -3.84765 -8.77356 
1.4811 -5.0332 -8.46929 
-1.6371 -5.22752 -8.54052 
-2.22106 -3.94947 -8.98712 
4.65635 4.64747 7.67774 
3.746 6.08729 7.22632 
7.02241 3.77413 5.88215 
7.52121 4.58918 4.77555 
6.15538 7.21454 3.75317 
4.74429 7.62196 4.47684 
-6.02415 7.15099 3.84185 
-4.73015 7.74924 4.65045 
-7.51951 4.46383 4.5867 
-6.97675 3.6339 6.00302 
-4.69585 4.54396 7.70375 
-3.60183 6.07639 7.09454 
6.11271 6.91058 -3.81057 
4.82235 7.53394 -4.41051 
7.63545 4.46165 -4.58464 
6.98963 3.87243 -6.04596 
4.56862 4.65689 -7.70359 
3.69735 6.11496 -7.19863 
-4.6227 4.67089 -7.60978 
-3.72466 5.9227 -7.01186 
-6.91703 3.64244 -5.92294 
-7.47413 4.40731 -4.70406 
-6.05952 7.20938 -3.72451 
-4.64869 7.6825 -4.41915 
6.0068 -7.08504 3.58677 
4.60254 -7.50155 4.39093 
7.63986 -4.6066 4.68113 
7.18055 -3.63109 5.93858 
4.69504 -4.85391 7.66272 
3.66897 -6.01859 7.23534 
-4.70242 -4.70705 7.49537 
-3.61471 -6.10575 7.0277 
-7.16127 -3.67952 5.93674 
-7.50338 -4.63955 4.53596 
-5.99148 -7.00571 3.72839 
-4.61828 -7.42255 4.45541 
4.63016 -4.64019 -7.55733 
3.63135 -6.03463 -7.13587 
7.08172 -3.75518 -6.07621 
7.50016 -4.4529 -4.57587 
5.92688 -6.97337 -3.80502 
4.6854 -7.55209 -4.54497 
-5.88407 -6.9608 -3.8578 
-4.80484 -7.56632 -4.60666 
-7.67502 -4.67655 -4.51248 
-6.98262 -3.61489 -5.8596 
-4.70916 -4.66466 -7.55305 
-3.69151 -5.90829 -7.23759 
0.134382 9.0946 -4.06457 
1.21198 8.68747 -4.96164 
-0.16481 10.0276 -1.22584 
3.757 8.39026 -3.74265 
0.0890076 9.81327 1.32432 
0.121902 9.11198 4.1646 
1.19394 8.68839 5.01202 
3.71668 8.39345 3.84737 
5.931 7.54481 -2.42746 
6.13052 7.74399 2.24778 
7.90738 6.27506 0.805151 
7.70315 6.00182 -0.951604 
-1.3913 8.5031 5.00015 
-3.93496 8.38699 3.68406 
-1.22988 8.51297 -4.82866 
-3.98243 8.5979 -3.59987 
-5.9103 7.45404 2.38727 
-5.9159 7.50779 -2.22692 
-7.76231 6.11365 -0.881839 
-7.99211 6.00271 0.724145 
-0.103551 -9.06199 3.89227 
1.37595 -8.52291 4.72174 
0.0964156 -10.0305 1.28386 
3.91507 -8.49085 3.77581 
-0.160606 -10.0472 -1.31722 
0.0283637 -9.26635 -3.98567 
1.31768 -8.78046 -4.75581 
3.685 -8.59114 -3.91372 
6.23427 -7.48922 2.33797 
5.99009 -7.46968 -2.38426 
7.84676 -6.31634 -0.909018 
7.87868 -6.07919 0.665878 
-1.22122 -8.64885 -4.94232 
-3.66781 -8.53295 -3.72681 
-1.29146 -8.73052 4.89837 
-3.92649 -8.31877 3.86163 
-5.93752 -7.63372 -2.21758 
-6.02212 -7.61164 2.19891 
-7.78242 -6.18873 0.909428 
-7.98852 -6.09368 -0.76867 
9.16016 3.93141 0.05548 
8.73407 4.95573 -1.3525 
10.0174 1.40841 0.133153 
8.28101 3.7744 -3.97003 
9.94306 -1.50818 -0.0419144 
9.06985 -4.07936 -0.0947821 
8.50675 -4.93269 -1.28077 
8.27664 -3.61932 -4.00324 
7.42531 2.38473 -6.09445 
7.69709 -2.33388 -6.20492 
6.13597 -0.937362 -7.90404 
6.01824 0.942354 -7.96593 
8.64382 -4.77313 1.3866 
8.39359 -3.664 3.76153 
8.64308 4.79627 1.28195 
8.5642 3.79487 3.93349 
7.44362 -2.29572 5.90412 
7.64806 2.45675 6.2084 
6.22407 0.908748 7.81923 
6.02466 -0.775625 7.68301 
-9.24566 3.87513 -0.10871 
-8.63692 4.72102 1.16157 
-9.8463 1.42386 0.0940675 
-8.47965 3.92241 3.84338 
-9.84632 -1.38692 0.132313 
-9.29562 -4.08907 0.00358617 
-8.52392 -4.86963 1.21753 
-8.30466 -3.88728 4.00076 
-7.48513 2.47483 6.15755 
-7.67754 -2.22545 6.01957 
-6.22965 -0.933885 7.80454 
-6.16515 0.873428 7.85435 
-8.63524 -4.89698 -1.42495 
-8.5042 -3.67027 -3.95027 
-8.53392 4.80939 -1.26033 
-8.36464 3.74338 -3.66677 
-7.68167 -2.4257 -6.09731 
-7.60294 2.27727 -6.06099 
-6.18143 0.645454 -7.90042 
-6.26535 -0.894076 -7.92821 
4.04916 0.0167708 9.11084 
4.99934 -1.47717 8.49905 
1.37716 0.0220998 9.8748 
3.80828 -3.70591 8.31643 
-1.26256 0.0723828 9.91989 
-4.03812 -0.0263532 8.98572 
-4.85283 -1.2603 8.60295 
-3.61465 -3.97406 8.47239 
2.34065 -6.05797 7.6276 
-2.28985 -5.99368 7.7176 
-0.646423 -7.92147 6.13106 
0.762498 -7.93975 6.1391 
-4.86981 1.38153 8.48086 
-3.63216 3.79034 8.57412 
5.01317 1.20996 8.68347 
3.76143 3.90274 8.27373 
-2.35133 5.95323 7.64605 
2.51727 5.91576 7.68134 
0.817334 7.82893 6.08831 
-0.936523 7.73674 5.98967 
3.86576 -0.110464 -9.22701 
4.82447 1.32638 -8.65398 
1.51546 0.162197 -10.0128 
3.89111 3.94335 -8.42008 
-1.27701 0.102752 -9.81418 
-4.07007 -0.0594173 -9.16684 
-4.87311 1.44533 -8.60751 
-3.89276 3.94266 -8.37662 
2.49651 6.00804 -7.70673 
-2.48653 6.05559 -7.63522 
-0.920075 7.83118 -6.14237 
0.798283 7.98444 -6.3012 
-4.68848 -1.20326 -8.80508 
-3.87603 -3.75988 -8.31448 
4.91102 -1.30645 -8.59512 
3.73398 -3.69389 -8.27115 
-2.23046 -6.12791 -7.45844 
2.37984 -6.09708 -7.52512 
0.709124 -7.91482 -6.32844 
-0.859599 -7.85728 -6.1679 
3 162 163 164 
3 165 166 167 
3 168 169 170 
3 171 172 173 
3 174 175 176 
3 177 178 179 
3 180 181 182 
3 183 184 185 
3 186 187 188 
3 189 190 191 
3 192 193 194 
3 195 196 197 
3 198 199 200 
3 201 202 203 
3 204 205 206 
3 207 208 209 
3 210 211 212 
3 213 214 215 
3 216 217 218 
3 219 220 221 
3 222 223 224 
3 225 226 227 
3 228 229 230 
3 231 232 233 
3 234 235 236 
3 237 238 239 
3 240 241 242 
3 243 244 245 
3 246 247 248 
3 249 250 251 
3 252 253 254 
3 255 256 257 
3 258 259 260 
3 261 262 263 
3 264 265 266 
3 267 268 269 
3 270 271 272 
3 273 274 275 
3 276 277 278 
3 279 280 281 
3 282 283 284 
3 285 286 287 
3 288 289 290 
3 291 292 293 
3 294 295 296 
3 297 298 299 
3 300 301 302 
3 303 304 305 
3 306 307 308 
3 309 310 311 
3 312 313 314 
3 315 316 317 
3 318 319 320 
3 321 322 323 
3 324 325 326 
3 327 328 329 
3 330 331 332 
3 333 334 335 
3 336 337 338 
3 339 340 341 
3 342 343 344 
3 345 346 347 
3 348 349 350 
3 351 352 353 
3 354 355 356 
3 357 358 359 
3 360 361 362 
3 363 364 365 
3 366 367 368 
3 369 370 371 
3 372 373 374 
3 375 376 377 
3 378 379 380 
3 381 382 383 
3 384 385 386 
3 387 388 389 
3 390 391 392 
3 393 394 395 
3 396 397 398 
3 399 400 401 
3 402 164 403 
3 404 405 162 
3 163 406 407 
3 408 167 409 
3 410 411 165 
3 166 412 413 
3 414 170 415 
3 416 417 168 
3 169 418 419 
3 420 173 421 
3 422 423 171 
3 172 424 425 
3 426 176 427 
3 428 429 174 
3 175 430 431 
3 432 179 433 
3 434 435 177 
3 178 436 437 
3 438 182 439 
3 440 441 180 
3 181 442 443 
3 444 185 445 
3 446 447 183 
3 184 448 449 
3 450 188 451 
3 452 453 186 
3 187 454 455 
3 456 191 457 
3 458 459 189 
3 190 460 461 
3 462 194 463 
3 464 465 192 
3 193 466 467 
3 468 197 469 
3 470 471 195 
3 196 472 473 
3 474 200 475 
3 476 477 198 
3 199 478 479 
3 480 203 481 
3 482 483 201 
3 202 484 485 
3 486 206 487 
3 488 489 204 
3 205 490 491 
3 492 209 493 
3 494 495 207 
3 208 496 497 
3 498 212 499 
3 500 501 210 
3 211 502 503 
3 504 215 505 
3 506 507 213 
3 214 508 509 
3 510 218 511 
3 512 513 216 
3 217 514 515 
3 516 221 517 
3 518 519 219 
3 220 520 521 
3 522 224 523 
3 524 403 222 
3 223 407 525 
3 526 227 402 
3 527 528 225 
3 226 529 404 
3 406 230 530 
3 405 531 228 
3 229 532 533 
3 527 233 534 
3 526 409 231 
3 232 413 535 
3 524 236 408 
3 522 536 234 
3 235 537 410 
3 412 239 538 
3 411 539 237 
3 238 540 541 
3 542 242 543 
3 544 415 240 
3 241 419 545 
3 546 245 414 
3 547 548 243 
3 244 549 416 
3 418 248 550 
3 417 551 246 
3 247 552 553 
3 547 251 554 
3 546 421 249 
3 250 425 555 
3 544 254 420 
3 542 556 252 
3 253 557 422 
3 424 257 558 
3 423 559 255 
3 256 560 561 
3 562 260 563 
3 564 427 258 
3 259 431 565 
3 566 263 426 
3 567 568 261 
3 262 569 428 
3 430 266 570 
3 429 571 264 
3 265 572 573 
3 567 269 574 
3 566 433 267 
3 268 437 575 
3 564 272 432 
3 562 576 270 
3 271 577 434 
3 436 275 578 
3 435 579 273 
3 274 580 581 
3 582 278 583 
3 584 439 276 
3 277 443 585 
3 586 281 438 
3 587 588 279 
3 280 589 440 
3 442 284 590 
3 441 591 282 
3 283 592 593 
3 587 287 594 
3 586 445 285 
3 286 449 595 
3 584 290 444 
3 582 596 288 
3 289 597 446 
3 448 293 598 
3 447 599 291 
3 292 600 601 
3 602 296 603 
3 604 451 294 
3 295 455 605 
3 606 299 450 
3 607 608 297 
3 298 609 452 
3 454 302 610 
3 453 611 300 
3 301 612 613 
3 607 305 614 
3 606 457 303 
3 304 461 615 
3 604 308 456 
3 602 616 306 
3 307 617 458 
3 460 311 618 
3 459 619 309 
3 310 620 621 
3 622 314 623 
3 624 463 312 
3 313 467 625 
3 626 317 462 
3 627 628 315 
3 316 629 464 
3 466 320 630 
3 465 631 318 
3 319 632 633 
3 627 323 634 
3 626 469 321 
3 322 473 635 
3 624 326 468 
3 622 636 324 
3 325 637 470 
3 472 329 638 
3 471 639 327 
3 328 640 641 
3 620 332 528 
3 619 475 330 
3 331 479 529 
3 617 335 474 
3 616 580 333 
3 334 579 476 
3 478 338 531 
3 477 577 336 
3 337 576 532 
3 534 341 621 
3 535 481 339 
3 340 485 618 
3 538 344 480 
3 541 583 342 
3 343 585 482 
3 484 347 615 
3 483 590 345 
3 346 593 614 
3 523 350 633 
3 525 487 348 
3 349 491 630 
3 530 353 486 
3 533 563 351 
3 352 565 488 
3 490 356 625 
3 489 570 354 
3 355 573 623 
3 632 359 536 
3 631 493 357 
3 358 497 537 
3 629 362 492 
3 628 600 360 
3 361 599 494 
3 496 365 539 
3 495 597 363 
3 364 596 540 
3 543 368 613 
3 545 499 366 
3 367 503 610 
3 550 371 498 
3 553 574 369 
3 370 575 500 
3 502 374 605 
3 501 578 372 
3 373 581 603 
3 612 377 556 
3 611 505 375 
3 376 509 557 
3 609 380 504 
3 608 592 378 
3 379 591 506 
3 508 383 559 
3 507 589 381 
3 382 588 560 
3 640 386 548 
3 639 511 384 
3 385 515 549 
3 637 389 510 
3 636 572 387 
3 388 571 512 
3 514 392 551 
3 513 569 390 
3 391 568 552 
3 554 395 641 
3 555 517 393 
3 394 521 638 
3 558 398 516 
3 561 594 396 
3 397 595 518 
3 520 401 635 
3 519 598 399 
3 400 601 634 
3 42 162 164 
3 162 43 163 
3 164 163 44 
3 45 165 167 
3 165 46 166 
3 167 166 47 
3 48 168 170 
3 168 49 169 
3 170 169 50 
3 51 171 173 
3 171 52 172 
3 173 172 53 
3 54 174 176 
3 174 55 175 
3 176 175 56 
3 57 177 179 
3 177 58 178 
3 179 178 59 
3 60 180 182 
3 180 61 181 
3 182 181 62 
3 63 183 185 
3 183 64 184 
3 185 184 65 
3 66 186 188 
3 186 67 187 
3 188 187 68 
3 69 189 191 
3 189 70 190 
3 191 190 71 
3 72 192 194 
3 192 73 193 
3 194 193 74 
3 75 195 197 
3 195 76 196 
3 197 196 77 
3 78 198 200 
3 198 79 199 
3 200 199 80 
3 81 201 203 
3 201 82 202 
3 203 202 83 
3 84 204 206 
3 204 85 205 
3 206 205 86 
3 87 207 209 
3 207 88 208 
3 209 208 89 
3 90 210 212 
3 210 91 211 
3 212 211 92 
3 93 213 215 
3 213 94 214 
3 215 214 95 
3 96 216 218 
3 216 97 217 
3 218 217 98 
3 99 219 221 
3 219 100 220 
3 221 220 101 
3 102 222 224 
3 222 44 223 
3 224 223 103 
3 104 225 227 
3 225 105 226 
3 227 226 42 
3 43 228 230 
3 228 106 229 
3 230 229 107 
3 104 231 233 
3 231 47 232 
3 233 232 108 
3 102 234 236 
3 234 109 235 
3 236 235 45 
3 46 237 239 
3 237 110 238 
3 239 238 111 
3 112 240 242 
3 240 50 241 
3 242 241 113 
3 114 243 245 
3 243 115 244 
3 245 244 48 
3 49 246 248 
3 246 116 247 
3 248 247 117 
3 114 249 251 
3 249 53 250 
3 251 250 118 
3 112 252 254 
3 252 119 253 
3 254 253 51 
3 52 255 257 
3 255 120 256 
3 257 256 121 
3 122 258 260 
3 258 56 259 
3 260 259 123 
3 124 261 263 
3 261 125 262 
3 263 262 54 
3 55 264 266 
3 264 126 265 
3 266 265 127 
3 124 267 269 
3 267 59 268 
3 269 268 128 
3 122 270 272 
3 270 129 271 
3 272 271 57 
3 58 273 275 
3 273 130 274 
3 275 274 131 
3 132 276 278 
3 276 62 277 
3 278 277 133 
3 134 279 281 
3 279 135 280 
3 281 280 60 
3 61 282 284 
3 282 136 283 
3 284 283 137 
3 134 285 287 
3 285 65 286 
3 287 286 138 
3 132 288 290 
3 288 139 289 
3 290 289 63 
3 64 291 293 
3 291 140 292 
3 293 292 141 
3 142 294 296 
3 294 68 295 
3 296 295 143 
3 144 297 299 
3 297 145 298 
3 299 298 66 
3 67 300 302 
3 300 146 301 
3 302 301 147 
3 144 303 305 
3 303 71 304 
3 305 304 148 
3 142 306 308 
3 306 149 307 
3 308 307 69 
3 70 309 311 
3 309 150 310 
3 311 310 151 
3 152 312 314 
3 312 74 313 
3 314 313 153 
3 154 315 317 
3 315 155 316 
3 317 316 72 
3 73 318 320 
3 318 156 319 
3 320 319 157 
3 154 321 323 
3 321 77 322 
3 323 322 158 
3 152 324 326 
3 324 159 325 
3 326 325 75 
3 76 327 329 
3 327 160 328 
3 329 328 161 
3 150 330 332 
3 330 80 331 
3 332 331 105 
3 149 333 335 
3 333 130 334 
3 335 334 78 
3 79 336 338 
3 336 129 337 
3 338 337 106 
3 108 339 341 
3 339 83 340 
3 341 340 151 
3 111 342 344 
3 342 133 343 
3 344 343 81 
3 82 345 347 
3 345 137 346 
3 347 346 148 
3 103 348 350 
3 348 86 349 
3 350 349 157 
3 107 351 353 
3 351 123 352 
3 353 352 84 
3 85 354 356 
3 354 127 355 
3 356 355 153 
3 156 357 359 
3 357 89 358 
3 359 358 109 
3 155 360 362 
3 360 140 361 
3 362 361 87 
3 88 363 365 
3 363 139 364 
3 365 364 110 
3 113 366 368 
3 366 92 367 
3 368 367 147 
3 117 369 371 
3 369 128 370 
3 371 370 90 
3 91 372 374 
3 372 131 373 
3 374 373 143 
3 146 375 377 
3 375 95 376 
3 377 376 119 
3 145 378 380 
3 378 136 379 
3 380 379 93 
3 94 381 383 
3 381 135 382 
3 383 382 120 
3 160 384 386 
3 384 98 385 
3 386 385 115 
3 159 387 389 
3 387 126 388 
3 389 388 96 
3 97 390 392 
3 390 125 391 
3 392 391 116 
3 118 393 395 
3 393 101 394 
3 395 394 161 
3 121 396 398 
3 396 138 397 
3 398 397 99 
3 100 399 401 
3 399 141 400 
3 401 400 158 
3 12 402 403 
3 402 42 164 
3 403 164 44 
3 42 404 162 
3 404 13 405 
3 162 405 43 
3 44 163 407 
3 163 43 406 
3 407 406 14 
3 12 408 409 
3 408 45 167 
3 409 167 47 
3 45 410 165 
3 410 15 411 
3 165 411 46 
3 47 166 413 
3 166 46 412 
3 413 412 16 
3 17 414 415 
3 414 48 170 
3 415 170 50 
3 48 416 168 
3 416 18 417 
3 168 417 49 
3 50 169 419 
3 169 49 418 
3 419 418 19 
3 17 420 421 
3 420 51 173 
3 421 173 53 
3 51 422 171 
3 422 20 423 
3 171 423 52 
3 53 172 425 
3 172 52 424 
3 425 424 21 
3 22 426 427 
3 426 54 176 
3 427 176 56 
3 54 428 174 
3 428 23 429 
3 174 429 55 
3 56 175 431 
3 175 55 430 
3 431 430 24 
3 22 432 433 
3 432 57 179 
3 433 179 59 
3 57 434 177 
3 434 25 435 
3 177 435 58 
3 59 178 437 
3 178 58 436 
3 437 436 26 
3 27 438 439 
3 438 60 182 
3 439 182 62 
3 60 440 180 
3 440 28 441 
3 180 441 61 
3 62 181 443 
3 181 61 442 
3 443 442 29 
3 27 444 445 
3 444 63 185 
3 445 185 65 
3 63 446 183 
3 446 30 447 
3 183 447 64 
3 65 184 449 
3 184 64 448 
3 449 448 31 
3 32 450 451 
3 450 66 188 
3 451 188 68 
3 66 452 186 
3 452 33 453 
3 186 453 67 
3 68 187 455 
3 187 67 454 
3 455 454 34 
3 32 456 457 
3 456 69 191 
3 457 191 71 
3 69 458 189 
3 458 35 459 
3 189 459 70 
3 71 190 461 
3 190 70 460 
3 461 460 36 
3 37 462 463 
3 462 72 194 
3 463 194 74 
3 72 464 192 
3 464 38 465 
3 192 465 73 
3 74 193 467 
3 193 73 466 
3 467 466 39 
3 37 468 469 
3 468 75 197 
3 469 197 77 
3 75 470 195 
3 470 40 471 
3 195 471 76 
3 77 196 473 
3 196 76 472 
3 473 472 41 
3 35 474 475 
3 474 78 200 
3 475 200 80 
3 78 476 198 
3 476 25 477 
3 198 477 79 
3 80 199 479 
3 199 79 478 
3 479 478 13 
3 16 480 481 
3 480 81 203 
3 481 203 83 
3 81 482 201 
3 482 29 483 
3 201 483 82 
3 83 202 485 
3 202 82 484 
3 485 484 36 
3 14 486 487 
3 486 84 206 
3 487 206 86 
3 84 488 204 
3 488 24 489 
3 204 489 85 
3 86 205 491 
3 205 85 490 
3 491 490 39 
3 38 492 493 
3 492 87 209 
3 493 209 89 
3 87 494 207 
3 494 30 495 
3 207 495 88 
3 89 208 497 
3 208 88 496 
3 497 496 15 
3 19 498 499 
3 498 90 212 
3 499 212 92 
3 90 500 210 
3 500 26 501 
3 210 501 91 
3 92 211 503 
3 211 91 502 
3 503 502 34 
3 33 504 505 
3 504 93 215 
3 505 215 95 
3 93 506 213 
3 506 28 507 
3 213 507 94 
3 95 214 509 
3 214 94 508 
3 509 508 20 
3 40 510 511 
3 510 96 218 
3 511 218 98 
3 96 512 216 
3 512 23 513 
3 216 513 97 
3 98 217 515 
3 217 97 514 
3 515 514 18 
3 21 516 517 
3 516 99 221 
3 517 221 101 
3 99 518 219 
3 518 31 519 
3 219 519 100 
3 101 220 521 
3 220 100 520 
3 521 520 41 
3 1 522 523 
3 522 102 224 
3 523 224 103 
3 102 524 222 
3 524 12 403 
3 222 403 44 
3 103 223 525 
3 223 44 407 
3 525 407 14 
3 12 526 402 
3 526 104 227 
3 402 227 42 
3 104 527 225 
3 527 0 528 
3 225 528 105 
3 42 226 404 
3 226 105 529 
3 404 529 13 
3 14 406 530 
3 406 43 230 
3 530 230 107 
3 43 405 228 
3 405 13 531 
3 228 531 106 
3 107 229 533 
3 229 106 532 
3 533 532 4 
3 0 527 534 
3 527 104 233 
3 534 233 108 
3 104 526 231 
3 526 12 409 
3 231 409 47 
3 108 232 535 
3 232 47 413 
3 535 413 16 
3 12 524 408 
3 524 102 236 
3 408 236 45 
3 102 522 234 
3 522 1 536 
3 234 536 109 
3 45 235 410 
3 235 109 537 
3 410 537 15 
3 16 412 538 
3 412 46 239 
3 538 239 111 
3 46 411 237 
3 411 15 539 
3 237 539 110 
3 111 238 541 
3 238 110 540 
3 541 540 6 
3 2 542 543 
3 542 112 242 
3 543 242 113 
3 112 544 240 
3 544 17 415 
3 240 415 50 
3 113 241 545 
3 241 50 419 
3 545 419 19 
3 17 546 414 
3 546 114 245 
3 414 245 48 
3 114 547 243 
3 547 3 548 
3 243 548 115 
3 48 244 416 
3 244 115 549 
3 416 549 18 
3 19 418 550 
3 418 49 248 
3 550 248 117 
3 49 417 246 
3 417 18 551 
3 246 551 116 
3 117 247 553 
3 247 116 552 
3 553 552 5 
3 3 547 554 
3 547 114 251 
3 554 251 118 
3 114 546 249 
3 546 17 421 
3 249 421 53 
3 118 250 555 
3 250 53 425 
3 555 425 21 
3 17 544 420 
3 544 112 254 
3 420 254 51 
3 112 542 252 
3 542 2 556 
3 252 556 119 
3 51 253 422 
3 253 119 557 
3 422 557 20 
3 21 424 558 
3 424 52 257 
3 558 257 121 
3 52 423 255 
3 423 20 559 
3 255 559 120 
3 121 256 561 
3 256 120 560 
3 561 560 7 
3 4 562 563 
3 562 122 260 
3 563 260 123 
3 122 564 258 
3 564 22 427 
3 258 427 56 
3 123 259 565 
3 259 56 431 
3 565 431 24 
3 22 566 426 
3 566 124 263 
3 426 263 54 
3 124 567 261 
3 567 5 568 
3 261 568 125 
3 54 262 428 
3 262 125 569 
3 428 569 23 
3 24 430 570 
3 430 55 266 
3 570 266 127 
3 55 429 264 
3 429 23 571 
3 264 571 126 
3 127 265 573 
3 265 126 572 
3 573 572 10 
3 5 567 574 
3 567 124 269 
3 574 269 128 
3 124 566 267 
3 566 22 433 
3 267 433 59 
3 128 268 575 
3 268 59 437 
3 575 437 26 
3 22 564 432 
3 564 122 272 
3 432 272 57 
3 122 562 270 
3 562 4 576 
3 270 576 129 
3 57 271 434 
3 271 129 577 
3 434 577 25 
3 26 436 578 
3 436 58 275 
3 578 275 131 
3 58 435 273 
3 435 25 579 
3 273 579 130 
3 131 274 581 
3 274 130 580 
3 581 580 8 
3 6 582 583 
3 582 132 278 
3 583 278 133 
3 132 584 276 
3 584 27 439 
3 276 439 62 
3 133 277 585 
3 277 62 443 
3 585 443 29 
3 27 586 438 
3 586 134 281 
3 438 281 60 
3 134 587 279 
3 587 7 588 
3 279 588 135 
3 60 280 440 
3 280 135 589 
3 440 589 28 
3 29 442 590 
3 442 61 284 
3 590 284 137 
3 61 441 282 
3 441 28 591 
3 282 591 136 
3 137 283 593 
3 283 136 592 
3 593 592 9 
3 7 587 594 
3 587 134 287 
3 594 287 138 
3 134 586 285 
3 586 27 445 
3 285 445 65 
3 138 286 595 
3 286 65 449 
3 595 449 31 
3 27 584 444 
3 584 132 290 
3 444 290 63 
3 132 582 288 
3 582 6 596 
3 288 596 139 
3 63 289 446 
3 289 139 597 
3 446 597 30 
3 31 448 598 
3 448 64 293 
3 598 293 141 
3 64 447 291 
3 447 30 599 
3 291 599 140 
3 141 292 601 
3 292 140 600 
3 601 600 11 
3 8 602 603 
3 602 142 296 
3 603 296 143 
3 142 604 294 
3 604 32 451 
3 294 451 68 
3 143 295 605 
3 295 68 455 
3 605 455 34 
3 32 606 450 
3 606 144 299 
3 450 299 66 
3 144 607 297 
3 607 9 608 
3 297 608 145 
3 66 298 452 
3 298 145 609 
3 452 609 33 
3 34 454 610 
3 454 67 302 
3 610 302 147 
3 67 453 300 
3 453 33 611 
3 300 611 146 
3 147 301 613 
3 301 146 612 
3 613 612 2 
3 9 607 614 
3 607 144 305 
3 614 305 148 
3 144 606 303 
3 606 32 457 
3 303 457 71 
3 148 304 615 
3 304 71 461 
3 615 461 36 
3 32 604 456 
3 604 142 308 
3 456 308 69 
3 142 602 306 
3 602 8 616 
3 306 616 149 
3 69 307 458 
3 307 149 617 
3 458 617 35 
3 36 460 618 
3 460 70 311 
3 618 311 151 
3 70 459 309 
3 459 35 619 
3 309 619 150 
3 151 310 621 
3 310 150 620 
3 621 620 0 
3 10 622 623 
3 622 152 314 
3 623 314 153 
3 152 624 312 
3 624 37 463 
3 312 463 74 
3 153 313 625 
3 313 74 467 
3 625 467 39 
3 37 626 462 
3 626 154 317 
3 462 317 72 
3 154 627 315 
3 627 11 628 
3 315 628 155 
3 72 316 464 
3 316 155 629 
3 464 629 38 
3 39 466 630 
3 466 73 320 
3 630 320 157 
3 73 465 318 
3 465 38 631 
3 318 631 156 
3 157 319 633 
3 319 156 632 
3 633 632 1 
3 11 627 634 
3 627 154 323 
3 634 323 158 
3 154 626 321 
3 626 37 469 
3 321 469 77 
3 158 322 635 
3 322 77 473 
3 635 473 41 
3 37 624 468 
3 624 152 326 
3 468 326 75 
3 152 622 324 
3 622 10 636 
3 324 636 159 
3 75 325 470 
3 325 159 637 
3 470 637 40 
3 41 472 638 
3 472 76 329 
3 638 329 161 
3 76 471 327 
3 471 40 639 
3 327 639 160 
3 161 328 641 
3 328 160 640 
3 641 640 3 
3 0 620 528 
3 620 150 332 
3 528 332 105 
3 150 619 330 
3 619 35 475 
3 330 475 80 
3 105 331 529 
3 331 80 479 
3 529 479 13 
3 35 617 474 
3 617 149 335 
3 474 335 78 
3 149 616 333 
3 616 8 580 
3 333 580 130 
3 78 334 476 
3 334 130 579 
3 476 579 25 
3 13 478 531 
3 478 79 338 
3 531 338 106 
3 79 477 336 
3 477 25 577 
3 336 577 129 
3 106 337 532 
3 337 129 576 
3 532 576 4 
3 0 534 621 
3 534 108 341 
3 621 341 151 
3 108 535 339 
3 535 16 481 
3 339 481 83 
3 151 340 618 
3 340 83 485 
3 618 485 36 
3 16 538 480 
3 538 111 344 
3 480 344 81 
3 111 541 342 
3 541 6 583 
3 342 583 133 
3 81 343 482 
3 343 133 585 
3 482 585 29 
3 36 484 615 
3 484 82 347 
3 615 347 148 
3 82 483 345 
3 483 29 590 
3 345 590 137 
3 148 346 614 
3 346 137 593 
3 614 593 9 
3 1 523 633 
3 523 103 350 
3 633 350 157 
3 103 525 348 
3 525 14 487 
3 348 487 86 
3 157 349 630 
3 349 86 491 
3 630 491 39 
3 14 530 486 
3 530 107 353 
3 486 353 84 
3 107 533 351 
3 533 4 563 
3 351 563 123 
3 84 352 488 
3 352 123 565 
3 488 565 24 
3 39 490 625 
3 490 85 356 
3 625 356 153 
3 85 489 354 
3 489 24 570 
3 354 570 127 
3 153 355 623 
3 355 127 573 
3 623 573 10 
3 1 632 536 
3 632 156 359 
3 536 359 109 
3 156 631 357 
3 631 38 493 
3 357 493 89 
3 109 358 537 
3 358 89 497 
3 537 497 15 
3 38 629 492 
3 629 155 362 
3 492 362 87 
3 155 628 360 
3 628 11 600 
3 360 600 140 
3 87 361 494 
3 361 140 599 
3 494 599 30 
3 15 496 539 
3 496 88 365 
3 539 365 110 
3 88 495 363 
3 495 30 597 
3 363 597 139 
3 110 364 540 
3 364 139 596 
3 540 596 6 
3 2 543 613 
3 543 113 368 
3 613 368 147 
3 113 545 366 
3 545 19 499 
3 366 499 92 
3 147 367 610 
3 367 92 503 
3 610 503 34 
3 19 550 498 
3 550 117 371 
3 498 371 90 
3 117 553 369 
3 553 5 574 
3 369 574 128 
3 90 370 500 
3 370 128 575 
3 500 575 26 
3 34 502 605 
3 502 91 374 
3 605 374 143 
3 91 501 372 
3 501 26 578 
3 372 578 131 
3 143 373 603 
3 373 131 581 
3 603 581 8 
3 2 612 556 
3 612 146 377 
3 556 377 119 
3 146 611 375 
3 611 33 505 
3 375 505 95 
3 119 376 557 
3 376 95 509 
3 557 509 20 
3 33 609 504 
3 609 145 380 
3 504 380 93 
3 145 608 378 
3 608 9 592 
3 378 592 136 
3 93 379 506 
3 379 136 591 
3 506 591 28 
3 20 508 559 
3 508 94 383 
3 559 383 120 
3 94 507 381 
3 507 28 589 
3 381 589 135 
3 120 382 560 
3 382 135 588 
3 560 588 7 
3 3 640 548 
3 640 160 386 
3 548 386 115 
3 160 639 384 
3 639 40 511 
3 384 511 98 
3 115 385 549 
3 385 98 515 
3 549 515 18 
3 40 637 510 
3 637 159 389 
3 510 389 96 
3 159 636 387 
3 636 10 572 
3 387 572 126 
3 96 388 512 
3 388 126 571 
3 512 571 23 
3 18 514 551 
3 514 97 392 
3 551 392 116 
3 97 513 390 
3 513 23 569 
3 390 569 125 
3 116 391 552 
3 391 125 568 
3 552 568 5 
3 3 554 641 
3 554 118 395 
3 641 395 161 
3 118 555 393 
3 555 21 517 
3 393 517 101 
3 161 394 638 
3 394 101 521 
3 638 521 41 
3 21 558 516 
3 558 121 398 
3 516 398 99 
3 121 561 396 
3 561 7 594 
3 396 594 138 
3 99 397 518 
3 397 138 595 
3 518 595 31 
3 41 520 635 
3 520 100 401 
3 635 401 158 
3 100 519 399 
3 519 31 598 
3 399 598 141 
3 158 400 634 
3 400 141 601 
3 634 601 11 
