ply
format ascii 1.0
comment VCGLIB generated
element vertex 642
property float x
property float y
property float z
element face 1280
property list uchar int vertex_indices
end_header
-0.00765833 0.832518 0.531355 
0.00460763 0.869328 -0.518022 
0.00829199 -0.882605 0.506487 
0.0387983 -0.869204 -0.531432 
0.809409 0.486919 -0.0264311 
0.855455 -0.527937 0.0206467 
-0.901433 0.534804 -0.00295425 
-0.873433 -0.522204 -0.00176827 
0.509161 -0.00689239 0.837426 
-0.500076 0.0068263 0.884414 
0.512606 -0.000832019 -0.835021 
-0.533232 0.00377561 -0.816344 
0.000207674 1.01207 0.00235275 
0.550246 0.790601 0.292816 
0.475263 0.818641 -0.294748 
-0.481886 0.754163 -0.296954 
-0.530521 0.772662 0.330153 
0.0358065 -0.989855 -0.044619 
0.464756 -0.815442 -0.291246 
0.451531 -0.789787 0.333614 
-0.514706 -0.802912 0.332782 
-0.499076 -0.810413 -0.281476 
1.03523 -0.00118863 0.0396081 
0.846601 -0.329242 -0.54809 
0.8304 0.333337 -0.469184 
0.775387 0.282169 0.475962 
0.78745 -0.297104 0.508889 
-1.00043 -0.0215625 -0.0502474 
-0.784785 -0.296541 0.51261 
-0.767014 0.342306 0.462558 
-0.8117 0.258318 -0.531337 
-0.857217 -0.358793 -0.532733 
-0.0206592 -0.0145449 0.966078 
-0.35935 -0.546243 0.824152 
0.279876 -0.52486 0.77919 
0.310692 0.441509 0.821624 
-0.331381 0.489224 0.833537 
-0.0134745 -0.0112066 -1.06632 
-0.303457 0.513025 -0.793584 
0.257905 0.485746 -0.760295 
0.289745 -0.447655 -0.810994 
-0.290345 -0.495854 -0.791488 
0.248805 0.934543 0.165444 
0.54703 0.853086 0.0260228 
0.230017 0.924351 -0.161297 
-0.256259 0.995307 -0.150506 
-0.575799 0.803256 -0.0681035 
-0.288413 0.959469 0.152432 
0.240276 -0.937084 -0.159463 
0.518575 -0.818508 0.0580251 
0.23515 -1.00747 0.203548 
-0.223277 -0.988796 0.207694 
-0.537895 -0.902451 -0.0405618 
-0.272045 -0.912276 -0.200586 
0.9679 -0.156527 -0.258416 
0.868656 0.0125396 -0.477031 
0.981016 0.194214 -0.26156 
0.912912 0.168666 0.272584 
0.802479 -0.0163833 0.549423 
0.975164 -0.185999 0.249418 
-0.938206 -0.144433 0.262288 
-0.865994 -0.0116667 0.487415 
-0.990448 0.138629 0.242031 
-0.961728 0.129449 -0.24492 
-0.830167 -0.0161675 -0.501853 
-0.926123 -0.160622 -0.295729 
-0.158108 -0.30035 0.949947 
0.00565802 -0.532078 0.855747 
0.177837 -0.248102 1.00905 
0.132246 0.301736 0.91623 
0.0256208 0.50817 0.903133 
-0.137416 0.299243 0.92259 
-0.175733 0.259851 -0.934072 
-0.034108 0.512045 -0.797395 
0.146298 0.269664 -0.98325 
0.170176 -0.231134 -0.91213 
-0.0251473 -0.558929 -0.849209 
-0.188717 -0.221124 -0.955961 
0.566625 0.413162 0.69805 
0.725026 0.61469 0.404773 
0.427334 0.671435 0.549671 
-0.702982 0.526791 0.423588 
-0.561761 0.420339 0.683439 
-0.451598 0.718379 0.569348 
0.645892 0.532529 -0.436965 
0.582575 0.447068 -0.737381 
0.459042 0.754068 -0.600891 
-0.552626 0.395664 -0.659555 
-0.727218 0.606245 -0.408853 
-0.454494 0.674203 -0.613689 
0.707752 -0.599765 0.451947 
0.569233 -0.382814 0.7231 
0.405036 -0.688938 0.548426 
-0.543544 -0.452345 0.67902 
-0.662387 -0.587822 0.430181 
-0.480443 -0.693438 0.614383 
0.55276 -0.466137 -0.664998 
0.709342 -0.593438 -0.431794 
0.40583 -0.732871 -0.575795 
-0.621931 -0.592351 -0.427323 
-0.616712 -0.41033 -0.702168 
-0.42763 -0.691748 -0.628533 
-0.0366775 1.00737 -0.245479 
0.253137 0.883062 -0.433121 
-0.0159253 0.938854 0.273998 
0.248822 0.853748 0.429373 
0.717574 0.719116 0.184577 
0.740767 0.670985 -0.14232 
-0.22764 0.88966 0.476793 
-0.284931 0.886638 -0.464832 
-0.729083 0.688824 -0.107289 
-0.673777 0.686519 0.141116 
-0.0124785 -0.936595 0.299195 
0.275201 -0.84408 0.410929 
0.0160769 -0.959275 -0.250029 
0.207418 -0.871075 -0.488854 
0.714339 -0.686659 -0.120969 
0.738294 -0.717221 0.108197 
-0.274624 -0.853857 -0.39004 
-0.23172 -0.878896 0.432424 
-0.704818 -0.667762 0.154201 
-0.720767 -0.639493 -0.174305 
0.923711 0.315075 -0.0576215 
0.85037 0.421724 -0.229643 
0.995962 -0.269354 -0.0363692 
0.850648 -0.48245 -0.304668 
0.696077 -0.196891 -0.670419 
0.73573 0.160601 -0.693859 
0.852193 -0.448642 0.276891 
0.896041 0.378025 0.260664 
0.725689 0.171269 0.659555 
0.649986 -0.168696 0.713842 
-0.950134 0.226965 0.0536044 
-0.839203 0.444571 0.23205 
-0.977506 -0.22856 -0.0239289 
-0.845323 -0.470484 0.256684 
-0.651929 -0.194921 0.66257 
-0.689584 0.168272 0.662549 
-0.850285 -0.436715 -0.244861 
-0.833286 0.395153 -0.231442 
-0.663626 0.153795 -0.732232 
-0.706118 -0.211244 -0.671024 
0.272725 0.0304646 1.01594 
0.41767 -0.275244 0.858072 
-0.317327 -0.0309199 0.932767 
-0.432596 -0.273467 0.866183 
-0.162538 -0.67377 0.662995 
0.188512 -0.669573 0.670645 
-0.376214 0.235467 0.905989 
0.437312 0.26485 0.867253 
0.123213 0.737159 0.691538 
-0.158934 0.65554 0.710198 
0.236695 -0.0470477 -0.984338 
0.45132 0.265907 -0.831139 
-0.260431 0.0312366 -0.961328 
-0.380943 0.223139 -0.875633 
-0.173444 0.73266 -0.747751 
0.186297 0.691267 -0.645995 
-0.431349 -0.282279 -0.90859 
0.479749 -0.209573 -0.903632 
0.211067 -0.758418 -0.699631 
-0.181702 -0.687448 -0.746138 
0.394945 0.891009 0.0522007 
0.441827 0.90844 -0.0371492 
0.270873 0.972154 0.00712898 
-0.394529 0.904939 -0.0426656 
-0.407494 0.892117 0.0833128 
-0.25898 0.968671 -0.00978969 
0.385535 -0.905634 -0.1145 
0.408895 -0.929056 0.100466 
0.304011 -0.998772 0.0310527 
-0.367852 -0.899691 0.0586924 
-0.420209 -0.904352 -0.127928 
-0.247847 -0.982293 0.0191349 
0.907432 -0.0962871 -0.372179 
0.914561 0.14272 -0.380222 
1.0051 -0.016772 -0.267886 
0.885926 0.0729767 0.402935 
0.945419 -0.105742 0.410284 
0.964121 -0.0141304 0.261009 
-0.89458 -0.0588475 0.359301 
-0.863527 0.0682732 0.372593 
-0.938037 0.0346299 0.24802 
-0.932763 0.0662289 -0.367141 
-0.913629 -0.103968 -0.450386 
-1.00636 -0.020066 -0.32607 
-0.105439 -0.378436 0.905828 
0.127009 -0.405492 0.965763 
-0.0212682 -0.239854 0.923941 
0.0717327 0.426418 0.928214 
-0.0983103 0.44482 0.882408 
0.0129889 0.291791 0.988518 
-0.096349 0.381536 -0.922978 
0.0499139 0.431037 -0.939072 
5.63283e-05 0.227906 -0.942314 
0.100882 -0.411324 -0.911501 
-0.0541475 -0.365157 -0.959613 
-0.0482608 -0.256552 -0.947095 
0.651097 0.571242 0.53829 
0.528853 0.624572 0.514222 
0.562488 0.595544 0.623356 
-0.62804 0.488372 0.566419 
-0.470181 0.525225 0.630671 
-0.531055 0.644421 0.528898 
0.653687 0.511275 -0.58723 
0.47275 0.580713 -0.611989 
0.594391 0.691212 -0.513619 
-0.593789 0.509749 -0.554644 
-0.563981 0.647471 -0.515181 
-0.539066 0.529746 -0.670389 
0.621733 -0.498771 0.571732 
0.534591 -0.531112 0.629052 
0.518352 -0.639524 0.526103 
-0.639105 -0.542404 0.574825 
-0.610541 -0.599216 0.521845 
-0.513357 -0.557518 0.671506 
0.611904 -0.545784 -0.563974 
0.598619 -0.695479 -0.516721 
0.488068 -0.5436 -0.649031 
-0.67369 -0.518412 -0.531933 
-0.495017 -0.594136 -0.599652 
-0.538418 -0.655244 -0.50259 
0.141103 0.981106 -0.202277 
0.215838 0.869148 -0.312448 
0.0939813 0.900204 -0.322056 
0.171733 0.900223 0.331856 
0.259807 0.926771 0.311759 
0.128797 0.942002 0.181715 
0.612898 0.799788 0.0633941 
0.701487 0.695378 0.0464972 
0.642767 0.791033 -0.133808 
-0.132621 1.00306 0.228067 
-0.253126 0.891938 0.323922 
-0.102859 0.921036 0.333796 
-0.114048 0.952644 -0.33748 
-0.210303 0.915379 -0.304592 
-0.174668 0.961252 -0.212923 
-0.651615 0.771068 -0.0983391 
-0.711777 0.686429 0.00238654 
-0.638483 0.753932 0.0759995 
0.0917647 -0.970138 0.225804 
0.239671 -0.919819 0.343611 
0.115193 -0.916922 0.306993 
0.137856 -0.888126 -0.343452 
0.245851 -0.93174 -0.327424 
0.135309 -0.997391 -0.247147 
0.619423 -0.783796 -0.113313 
0.717659 -0.668593 0.0279739 
0.60942 -0.815667 0.0926374 
-0.0719438 -0.950816 -0.234894 
-0.277658 -0.941696 -0.319781 
-0.139544 -0.904886 -0.380326 
-0.166474 -0.990631 0.343514 
-0.280856 -0.907088 0.322723 
-0.134789 -0.975469 0.226085 
-0.648401 -0.786764 0.0561115 
-0.697192 -0.710283 0.0406596 
-0.569039 -0.781203 -0.0754498 
0.976285 0.208299 -0.0932813 
0.937633 0.281007 -0.278277 
0.930916 0.324401 -0.10202 
0.912394 -0.330663 -0.151883 
0.951518 -0.23923 -0.281355 
0.986952 -0.244144 -0.140909 
0.822228 -0.107164 -0.56815 
0.681617 0.0150979 -0.665752 
0.803166 0.0410479 -0.582085 
0.960732 -0.278292 0.100666 
0.916276 -0.280259 0.28942 
0.963847 -0.315841 0.136741 
0.880371 0.337946 0.102914 
0.901946 0.338347 0.262907 
1.00115 0.223198 0.124364 
0.728406 0.104782 0.587784 
0.712274 -0.00361774 0.722086 
0.772379 -0.0367674 0.576859 
-0.99797 0.218171 0.1186 
-0.909667 0.293652 0.260998 
-0.949854 0.350654 0.14957 
-0.924516 -0.395543 0.122676 
-0.91137 -0.313225 0.234821 
-0.920977 -0.1771 0.140619 
-0.735965 -0.0726505 0.631146 
-0.736378 0.0259749 0.745829 
-0.776849 0.047202 0.651169 
-1.02152 -0.1926 -0.126771 
-0.945465 -0.305319 -0.260007 
-0.967718 -0.355712 -0.135186 
-0.901521 0.335197 -0.142761 
-0.944828 0.278015 -0.243221 
-0.934674 0.201748 -0.123897 
-0.777748 0.0389061 -0.637609 
-0.692624 0.00200389 -0.720159 
-0.828297 -0.112609 -0.603142 
0.275853 -0.0916228 0.94955 
0.318642 -0.208754 0.926919 
0.381634 -0.17483 0.861637 
-0.40003 -0.148961 0.933436 
-0.346591 -0.258605 0.902343 
-0.207272 -0.155899 0.929248 
-0.116717 -0.611628 0.793972 
-0.0266798 -0.700214 0.743721 
0.106375 -0.598889 0.753741 
-0.203761 0.10605 0.977743 
-0.267806 0.293077 0.899483 
-0.341618 0.178033 0.89359 
0.385514 0.132156 0.919697 
0.335158 0.292064 0.963613 
0.263147 0.184724 0.949957 
0.110271 0.615734 0.809944 
-0.00801611 0.740483 0.741259 
-0.144672 0.622761 0.760342 
0.266683 0.160547 -0.964904 
0.321362 0.238911 -0.941498 
0.3204 0.139936 -0.920564 
-0.343537 0.156547 -0.943468 
-0.317282 0.246977 -0.934907 
-0.171465 0.149586 -0.957074 
-0.0544031 0.610781 -0.788236 
0.0103031 0.730952 -0.715445 
0.0519027 0.562612 -0.763541 
-0.211005 -0.184668 -0.947209 
-0.312009 -0.269392 -0.938588 
-0.36749 -0.116862 -0.902538 
0.323714 -0.154691 -0.963539 
0.270485 -0.272426 -0.930587 
0.239461 -0.157159 -0.997841 
0.0818228 -0.595954 -0.79486 
0.00999932 -0.729539 -0.657739 
-0.0791745 -0.558912 -0.784648 
0.285434 0.665116 0.654622 
0.352246 0.75537 0.540738 
0.169018 0.8231 0.590558 
0.574185 0.234212 0.757467 
0.672112 0.282679 0.713374 
0.501587 0.371335 0.716891 
0.754574 0.491366 0.324508 
0.801605 0.547177 0.215663 
0.69661 0.633336 0.280388 
-0.306685 0.771343 0.561832 
-0.330262 0.748913 0.655929 
-0.24007 0.776063 0.551688 
-0.79508 0.579942 0.22391 
-0.835858 0.527745 0.378229 
-0.720616 0.614453 0.245473 
-0.654653 0.248511 0.676961 
-0.575772 0.205933 0.811826 
-0.542287 0.348019 0.778554 
0.322628 0.779618 -0.535095 
0.256863 0.668662 -0.609211 
0.219592 0.794026 -0.55573 
0.807735 0.614864 -0.214087 
0.778974 0.557303 -0.338526 
0.708719 0.636187 -0.276754 
0.685897 0.266474 -0.716018 
0.628488 0.245533 -0.784569 
0.548009 0.374142 -0.782461 
-0.314222 0.704134 -0.644555 
-0.299986 0.761751 -0.517099 
-0.255111 0.801089 -0.536595 
-0.575139 0.228031 -0.825897 
-0.635777 0.326099 -0.691946 
-0.505551 0.371769 -0.801189 
-0.765254 0.478865 -0.375115 
-0.824483 0.57248 -0.202233 
-0.747852 0.636594 -0.321987 
0.377973 -0.762382 0.518128 
0.328815 -0.699458 0.651243 
0.24869 -0.74363 0.553382 
0.758057 -0.633603 0.203592 
0.783517 -0.513078 0.35173 
0.738409 -0.632734 0.331676 
0.624592 -0.270756 0.694316 
0.599977 -0.238858 0.816681 
0.515885 -0.403823 0.73943 
-0.285452 -0.73624 0.661854 
-0.361583 -0.785562 0.482352 
-0.226446 -0.831231 0.540334 
-0.580844 -0.215937 0.741468 
-0.674874 -0.264229 0.65806 
-0.483733 -0.314312 0.742245 
-0.814767 -0.517464 0.388906 
-0.857575 -0.526132 0.211743 
-0.705947 -0.642848 0.268889 
0.247117 -0.697983 -0.662915 
0.322525 -0.837853 -0.496272 
0.203837 -0.793199 -0.553513 
0.597578 -0.226995 -0.813491 
0.642821 -0.319569 -0.726066 
0.529632 -0.327897 -0.775432 
0.821994 -0.534759 -0.306293 
0.789984 -0.551923 -0.243787 
0.742398 -0.623727 -0.281649 
-0.376626 -0.832686 -0.497202 
-0.284311 -0.73115 -0.693447 
-0.216832 -0.775836 -0.602407 
-0.776609 -0.563624 -0.244728 
-0.818955 -0.551449 -0.322548 
-0.689373 -0.618048 -0.295964 
-0.658232 -0.253131 -0.684014 
-0.574052 -0.200889 -0.792991 
-0.548344 -0.336684 -0.764464 
0.139366 0.967963 0.124915 
0.153722 1.00677 -0.0888044 
0.356476 0.852502 0.203275 
0.512793 0.867146 0.137846 
0.481638 0.883186 -0.167395 
0.386144 0.898512 -0.215683 
-0.10951 1.00813 -0.0991668 
-0.109469 0.99731 0.0389098 
-0.413572 0.828546 -0.200594 
-0.546984 0.814777 -0.178165 
-0.527997 0.821072 0.184261 
-0.421536 0.892552 0.216306 
0.160443 -0.946573 -0.0738364 
0.125041 -0.953038 0.0483347 
0.359568 -0.893977 -0.229577 
0.55096 -0.843191 -0.139829 
0.504672 -0.81963 0.193481 
0.354677 -0.916139 0.216064 
-0.138632 -0.970923 0.0664511 
-0.169831 -0.998649 -0.0541526 
-0.375396 -0.910705 0.247661 
-0.549923 -0.825943 0.166964 
-0.572294 -0.798571 -0.104789 
-0.361535 -0.85743 -0.221663 
1.04772 -0.0752857 -0.119027 
0.987533 0.120901 -0.12204 
0.907457 -0.214604 -0.42389 
0.824393 -0.163872 -0.512811 
0.871062 0.143435 -0.496046 
0.906099 0.258199 -0.443217 
0.961589 0.112556 0.125625 
0.970573 -0.0825929 0.13986 
0.884421 0.185291 0.365301 
0.815957 0.196983 0.462666 
0.832971 -0.125141 0.469623 
0.828562 -0.207539 0.375211 
-0.96982 -0.103936 0.146167 
-1.00752 0.114046 0.138729 
-0.835112 -0.245271 0.378846 
-0.830352 -0.147936 0.53144 
-0.8181 0.208116 0.492472 
-0.876375 0.273244 0.428332 
-0.966268 0.110224 -0.144312 
-0.987154 -0.0784823 -0.173046 
-0.947064 0.23523 -0.325587 
-0.876589 0.159825 -0.496802 
-0.818284 -0.135175 -0.518496 
-0.925298 -0.237252 -0.422903 
-0.110876 -0.145034 1.01366 
0.11555 -0.135208 0.952878 
-0.26247 -0.435529 0.907878 
-0.207015 -0.484686 0.891616 
0.147999 -0.532547 0.850315 
0.219 -0.398941 0.904904 
0.0918726 0.133542 0.998139 
-0.0812941 0.166413 1.00153 
0.262082 0.372141 0.856825 
0.11132 0.540203 0.807421 
-0.168982 0.511569 0.86474 
-0.225252 0.411805 0.844149 
-0.103628 0.134895 -1.0146 
0.077728 0.084315 -0.980032 
-0.191754 0.328996 -0.896638 
-0.168656 0.511672 -0.858564 
0.15811 0.521302 -0.858093 
0.250803 0.389179 -0.944862 
0.038928 -0.106675 -0.986308 
-0.0904568 -0.0825068 -0.965364 
0.266987 -0.417453 -0.945654 
0.209307 -0.537099 -0.799926 
-0.150419 -0.558484 -0.798102 
-0.259578 -0.360646 -0.897686 
0.440746 0.471613 0.763346 
0.352872 0.592462 0.70493 
0.739127 0.433667 0.601368 
0.772041 0.458754 0.471289 
0.631032 0.737838 0.401003 
0.430059 0.780452 0.464528 
-0.617547 0.688652 0.35102 
-0.469842 0.792353 0.415422 
-0.719095 0.494424 0.459918 
-0.695472 0.391281 0.618531 
-0.449036 0.405436 0.708866 
-0.430665 0.588914 0.718281 
0.60969 0.72654 -0.367937 
0.476486 0.722192 -0.514697 
0.699568 0.447778 -0.498405 
0.677994 0.396447 -0.60896 
0.504698 0.477083 -0.783849 
0.332446 0.608742 -0.767884 
-0.462579 0.514512 -0.708998 
-0.319566 0.589935 -0.707918 
-0.707177 0.365137 -0.596024 
-0.737793 0.457745 -0.47554 
-0.639467 0.71905 -0.359426 
-0.433302 0.777934 -0.477412 
0.645204 -0.676193 0.342114 
0.482157 -0.756134 0.449056 
0.764204 -0.470764 0.472149 
0.687462 -0.358542 0.612461 
0.44285 -0.463812 0.814977 
0.340263 -0.613983 0.683301 
-0.486287 -0.480983 0.727519 
-0.398567 -0.663194 0.749727 
-0.671755 -0.402125 0.586782 
-0.710261 -0.449239 0.47371 
-0.64653 -0.727934 0.33866 
-0.47381 -0.765036 0.422704 
0.443676 -0.469262 -0.736713 
0.365152 -0.621978 -0.672679 
0.71147 -0.403365 -0.631737 
0.750059 -0.44781 -0.441866 
0.569818 -0.663941 -0.357738 
0.475613 -0.741589 -0.432391 
-0.62098 -0.655408 -0.380525 
-0.433346 -0.727845 -0.458016 
-0.717571 -0.468929 -0.493283 
-0.769112 -0.392067 -0.633455 
-0.478001 -0.499063 -0.790721 
-0.374536 -0.569449 -0.691087 
0.0316399 0.882177 -0.349671 
0.132604 0.893468 -0.493859 
0.0279675 0.987296 -0.173485 
0.35631 0.847951 -0.394225 
-0.00570465 0.974999 0.101182 
-0.0144817 0.865406 0.396676 
0.181975 0.855656 0.462824 
0.409535 0.841915 0.402385 
0.600792 0.732646 -0.171092 
0.637289 0.729857 0.265851 
0.830327 0.618487 0.146267 
0.81473 0.619891 -0.0566486 
-0.109731 0.827864 0.505736 
-0.397677 0.848824 0.331091 
-0.0951685 0.864137 -0.474547 
-0.384352 0.828637 -0.3455 
-0.614243 0.724871 0.257353 
-0.63586 0.750792 -0.218817 
-0.785532 0.601749 -0.0888232 
-0.788819 0.632213 0.113836 
0.0237883 -0.921271 0.438951 
0.150887 -0.84027 0.455004 
0.0441245 -1.01359 0.140731 
0.379751 -0.811847 0.382729 
0.0214709 -0.991624 -0.131054 
-0.0379167 -0.916967 -0.411731 
0.122823 -0.87427 -0.526599 
0.395502 -0.813005 -0.355774 
0.636983 -0.798717 0.242457 
0.629247 -0.803693 -0.215145 
0.769733 -0.636895 -0.0653722 
0.805328 -0.617208 0.0521773 
-0.139154 -0.891652 -0.536504 
-0.388788 -0.874498 -0.325754 
-0.128684 -0.874045 0.463259 
-0.3742 -0.890944 0.421214 
-0.675069 -0.74478 -0.269533 
-0.647944 -0.732891 0.235546 
-0.736416 -0.629005 0.039481 
-0.731045 -0.606583 -0.0984504 
0.920501 0.398304 -0.0386165 
0.816819 0.500875 -0.171383 
0.982702 0.146432 0.0023767 
0.853394 0.378344 -0.342541 
0.979924 -0.132131 0.0319571 
0.883345 -0.38812 0.0542071 
0.879407 -0.468168 -0.132403 
0.895224 -0.330602 -0.428337 
0.808424 0.259668 -0.59563 
0.766819 -0.230989 -0.586571 
0.606445 -0.138813 -0.837922 
0.63711 0.0445317 -0.752207 
0.846215 -0.528733 0.102034 
0.827574 -0.340566 0.357752 
0.820382 0.508399 0.180442 
0.831322 0.367298 0.378808 
0.730987 -0.230349 0.618293 
0.799067 0.225854 0.593447 
0.611333 0.0503443 0.793046 
0.622529 -0.103662 0.729862 
-0.887902 0.371583 -0.0424257 
-0.822586 0.543419 0.121502 
-0.985742 0.108933 0.0152921 
-0.799099 0.398964 0.364097 
-0.971488 -0.158574 0.00444047 
-0.916133 -0.436567 0.0659821 
-0.870824 -0.476036 0.134638 
-0.838339 -0.326218 0.375819 
-0.766458 0.281598 0.568289 
-0.757254 -0.25497 0.614995 
-0.598943 -0.0718295 0.829522 
-0.572087 0.0634046 0.819217 
-0.900354 -0.497426 -0.124845 
-0.864044 -0.34321 -0.353333 
-0.835297 0.535221 -0.190823 
-0.879121 0.355446 -0.407166 
-0.72788 -0.262574 -0.621971 
-0.793724 0.286454 -0.573151 
-0.658508 0.0533662 -0.77494 
-0.627763 -0.0381261 -0.723542 
0.399405 -0.00962268 0.915319 
0.456888 -0.16655 0.847524 
0.076491 -0.001492 0.960049 
0.319933 -0.335956 0.845349 
-0.0934954 0.00800735 0.973374 
-0.418521 -0.0272021 0.947668 
-0.52316 -0.12763 0.872067 
-0.359621 -0.345833 0.900416 
0.216896 -0.611911 0.718155 
-0.248373 -0.624032 0.761115 
-0.101354 -0.805 0.608482 
0.0610945 -0.763272 0.642415 
-0.452557 0.159592 0.820928 
-0.373544 0.426181 0.778285 
0.487374 0.148943 0.876593 
0.360906 0.38619 0.897655 
-0.287877 0.639966 0.746684 
0.193433 0.655384 0.715183 
0.0246558 0.74293 0.636369 
-0.108732 0.731643 0.619162 
0.447454 -0.00318575 -0.863399 
0.452098 0.177305 -0.861996 
0.201663 0.00870677 -1.0284 
0.325466 0.324533 -0.839301 
-0.183869 0.0131327 -0.968086 
-0.368326 -0.00100024 -0.959396 
-0.464951 0.148692 -0.876141 
-0.367517 0.426734 -0.875846 
0.270421 0.593515 -0.762218 
-0.183025 0.635151 -0.745136 
-0.0927872 0.786985 -0.674594 
0.12103 0.754642 -0.559207 
-0.510847 -0.165972 -0.86907 
-0.370119 -0.398676 -0.837851 
0.493972 -0.122897 -0.845736 
0.406922 -0.340281 -0.825718 
-0.249555 -0.613284 -0.79225 
0.213406 -0.605762 -0.749129 
0.0254718 -0.818728 -0.619429 
-0.0709845 -0.833949 -0.591103 
3 162 163 164 
3 165 166 167 
3 168 169 170 
3 171 172 173 
3 174 175 176 
3 177 178 179 
3 180 181 182 
3 183 184 185 
3 186 187 188 
3 189 190 191 
3 192 193 194 
3 195 196 197 
3 198 199 200 
3 201 202 203 
3 204 205 206 
3 207 208 209 
3 210 211 212 
3 213 214 215 
3 216 217 218 
3 219 220 221 
3 222 223 224 
3 225 226 227 
3 228 229 230 
3 231 232 233 
3 234 235 236 
3 237 238 239 
3 240 241 242 
3 243 244 245 
3 246 247 248 
3 249 250 251 
3 252 253 254 
3 255 256 257 
3 258 259 260 
3 261 262 263 
3 264 265 266 
3 267 268 269 
3 270 271 272 
3 273 274 275 
3 276 277 278 
3 279 280 281 
3 282 283 284 
3 285 286 287 
3 288 289 290 
3 291 292 293 
3 294 295 296 
3 297 298 299 
3 300 301 302 
3 303 304 305 
3 306 307 308 
3 309 310 311 
3 312 313 314 
3 315 316 317 
3 318 319 320 
3 321 322 323 
3 324 325 326 
3 327 328 329 
3 330 331 332 
3 333 334 335 
3 336 337 338 
3 339 340 341 
3 342 343 344 
3 345 346 347 
3 348 349 350 
3 351 352 353 
3 354 355 356 
3 357 358 359 
3 360 361 362 
3 363 364 365 
3 366 367 368 
3 369 370 371 
3 372 373 374 
3 375 376 377 
3 378 379 380 
3 381 382 383 
3 384 385 386 
3 387 388 389 
3 390 391 392 
3 393 394 395 
3 396 397 398 
3 399 400 401 
3 402 164 403 
3 404 405 162 
3 163 406 407 
3 408 167 409 
3 410 411 165 
3 166 412 413 
3 414 170 415 
3 416 417 168 
3 169 418 419 
3 420 173 421 
3 422 423 171 
3 172 424 425 
3 426 176 427 
3 428 429 174 
3 175 430 431 
3 432 179 433 
3 434 435 177 
3 178 436 437 
3 438 182 439 
3 440 441 180 
3 181 442 443 
3 444 185 445 
3 446 447 183 
3 184 448 449 
3 450 188 451 
3 452 453 186 
3 187 454 455 
3 456 191 457 
3 458 459 189 
3 190 460 461 
3 462 194 463 
3 464 465 192 
3 193 466 467 
3 468 197 469 
3 470 471 195 
3 196 472 473 
3 474 200 475 
3 476 477 198 
3 199 478 479 
3 480 203 481 
3 482 483 201 
3 202 484 485 
3 486 206 487 
3 488 489 204 
3 205 490 491 
3 492 209 493 
3 494 495 207 
3 208 496 497 
3 498 212 499 
3 500 501 210 
3 211 502 503 
3 504 215 505 
3 506 507 213 
3 214 508 509 
3 510 218 511 
3 512 513 216 
3 217 514 515 
3 516 221 517 
3 518 519 219 
3 220 520 521 
3 522 224 523 
3 524 403 222 
3 223 407 525 
3 526 227 402 
3 527 528 225 
3 226 529 404 
3 406 230 530 
3 405 531 228 
3 229 532 533 
3 527 233 534 
3 526 409 231 
3 232 413 535 
3 524 236 408 
3 522 536 234 
3 235 537 410 
3 412 239 538 
3 411 539 237 
3 238 540 541 
3 542 242 543 
3 544 415 240 
3 241 419 545 
3 546 245 414 
3 547 548 243 
3 244 549 416 
3 418 248 550 
3 417 551 246 
3 247 552 553 
3 547 251 554 
3 546 421 249 
3 250 425 555 
3 544 254 420 
3 542 556 252 
3 253 557 422 
3 424 257 558 
3 423 559 255 
3 256 560 561 
3 562 260 563 
3 564 427 258 
3 259 431 565 
3 566 263 426 
3 567 568 261 
3 262 569 428 
3 430 266 570 
3 429 571 264 
3 265 572 573 
3 567 269 574 
3 566 433 267 
3 268 437 575 
3 564 272 432 
3 562 576 270 
3 271 577 434 
3 436 275 578 
3 435 579 273 
3 274 580 581 
3 582 278 583 
3 584 439 276 
3 277 443 585 
3 586 281 438 
3 587 588 279 
3 280 589 440 
3 442 284 590 
3 441 591 282 
3 283 592 593 
3 587 287 594 
3 586 445 285 
3 286 449 595 
3 584 290 444 
3 582 596 288 
3 289 597 446 
3 448 293 598 
3 447 599 291 
3 292 600 601 
3 602 296 603 
3 604 451 294 
3 295 455 605 
3 606 299 450 
3 607 608 297 
3 298 609 452 
3 454 302 610 
3 453 611 300 
3 301 612 613 
3 607 305 614 
3 606 457 303 
3 304 461 615 
3 604 308 456 
3 602 616 306 
3 307 617 458 
3 460 311 618 
3 459 619 309 
3 310 620 621 
3 622 314 623 
3 624 463 312 
3 313 467 625 
3 626 317 462 
3 627 628 315 
3 316 629 464 
3 466 320 630 
3 465 631 318 
3 319 632 633 
3 627 323 634 
3 626 469 321 
3 322 473 635 
3 624 326 468 
3 622 636 324 
3 325 637 470 
3 472 329 638 
3 471 639 327 
3 328 640 641 
3 620 332 528 
3 619 475 330 
3 331 479 529 
3 617 335 474 
3 616 580 333 
3 334 579 476 
3 478 338 531 
3 477 577 336 
3 337 576 532 
3 534 341 621 
3 535 481 339 
3 340 485 618 
3 538 344 480 
3 541 583 342 
3 343 585 482 
3 484 347 615 
3 483 590 345 
3 346 593 614 
3 523 350 633 
3 525 487 348 
3 349 491 630 
3 530 353 486 
3 533 563 351 
3 352 565 488 
3 490 356 625 
3 489 570 354 
3 355 573 623 
3 632 359 536 
3 631 493 357 
3 358 497 537 
3 629 362 492 
3 628 600 360 
3 361 599 494 
3 496 365 539 
3 495 597 363 
3 364 596 540 
3 543 368 613 
3 545 499 366 
3 367 503 610 
3 550 371 498 
3 553 574 369 
3 370 575 500 
3 502 374 605 
3 501 578 372 
3 373 581 603 
3 612 377 556 
3 611 505 375 
3 376 509 557 
3 609 380 504 
3 608 592 378 
3 379 591 506 
3 508 383 559 
3 507 589 381 
3 382 588 560 
3 640 386 548 
3 639 511 384 
3 385 515 549 
3 637 389 510 
3 636 572 387 
3 388 571 512 
3 514 392 551 
3 513 569 390 
3 391 568 552 
3 554 395 641 
3 555 517 393 
3 394 521 638 
3 558 398 516 
3 561 594 396 
3 397 595 518 
3 520 401 635 
3 519 598 399 
3 400 601 634 
3 42 162 164 
3 162 43 163 
3 164 163 44 
3 45 165 167 
3 165 46 166 
3 167 166 47 
3 48 168 170 
3 168 49 169 
3 170 169 50 
3 51 171 173 
3 171 52 172 
3 173 172 53 
3 54 174 176 
3 174 55 175 
3 176 175 56 
3 57 177 179 
3 177 58 178 
3 179 178 59 
3 60 180 182 
3 180 61 181 
3 182 181 62 
3 63 183 185 
3 183 64 184 
3 185 184 65 
3 66 186 188 
3 186 67 187 
3 188 187 68 
3 69 189 191 
3 189 70 190 
3 191 190 71 
3 72 192 194 
3 192 73 193 
3 194 193 74 
3 75 195 197 
3 195 76 196 
3 197 196 77 
3 78 198 200 
3 198 79 199 
3 200 199 80 
3 81 201 203 
3 201 82 202 
3 203 202 83 
3 84 204 206 
3 204 85 205 
3 206 205 86 
3 87 207 209 
3 207 88 208 
3 209 208 89 
3 90 210 212 
3 210 91 211 
3 212 211 92 
3 93 213 215 
3 213 94 214 
3 215 214 95 
3 96 216 218 
3 216 97 217 
3 218 217 98 
3 99 219 221 
3 219 100 220 
3 221 220 101 
3 102 222 224 
3 222 44 223 
3 224 223 103 
3 104 225 227 
3 225 105 226 
3 227 226 42 
3 43 228 230 
3 228 106 229 
3 230 229 107 
3 104 231 233 
3 231 47 232 
3 233 232 108 
3 102 234 236 
3 234 109 235 
3 236 235 45 
3 46 237 239 
3 237 110 238 
3 239 238 111 
3 112 240 242 
3 240 50 241 
3 242 241 113 
3 114 243 245 
3 243 115 244 
3 245 244 48 
3 49 246 248 
3 246 116 247 
3 248 247 117 
3 114 249 251 
3 249 53 250 
3 251 250 118 
3 112 252 254 
3 252 119 253 
3 254 253 51 
3 52 255 257 
3 255 120 256 
3 257 256 121 
3 122 258 260 
3 258 56 259 
3 260 259 123 
3 124 261 263 
3 261 125 262 
3 263 262 54 
3 55 264 266 
3 264 126 265 
3 266 265 127 
3 124 267 269 
3 267 59 268 
3 269 268 128 
3 122 270 272 
3 270 129 271 
3 272 271 57 
3 58 273 275 
3 273 130 274 
3 275 274 131 
3 132 276 278 
3 276 62 277 
3 278 277 133 
3 134 279 281 
3 279 135 280 
3 281 280 60 
3 61 282 284 
3 282 136 283 
3 284 283 137 
3 134 285 287 
3 285 65 286 
3 287 286 138 
3 132 288 290 
3 288 139 289 
3 290 289 63 
3 64 291 293 
3 291 140 292 
3 293 292 141 
3 142 294 296 
3 294 68 295 
3 296 295 143 
3 144 297 299 
3 297 145 298 
3 299 298 66 
3 67 300 302 
3 300 146 301 
3 302 301 147 
3 144 303 305 
3 303 71 304 
3 305 304 148 
3 142 306 308 
3 306 149 307 
3 308 307 69 
3 70 309 311 
3 309 150 310 
3 311 310 151 
3 152 312 314 
3 312 74 313 
3 314 313 153 
3 154 315 317 
3 315 155 316 
3 317 316 72 
3 73 318 320 
3 318 156 319 
3 320 319 157 
3 154 321 323 
3 321 77 322 
3 323 322 158 
3 152 324 326 
3 324 159 325 
3 326 325 75 
3 76 327 329 
3 327 160 328 
3 329 328 161 
3 150 330 332 
3 330 80 331 
3 332 331 105 
3 149 333 335 
3 333 130 334 
3 335 334 78 
3 79 336 338 
3 336 129 337 
3 338 337 106 
3 108 339 341 
3 339 83 340 
3 341 340 151 
3 111 342 344 
3 342 133 343 
3 344 343 81 
3 82 345 347 
3 345 137 346 
3 347 346 148 
3 103 348 350 
3 348 86 349 
3 350 349 157 
3 107 351 353 
3 351 123 352 
3 353 352 84 
3 85 354 356 
3 354 127 355 
3 356 355 153 
3 156 357 359 
3 357 89 358 
3 359 358 109 
3 155 360 362 
3 360 140 361 
3 362 361 87 
3 88 363 365 
3 363 139 364 
3 365 364 110 
3 113 366 368 
3 366 92 367 
3 368 367 147 
3 117 369 371 
3 369 128 370 
3 371 370 90 
3 91 372 374 
3 372 131 373 
3 374 373 143 
3 146 375 377 
3 375 95 376 
3 377 376 119 
3 145 378 380 
3 378 136 379 
3 380 379 93 
3 94 381 383 
3 381 135 382 
3 383 382 120 
3 160 384 386 
3 384 98 385 
3 386 385 115 
3 159 387 389 
3 387 126 388 
3 389 388 96 
3 97 390 392 
3 390 125 391 
3 392 391 116 
3 118 393 395 
3 393 101 394 
3 395 394 161 
3 121 396 398 
3 396 138 397 
3 398 397 99 
3 100 399 401 
3 399 141 400 
3 401 400 158 
3 12 402 403 
3 402 42 164 
3 403 164 44 
3 42 404 162 
3 404 13 405 
3 162 405 43 
3 44 163 407 
3 163 43 406 
3 407 406 14 
3 12 408 409 
3 408 45 167 
3 409 167 47 
3 45 410 165 
3 410 15 411 
3 165 411 46 
3 47 166 413 
3 166 46 412 
3 413 412 16 
3 17 414 415 
3 414 48 170 
3 415 170 50 
3 48 416 168 
3 416 18 417 
3 168 417 49 
3 50 169 419 
3 169 49 418 
3 419 418 19 
3 17 420 421 
3 420 51 173 
3 421 173 53 
3 51 422 171 
3 422 20 423 
3 171 423 52 
3 53 172 425 
3 172 52 424 
3 425 424 21 
3 22 426 427 
3 426 54 176 
3 427 176 56 
3 54 428 174 
3 428 23 429 
3 174 429 55 
3 56 175 431 
3 175 55 430 
3 431 430 24 
3 22 432 433 
3 432 57 179 
3 433 179 59 
3 57 434 177 
3 434 25 435 
3 177 435 58 
3 59 178 437 
3 178 58 436 
3 437 436 26 
3 27 438 439 
3 438 60 182 
3 439 182 62 
3 60 440 180 
3 440 28 441 
3 180 441 61 
3 62 181 443 
3 181 61 442 
3 443 442 29 
3 27 444 445 
3 444 63 185 
3 445 185 65 
3 63 446 183 
3 446 30 447 
3 183 447 64 
3 65 184 449 
3 184 64 448 
3 449 448 31 
3 32 450 451 
3 450 66 188 
3 451 188 68 
3 66 452 186 
3 452 33 453 
3 186 453 67 
3 68 187 455 
3 187 67 454 
3 455 454 34 
3 32 456 457 
3 456 69 191 
3 457 191 71 
3 69 458 189 
3 458 35 459 
3 189 459 70 
3 71 190 461 
3 190 70 460 
3 461 460 36 
3 37 462 463 
3 462 72 194 
3 463 194 74 
3 72 464 192 
3 464 38 465 
3 192 465 73 
3 74 193 467 
3 193 73 466 
3 467 466 39 
3 37 468 469 
3 468 75 197 
3 469 197 77 
3 75 470 195 
3 470 40 471 
3 195 471 76 
3 77 196 473 
3 196 76 472 
3 473 472 41 
3 35 474 475 
3 474 78 200 
3 475 200 80 
3 78 476 198 
3 476 25 477 
3 198 477 79 
3 80 199 479 
3 199 79 478 
3 479 478 13 
3 16 480 481 
3 480 81 203 
3 481 203 83 
3 81 482 201 
3 482 29 483 
3 201 483 82 
3 83 202 485 
3 202 82 484 
3 485 484 36 
3 14 486 487 
3 486 84 206 
3 487 206 86 
3 84 488 204 
3 488 24 489 
3 204 489 85 
3 86 205 491 
3 205 85 490 
3 491 490 39 
3 38 492 493 
3 492 87 209 
3 493 209 89 
3 87 494 207 
3 494 30 495 
3 207 495 88 
3 89 208 497 
3 208 88 496 
3 497 496 15 
3 19 498 499 
3 498 90 212 
3 499 212 92 
3 90 500 210 
3 500 26 501 
3 210 501 91 
3 92 211 503 
3 211 91 502 
3 503 502 34 
3 33 504 505 
3 504 93 215 
3 505 215 95 
3 93 506 213 
3 506 28 507 
3 213 507 94 
3 95 214 509 
3 214 94 508 
3 509 508 20 
3 40 510 511 
3 510 96 218 
3 511 218 98 
3 96 512 216 
3 512 23 513 
3 216 513 97 
3 98 217 515 
3 217 97 514 
3 515 514 18 
3 21 516 517 
3 516 99 221 
3 517 221 101 
3 99 518 219 
3 518 31 519 
3 219 519 100 
3 101 220 521 
3 220 100 520 
3 521 520 41 
3 1 522 523 
3 522 102 224 
3 523 224 103 
3 102 524 222 
3 524 12 403 
3 222 403 44 
3 103 223 525 
3 223 44 407 
3 525 407 14 
3 12 526 402 
3 526 104 227 
3 402 227 42 
3 104 527 225 
3 527 0 528 
3 225 528 105 
3 42 226 404 
3 226 105 529 
3 404 529 13 
3 14 406 530 
3 406 43 230 
3 530 230 107 
3 43 405 228 
3 405 13 531 
3 228 531 106 
3 107 229 533 
3 229 106 532 
3 533 532 4 
3 0 527 534 
3 527 104 233 
3 534 233 108 
3 104 526 231 
3 526 12 409 
3 231 409 47 
3 108 232 535 
3 232 47 413 
3 535 413 16 
3 12 524 408 
3 524 102 236 
3 408 236 45 
3 102 522 234 
3 522 1 536 
3 234 536 109 
3 45 235 410 
3 235 109 537 
3 410 537 15 
3 16 412 538 
3 412 46 239 
3 538 239 111 
3 46 411 237 
3 411 15 539 
3 237 539 110 
3 111 238 541 
3 238 110 540 
3 541 540 6 
3 2 542 543 
3 542 112 242 
3 543 242 113 
3 112 544 240 
3 544 17 415 
3 240 415 50 
3 113 241 545 
3 241 50 419 
3 545 419 19 
3 17 546 414 
3 546 114 245 
3 414 245 48 
3 114 547 243 
3 547 3 548 
3 243 548 115 
3 48 244 416 
3 244 115 549 
3 416 549 18 
3 19 418 550 
3 418 49 248 
3 550 248 117 
3 49 417 246 
3 417 18 551 
3 246 551 116 
3 117 247 553 
3 247 116 552 
3 553 552 5 
3 3 547 554 
3 547 114 251 
3 554 251 118 
3 114 546 249 
3 546 17 421 
3 249 421 53 
3 118 250 555 
3 250 53 425 
3 555 425 21 
3 17 544 420 
3 544 112 254 
3 420 254 51 
3 112 542 252 
3 542 2 556 
3 252 556 119 
3 51 253 422 
3 253 119 557 
3 422 557 20 
3 21 424 558 
3 424 52 257 
3 558 257 121 
3 52 423 255 
3 423 20 559 
3 255 559 120 
3 121 256 561 
3 256 120 560 
3 561 560 7 
3 4 562 563 
3 562 122 260 
3 563 260 123 
3 122 564 258 
3 564 22 427 
3 258 427 56 
3 123 259 565 
3 259 56 431 
3 565 431 24 
3 22 566 426 
3 566 124 263 
3 426 263 54 
3 124 567 261 
3 567 5 568 
3 261 568 125 
3 54 262 428 
3 262 125 569 
3 428 569 23 
3 24 430 570 
3 430 55 266 
3 570 266 127 
3 55 429 264 
3 429 23 571 
3 264 571 126 
3 127 265 573 
3 265 126 572 
3 573 572 10 
3 5 567 574 
3 567 124 269 
3 574 269 128 
3 124 566 267 
3 566 22 433 
3 267 433 59 
3 128 268 575 
3 268 59 437 
3 575 437 26 
3 22 564 432 
3 564 122 272 
3 432 272 57 
3 122 562 270 
3 562 4 576 
3 270 576 129 
3 57 271 434 
3 271 129 577 
3 434 577 25 
3 26 436 578 
3 436 58 275 
3 578 275 131 
3 58 435 273 
3 435 25 579 
3 273 579 130 
3 131 274 581 
3 274 130 580 
3 581 580 8 
3 6 582 583 
3 582 132 278 
3 583 278 133 
3 132 584 276 
3 584 27 439 
3 276 439 62 
3 133 277 585 
3 277 62 443 
3 585 443 29 
3 27 586 438 
3 586 134 281 
3 438 281 60 
3 134 587 279 
3 587 7 588 
3 279 588 135 
3 60 280 440 
3 280 135 589 
3 440 589 28 
3 29 442 590 
3 442 61 284 
3 590 284 137 
3 61 441 282 
3 441 28 591 
3 282 591 136 
3 137 283 593 
3 283 136 592 
3 593 592 9 
3 7 587 594 
3 587 134 287 
3 594 287 138 
3 134 586 285 
3 586 27 445 
3 285 445 65 
3 138 286 595 
3 286 65 449 
3 595 449 31 
3 27 584 444 
3 584 132 290 
3 444 290 63 
3 132 582 288 
3 582 6 596 
3 288 596 139 
3 63 289 446 
3 289 139 597 
3 446 597 30 
3 31 448 598 
3 448 64 293 
3 598 293 141 
3 64 447 291 
3 447 30 599 
3 291 599 140 
3 141 292 601 
3 292 140 600 
3 601 600 11 
3 8 602 603 
3 602 142 296 
3 603 296 143 
3 142 604 294 
3 604 32 451 
3 294 451 68 
3 143 295 605 
3 295 68 455 
3 605 455 34 
3 32 606 450 
3 606 144 299 
3 450 299 66 
3 144 607 297 
3 607 9 608 
3 297 608 145 
3 66 298 452 
3 298 145 609 
3 452 609 33 
3 34 454 610 
3 454 67 302 
3 610 302 147 
3 67 453 300 
3 453 33 611 
3 300 611 146 
3 147 301 613 
3 301 146 612 
3 613 612 2 
3 9 607 614 
3 607 144 305 
3 614 305 148 
3 144 606 303 
3 606 32 457 
3 303 457 71 
3 148 304 615 
3 304 71 461 
3 615 461 36 
3 32 604 456 
3 604 142 308 
3 456 308 69 
3 142 602 306 
3 602 8 616 
3 306 616 149 
3 69 307 458 
3 307 149 617 
3 458 617 35 
3 36 460 618 
3 460 70 311 
3 618 311 151 
3 70 459 309 
3 459 35 619 
3 309 619 150 
3 151 310 621 
3 310 150 620 
3 621 620 0 
3 10 622 623 
3 622 152 314 
3 623 314 153 
3 152 624 312 
3 624 37 463 
3 312 463 74 
3 153 313 625 
3 313 74 467 
3 625 467 39 
3 37 626 462 
3 626 154 317 
3 462 317 72 
3 154 627 315 
3 627 11 628 
3 315 628 155 
3 72 316 464 
3 316 155 629 
3 464 629 38 
3 39 466 630 
3 466 73 320 
3 630 320 157 
3 73 465 318 
3 465 38 631 
3 318 631 156 
3 157 319 633 
3 319 156 632 
3 633 632 1 
3 11 627 634 
3 627 154 323 
3 634 323 158 
3 154 626 321 
3 626 37 469 
3 321 469 77 
3 158 322 635 
3 322 77 473 
3 635 473 41 
3 37 624 468 
3 624 152 326 
3 468 326 75 
3 152 622 324 
3 622 10 636 
3 324 636 159 
3 75 325 470 
3 325 159 637 
3 470 637 40 
3 41 472 638 
3 472 76 329 
3 638 329 161 
3 76 471 327 
3 471 40 639 
3 327 639 160 
3 161 328 641 
3 328 160 640 
3 641 640 3 
3 0 620 528 
3 620 150 332 
3 528 332 105 
3 150 619 330 
3 619 35 475 
3 330 475 80 
3 105 331 529 
3 331 80 479 
3 529 479 13 
3 35 617 474 
3 617 149 335 
3 474 335 78 
3 149 616 333 
3 616 8 580 
3 333 580 130 
3 78 334 476 
3 334 130 579 
3 476 579 25 
3 13 478 531 
3 478 79 338 
3 531 338 106 
3 79 477 336 
3 477 25 577 
3 336 577 129 
3 106 337 532 
3 337 129 576 
3 532 576 4 
3 0 534 621 
3 534 108 341 
3 621 341 151 
3 108 535 339 
3 535 16 481 
3 339 481 83 
3 151 340 618 
3 340 83 485 
3 618 485 36 
3 16 538 480 
3 538 111 344 
3 480 344 81 
3 111 541 342 
3 541 6 583 
3 342 583 133 
3 81 343 482 
3 343 133 585 
3 482 585 29 
3 36 484 615 
3 484 82 347 
3 615 347 148 
3 82 483 345 
3 483 29 590 
3 345 590 137 
3 148 346 614 
3 346 137 593 
3 614 593 9 
3 1 523 633 
3 523 103 350 
3 633 350 157 
3 103 525 348 
3 525 14 487 
3 348 487 86 
3 157 349 630 
3 349 86 491 
3 630 491 39 
3 14 530 486 
3 530 107 353 
3 486 353 84 
3 107 533 351 
3 533 4 563 
3 351 563 123 
3 84 352 488 
3 352 123 565 
3 488 565 24 
3 39 490 625 
3 490 85 356 
3 625 356 153 
3 85 489 354 
3 489 24 570 
3 354 570 127 
3 153 355 623 
3 355 127 573 
3 623 573 10 
3 1 632 536 
3 632 156 359 
3 536 359 109 
3 156 631 357 
3 631 38 493 
3 357 493 89 
3 109 358 537 
3 358 89 497 
3 537 497 15 
3 38 629 492 
3 629 155 362 
3 492 362 87 
3 155 628 360 
3 628 11 600 
3 360 600 140 
3 87 361 494 
3 361 140 599 
3 494 599 30 
3 15 496 539 
3 496 88 365 
3 539 365 110 
3 88 495 363 
3 495 30 597 
3 363 597 139 
3 110 364 540 
3 364 139 596 
3 540 596 6 
3 2 543 613 
3 543 113 368 
3 613 368 147 
3 113 545 366 
3 545 19 499 
3 366 499 92 
3 147 367 610 
3 367 92 503 
3 610 503 34 
3 19 550 498 
3 550 117 371 
3 498 371 90 
3 117 553 369 
3 553 5 574 
3 369 574 128 
3 90 370 500 
3 370 128 575 
3 500 575 26 
3 34 502 605 
3 502 91 374 
3 605 374 143 
3 91 501 372 
3 501 26 578 
3 372 578 131 
3 143 373 603 
3 373 131 581 
3 603 581 8 
3 2 612 556 
3 612 146 377 
3 556 377 119 
3 146 611 375 
3 611 33 505 
3 375 505 95 
3 119 376 557 
3 376 95 509 
3 557 509 20 
3 33 609 504 
3 609 145 380 
3 504 380 93 
3 145 608 378 
3 608 9 592 
3 378 592 136 
3 93 379 506 
3 379 136 591 
3 506 591 28 
3 20 508 559 
3 508 94 383 
3 559 383 120 
3 94 507 381 
3 507 28 589 
3 381 589 135 
3 120 382 560 
3 382 135 588 
3 560 588 7 
3 3 640 548 
3 640 160 386 
3 548 386 115 
3 160 639 384 
3 639 40 511 
3 384 511 98 
3 115 385 549 
3 385 98 515 
3 549 515 18 
3 40 637 510 
3 637 159 389 
3 510 389 96 
3 159 636 387 
3 636 10 572 
3 387 572 126 
3 96 388 512 
3 388 126 571 
3 512 571 23 
3 18 514 551 
3 514 97 392 
3 551 392 116 
3 97 513 390 
3 513 23 569 
3 390 569 125 
3 116 391 552 
3 391 125 568 
3 552 568 5 
3 3 554 641 
3 554 118 395 
3 641 395 161 
3 118 555 393 
3 555 21 517 
3 393 517 101 
3 161 394 638 
3 394 101 521 
3 638 521 41 
3 21 558 516 
3 558 121 398 
3 516 398 99 
3 121 561 396 
3 561 7 594 
3 396 594 138 
3 99 397 518 
3 397 138 595 
3 518 595 31 
3 41 520 635 
3 520 100 401 
3 635 401 158 
3 100 519 399 
3 519 31 598 
3 399 598 141 
3 158 400 634 
3 400 141 601 
3 634 601 11 
