ply
format ascii 1.0
comment VCGLIB generated
element vertex 642
property float x
property float y
property float z
element face 1280
property list uchar int vertex_indices
end_header
-0.00704725 0.813172 0.520441 
0.00619388 0.846789 -0.507844 
0.00642415 -0.867288 0.496004 
0.0382226 -0.867211 -0.53024 
0.846516 0.504716 -0.0271625 
0.843947 -0.5231 0.0203625 
-0.841063 0.513522 -0.00744143 
-0.860422 -0.509612 -0.00371712 
0.510724 -0.00737467 0.839582 
-0.495003 0.00428929 0.876432 
0.512255 -0.00144162 -0.832801 
-0.542122 0.00293553 -0.826499 
-0.000167457 0.993057 -0.000335634 
0.546638 0.787648 0.29222 
0.475736 0.817384 -0.293776 
-0.494412 0.78563 -0.303408 
-0.52777 0.769473 0.328944 
0.033337 -0.980319 -0.0430301 
0.465103 -0.811468 -0.28995 
0.458224 -0.798051 0.336326 
-0.509311 -0.79604 0.329804 
-0.493125 -0.798613 -0.27855 
0.994327 -0.0033281 0.0286067 
0.809176 -0.316968 -0.518526 
0.827572 0.3279 -0.468482 
0.801384 0.287724 0.483881 
0.772209 -0.293855 0.501333 
-0.981064 -0.0211419 -0.0492304 
-0.777494 -0.293087 0.508749 
-0.781944 0.348811 0.47018 
-0.82223 0.265557 -0.5347 
-0.811321 -0.337759 -0.512688 
-0.0198044 -0.0144108 0.973143 
-0.348715 -0.534787 0.800135 
0.281744 -0.524735 0.783385 
0.310752 0.441939 0.822139 
-0.313958 0.484973 0.799755 
-0.00662302 -0.00283295 -0.996046 
-0.303012 0.51362 -0.799716 
0.276651 0.501739 -0.80733 
0.302315 -0.462072 -0.824306 
-0.294855 -0.50266 -0.800179 
0.245939 0.926322 0.164583 
0.541833 0.845581 0.0259237 
0.237753 0.942461 -0.168065 
-0.239045 0.952112 -0.139383 
-0.575468 0.802729 -0.0680489 
-0.280824 0.940405 0.150313 
0.241744 -0.940684 -0.157764 
0.52924 -0.843138 0.0581127 
0.228674 -0.957599 0.191407 
-0.217113 -0.955556 0.200593 
-0.5081 -0.849857 -0.0341983 
-0.275875 -0.924214 -0.201877 
0.967885 -0.156606 -0.258919 
0.864666 0.0125469 -0.475223 
0.953402 0.188404 -0.255831 
0.920887 0.169494 0.274419 
0.792367 -0.0170095 0.53854 
0.944852 -0.179938 0.24707 
-0.915545 -0.14122 0.254006 
-0.840882 -0.013287 0.47915 
-0.953068 0.139024 0.225511 
-0.958077 0.127957 -0.245185 
-0.851985 -0.0178855 -0.515531 
-0.956033 -0.164689 -0.303112 
-0.156504 -0.291274 0.925257 
0.00512774 -0.522442 0.844549 
0.172849 -0.246725 0.950377 
0.142501 0.307208 0.935181 
0.0239825 0.492456 0.871778 
-0.139673 0.301928 0.929101 
-0.172826 0.257326 -0.929662 
-0.0296689 0.529467 -0.823904 
0.14696 0.266631 -0.954808 
0.168227 -0.243008 -0.947446 
-0.0223732 -0.534967 -0.826748 
-0.187432 -0.221166 -0.944197 
0.564062 0.41257 0.691211 
0.693835 0.599411 0.399784 
0.432635 0.677231 0.556672 
-0.708953 0.536015 0.428809 
-0.558483 0.411221 0.676276 
-0.437939 0.702346 0.559451 
0.679261 0.554037 -0.453292 
0.567627 0.437444 -0.723056 
0.432016 0.697485 -0.564488 
-0.575207 0.41525 -0.679595 
-0.706765 0.593654 -0.393724 
-0.442822 0.657324 -0.596575 
0.686625 -0.576893 0.431826 
0.557467 -0.385175 0.704872 
0.412698 -0.696783 0.55742 
-0.543588 -0.451624 0.678777 
-0.671118 -0.591554 0.434038 
-0.460643 -0.668778 0.600529 
0.55371 -0.467232 -0.666524 
0.684659 -0.577946 -0.418787 
0.398534 -0.71579 -0.560094 
-0.634934 -0.602679 -0.433817 
-0.608649 -0.405749 -0.689862 
-0.405751 -0.674284 -0.605358 
-0.0361685 0.966675 -0.238147 
0.244992 0.856498 -0.427432 
-0.0165652 0.934664 0.271648 
0.249021 0.854892 0.430228 
0.6976 0.694748 0.177305 
0.735431 0.669316 -0.140913 
-0.219565 0.84288 0.451637 
-0.261902 0.840691 -0.438971 
-0.719676 0.680765 -0.107512 
-0.681035 0.693995 0.143122 
-0.00944993 -0.953447 0.302714 
0.273765 -0.845349 0.412098 
0.017392 -0.957803 -0.251332 
0.206506 -0.860668 -0.480792 
0.712809 -0.685357 -0.121222 
0.714955 -0.696096 0.111016 
-0.279615 -0.880588 -0.40574 
-0.23414 -0.880568 0.432967 
-0.707091 -0.668762 0.154384 
-0.712794 -0.636991 -0.17418 
0.93302 0.316393 -0.0539583 
0.850707 0.423826 -0.230565 
0.961481 -0.258343 -0.0362017 
0.844492 -0.479404 -0.303256 
0.699555 -0.196015 -0.6733 
0.718499 0.162031 -0.677321 
0.837621 -0.441369 0.27062 
0.877414 0.369513 0.257097 
0.715067 0.170213 0.654186 
0.646921 -0.167196 0.709467 
-0.963401 0.231901 0.0485403 
-0.848162 0.449537 0.23736 
-0.972717 -0.228229 -0.0252957 
-0.854783 -0.471376 0.258756 
-0.664246 -0.196712 0.677519 
-0.699588 0.172468 0.674612 
-0.866195 -0.446754 -0.251361 
-0.859981 0.408182 -0.239173 
-0.665408 0.154086 -0.733099 
-0.698852 -0.20728 -0.663055 
0.265357 0.0321396 0.961998 
0.410617 -0.268069 0.839834 
-0.317652 -0.0289135 0.942614 
-0.422207 -0.26711 0.854895 
-0.167644 -0.705343 0.693313 
0.189247 -0.671894 0.671874 
-0.364722 0.232897 0.868425 
0.435049 0.263449 0.865245 
0.118088 0.723566 0.679585 
-0.159736 0.66425 0.715904 
0.246268 -0.0462495 -0.995874 
0.451171 0.266501 -0.837134 
-0.260554 0.0299668 -0.95874 
-0.392875 0.22837 -0.896012 
-0.159293 0.706606 -0.708981 
0.181897 0.684325 -0.641169 
-0.414514 -0.270127 -0.875961 
0.458718 -0.20331 -0.863125 
0.188334 -0.717362 -0.660387 
-0.183636 -0.671688 -0.725583 
0.399148 0.902 0.0561567 
0.43457 0.892082 -0.0388373 
0.262009 0.945576 0.00448164 
-0.388373 0.8932 -0.0429035 
-0.408689 0.894278 0.0833203 
-0.257911 0.965375 -0.0100568 
0.38565 -0.904363 -0.112764 
0.394751 -0.910831 0.0982282 
0.293567 -0.952079 0.0386023 
-0.378321 -0.922195 0.0601975 
-0.411266 -0.881509 -0.116368 
-0.240277 -0.958743 0.0191495 
0.920272 -0.0963736 -0.379672 
0.924798 0.141667 -0.385126 
0.973487 -0.0158755 -0.252717 
0.882104 0.0716864 0.400585 
0.894876 -0.0936608 0.37608 
0.947429 -0.0167485 0.258121 
-0.890868 -0.0592106 0.358557 
-0.889042 0.0690654 0.38351 
-0.947486 0.0330388 0.25315 
-0.93831 0.0674081 -0.37097 
-0.89391 -0.104533 -0.431021 
-0.952571 -0.0197155 -0.310721 
-0.10231 -0.381038 0.915276 
0.124777 -0.383816 0.921713 
-0.0188212 -0.24868 0.958666 
0.0637648 0.417865 0.907022 
-0.100222 0.445825 0.889637 
0.0116688 0.280745 0.952059 
-0.0914313 0.378213 -0.904398 
0.0545396 0.41067 -0.904979 
-0.00196583 0.232838 -0.967509 
0.102546 -0.408135 -0.90478 
-0.0536667 -0.35469 -0.919787 
-0.0464188 -0.256678 -0.956059 
0.644321 0.561823 0.534043 
0.542121 0.647852 0.530272 
0.542234 0.565696 0.597211 
-0.626239 0.487281 0.564597 
-0.492585 0.535103 0.651652 
-0.525266 0.63978 0.524049 
0.62541 0.497477 -0.571932 
0.502543 0.606545 -0.647913 
0.556925 0.65849 -0.494642 
-0.608343 0.516877 -0.568421 
-0.55774 0.641453 -0.509674 
-0.518752 0.52069 -0.650833 
0.622861 -0.500126 0.572894 
0.530918 -0.527349 0.625968 
0.519054 -0.639153 0.524834 
-0.61857 -0.529886 0.559776 
-0.607858 -0.598927 0.520404 
-0.510984 -0.556437 0.6682 
0.614784 -0.545828 -0.565364 
0.562178 -0.64788 -0.490099 
0.489334 -0.545193 -0.650543 
-0.660581 -0.504068 -0.526014 
-0.500282 -0.599104 -0.608428 
-0.527101 -0.642152 -0.495317 
0.130516 0.954313 -0.191619 
0.219868 0.894867 -0.31591 
0.0952246 0.901649 -0.324549 
0.171147 0.903726 0.33323 
0.252596 0.890377 0.302534 
0.129627 0.947574 0.183921 
0.608233 0.793737 0.0637098 
0.714618 0.709948 0.0454268 
0.61457 0.75966 -0.114341 
-0.130412 0.954628 0.213602 
-0.255748 0.904059 0.327112 
-0.105144 0.915361 0.331905 
-0.111638 0.926928 -0.326721 
-0.21643 0.924901 -0.305262 
-0.174557 0.973384 -0.21553 
-0.639743 0.754914 -0.0980225 
-0.714463 0.688438 0.00318834 
-0.629454 0.744072 0.0738575 
0.0946613 -0.969502 0.220759 
0.236758 -0.898934 0.327105 
0.115705 -0.931475 0.316986 
0.137201 -0.923887 -0.358612 
0.235544 -0.901193 -0.315037 
0.131083 -0.948538 -0.234496 
0.619084 -0.783897 -0.11101 
0.735235 -0.687549 0.022641 
0.598799 -0.78719 0.093731 
-0.0738636 -0.950962 -0.23534 
-0.26643 -0.895026 -0.307215 
-0.142207 -0.910492 -0.381604 
-0.156338 -0.934128 0.327239 
-0.283718 -0.925241 0.327463 
-0.137295 -0.979954 0.228925 
-0.626677 -0.768805 0.0562949 
-0.685993 -0.703632 0.0404241 
-0.586539 -0.793318 -0.0772835 
0.965668 0.205229 -0.0939864 
0.929194 0.276142 -0.276638 
0.925151 0.323096 -0.102304 
0.929951 -0.340112 -0.152572 
0.939582 -0.236309 -0.278297 
0.974679 -0.23627 -0.1363 
0.801966 -0.104398 -0.554178 
0.702247 0.0120942 -0.684431 
0.796823 0.0415202 -0.577262 
0.972163 -0.277222 0.103827 
0.905407 -0.275666 0.278995 
0.934818 -0.308498 0.132244 
0.912196 0.354593 0.105199 
0.895321 0.335103 0.258462 
0.942775 0.209471 0.11626 
0.759844 0.104528 0.60186 
0.679714 0.000153971 0.694314 
0.775577 -0.0366546 0.580718 
-0.970563 0.210314 0.122778 
-0.914467 0.296134 0.263012 
-0.91291 0.331479 0.144911 
-0.910477 -0.391073 0.119485 
-0.894429 -0.308973 0.229415 
-0.948372 -0.183829 0.144829 
-0.747304 -0.0778371 0.639716 
-0.699378 0.0239726 0.711066 
-0.755005 0.0455366 0.638438 
-0.978228 -0.191182 -0.124858 
-0.925179 -0.296596 -0.253464 
-0.943229 -0.346104 -0.132876 
-0.892891 0.332913 -0.142291 
-0.922733 0.268794 -0.243772 
-0.945399 0.204815 -0.124162 
-0.766049 0.0373803 -0.62719 
-0.686434 0.00473497 -0.709903 
-0.787224 -0.104681 -0.582481 
0.275165 -0.0944294 0.953879 
0.308279 -0.207537 0.910775 
0.390178 -0.175671 0.878186 
-0.395107 -0.143371 0.911066 
-0.347492 -0.258864 0.907407 
-0.216144 -0.156086 0.955026 
-0.1142 -0.60766 0.78848 
-0.0280418 -0.676623 0.715359 
0.108776 -0.610257 0.765836 
-0.196082 0.104971 0.953534 
-0.266471 0.288641 0.891218 
-0.345965 0.175941 0.902978 
0.383539 0.133185 0.918534 
0.325197 0.279786 0.911982 
0.261905 0.183653 0.963425 
0.0939136 0.6033 0.785889 
-0.000160954 0.696155 0.708365 
-0.143823 0.624233 0.762202 
0.260739 0.158621 -0.955372 
0.304185 0.234706 -0.91556 
0.328193 0.140399 -0.932077 
-0.337598 0.153432 -0.926689 
-0.309527 0.241642 -0.910611 
-0.17716 0.151567 -0.969952 
-0.0595711 0.603357 -0.768651 
-8.04183e-05 0.709383 -0.691507 
0.0533629 0.577866 -0.783251 
-0.211696 -0.184133 -0.949826 
-0.30876 -0.265405 -0.917094 
-0.372005 -0.120972 -0.926157 
0.318019 -0.154119 -0.947725 
0.271051 -0.271882 -0.925855 
0.234473 -0.145095 -0.962432 
0.0800486 -0.590844 -0.785392 
0.0076899 -0.742735 -0.677188 
-0.0807329 -0.578286 -0.798626 
0.287455 0.668299 0.657657 
0.346554 0.747308 0.532381 
0.166691 0.787541 0.571326 
0.578784 0.236451 0.763487 
0.6564 0.277871 0.688819 
0.517889 0.379326 0.742225 
0.78023 0.506681 0.331995 
0.794554 0.542935 0.213009 
0.712843 0.642452 0.285708 
-0.307681 0.774514 0.560392 
-0.322979 0.714048 0.631442 
-0.239751 0.784837 0.560945 
-0.782736 0.568667 0.222025 
-0.777111 0.497031 0.345588 
-0.725483 0.620221 0.249396 
-0.658862 0.25084 0.681351 
-0.552664 0.2027 0.780808 
-0.52351 0.328658 0.752783 
0.32476 0.773047 -0.532751 
0.259726 0.699382 -0.635478 
0.217169 0.783102 -0.542634 
0.773815 0.593204 -0.205702 
0.755896 0.537786 -0.319153 
0.71035 0.640612 -0.281037 
0.679372 0.263916 -0.709945 
0.613261 0.241965 -0.760306 
0.545743 0.372831 -0.777731 
-0.307525 0.694988 -0.636685 
-0.313659 0.784545 -0.530278 
-0.25079 0.797222 -0.533267 
-0.555607 0.220512 -0.798197 
-0.626701 0.318273 -0.683528 
-0.490575 0.359765 -0.785082 
-0.778334 0.483183 -0.378528 
-0.812584 0.566035 -0.20046 
-0.732508 0.624474 -0.316728 
0.369244 -0.743067 0.505877 
0.316344 -0.672896 0.624725 
0.249677 -0.753972 0.560615 
0.76227 -0.635602 0.204519 
0.785356 -0.513375 0.352157 
0.719371 -0.618617 0.323056 
0.63675 -0.276597 0.706934 
0.560459 -0.228349 0.767985 
0.524642 -0.397035 0.760802 
-0.285881 -0.715042 0.644778 
-0.368595 -0.80106 0.492769 
-0.221715 -0.815637 0.534874 
-0.579327 -0.215465 0.738855 
-0.668679 -0.262798 0.649947 
-0.505888 -0.325071 0.765451 
-0.770755 -0.493327 0.358639 
-0.82958 -0.510679 0.208791 
-0.709273 -0.645049 0.271212 
0.256174 -0.706749 -0.66941 
0.310715 -0.811026 -0.484413 
0.209995 -0.810045 -0.569617 
0.585682 -0.219909 -0.803029 
0.631128 -0.312723 -0.712092 
0.530331 -0.329007 -0.776976 
0.807475 -0.523954 -0.302317 
0.800062 -0.559514 -0.244039 
0.728281 -0.613686 -0.277814 
-0.351602 -0.786326 -0.475949 
-0.275811 -0.70544 -0.670946 
-0.220504 -0.792501 -0.60979 
-0.780884 -0.564745 -0.243105 
-0.77727 -0.519266 -0.307165 
-0.701396 -0.62702 -0.302385 
-0.665104 -0.256844 -0.691095 
-0.568736 -0.199421 -0.787139 
-0.549718 -0.338133 -0.769171 
0.138397 0.958103 0.121726 
0.147332 0.978255 -0.0859637 
0.369648 0.884348 0.20824 
0.502612 0.838288 0.131035 
0.472465 0.861411 -0.161362 
0.382674 0.881647 -0.211448 
-0.109176 0.98913 -0.0969793 
-0.10891 0.990761 0.0393174 
-0.422407 0.846977 -0.20794 
-0.538566 0.793197 -0.170564 
-0.521897 0.812902 0.182849 
-0.411156 0.872938 0.211597 
0.162628 -0.962607 -0.0738525 
0.128959 -0.982731 0.0468015 
0.355807 -0.885729 -0.227634 
0.54161 -0.8235 -0.140563 
0.507588 -0.829153 0.194775 
0.353031 -0.913811 0.214919 
-0.138936 -0.988273 0.0672172 
-0.165965 -0.969812 -0.0507201 
-0.367208 -0.893306 0.245921 
-0.544587 -0.819208 0.164181 
-0.564884 -0.796262 -0.107768 
-0.375566 -0.885219 -0.227014 
1.00311 -0.0706761 -0.116116 
0.992713 0.121723 -0.122183 
0.89075 -0.216225 -0.415489 
0.837708 -0.164938 -0.520499 
0.864046 0.146088 -0.492875 
0.875583 0.248858 -0.42545 
0.978463 0.112014 0.130059 
0.981617 -0.0815942 0.140996 
0.874788 0.183623 0.360827 
0.8171 0.196016 0.466987 
0.837607 -0.129207 0.473732 
0.860029 -0.220865 0.39593 
-0.951177 -0.0983677 0.14297 
-0.984532 0.114615 0.137238 
-0.851948 -0.248243 0.386201 
-0.808576 -0.144096 0.520408 
-0.821736 0.209379 0.493725 
-0.840516 0.259852 0.405041 
-0.963927 0.10923 -0.144405 
-0.991031 -0.0791953 -0.173591 
-0.928409 0.232257 -0.320698 
-0.852738 0.157021 -0.483815 
-0.843759 -0.138984 -0.533993 
-0.889377 -0.23197 -0.411507 
-0.103474 -0.140303 0.952277 
0.111049 -0.13451 0.96374 
-0.259573 -0.430673 0.894226 
-0.206858 -0.475712 0.87467 
0.14276 -0.515426 0.834083 
0.213808 -0.394997 0.898189 
0.086617 0.135746 0.967783 
-0.0773106 0.163881 0.97543 
0.260131 0.386394 0.876355 
0.126598 0.550311 0.829662 
-0.163392 0.500426 0.837019 
-0.233305 0.415549 0.863262 
-0.0948318 0.122286 -0.977751 
0.0802325 0.0966268 -1.00622 
-0.19583 0.336847 -0.913548 
-0.163296 0.494436 -0.82709 
0.155207 0.497495 -0.832571 
0.223231 0.361644 -0.902262 
0.0393576 -0.109381 -0.990727 
-0.093938 -0.0871976 -0.981717 
0.24329 -0.384722 -0.88493 
0.20712 -0.531257 -0.79821 
-0.149789 -0.556738 -0.800273 
-0.257535 -0.357191 -0.892446 
0.429611 0.459896 0.746585 
0.349973 0.585253 0.696907 
0.705475 0.413285 0.574098 
0.75439 0.45199 0.46611 
0.603306 0.70088 0.378451 
0.428318 0.775092 0.458919 
-0.607973 0.67985 0.345967 
-0.460302 0.776143 0.408323 
-0.713864 0.486346 0.451094 
-0.67203 0.376797 0.595952 
-0.459867 0.426602 0.726442 
-0.399528 0.574303 0.691574 
0.591597 0.70417 -0.363501 
0.484316 0.745378 -0.516564 
0.706353 0.453408 -0.500362 
0.68387 0.399456 -0.611942 
0.489212 0.459369 -0.751613 
0.328132 0.58319 -0.727718 
-0.463386 0.511892 -0.709209 
-0.323374 0.596253 -0.716429 
-0.704557 0.361799 -0.590504 
-0.731609 0.454351 -0.470556 
-0.623213 0.692066 -0.349308 
-0.422803 0.746152 -0.462348 
0.65161 -0.689458 0.351953 
0.467238 -0.733532 0.437072 
0.74217 -0.462153 0.459094 
0.678792 -0.354535 0.604258 
0.419299 -0.447022 0.760439 
0.342112 -0.614254 0.683935 
-0.482021 -0.479693 0.723582 
-0.380929 -0.63303 0.716595 
-0.668451 -0.400277 0.58389 
-0.725657 -0.456982 0.484488 
-0.621774 -0.703853 0.325482 
-0.477322 -0.770372 0.427299 
0.439687 -0.464373 -0.729196 
0.362645 -0.618393 -0.667522 
0.692246 -0.385497 -0.609923 
0.772554 -0.465859 -0.458347 
0.595505 -0.701954 -0.371787 
0.477429 -0.742733 -0.432507 
-0.615143 -0.653362 -0.376107 
-0.456688 -0.750627 -0.468663 
-0.732783 -0.481603 -0.496186 
-0.735992 -0.373518 -0.595468 
-0.454733 -0.464714 -0.745191 
-0.387481 -0.585458 -0.713262 
0.0342383 0.906202 -0.359919 
0.129152 0.85693 -0.474369 
0.0262151 1.00155 -0.173224 
0.349863 0.836187 -0.388606 
-0.00520371 0.98405 0.103917 
-0.013904 0.880491 0.403439 
0.17964 0.855476 0.464385 
0.397877 0.817086 0.39152 
0.624541 0.759743 -0.19297 
0.639364 0.731599 0.26661 
0.785107 0.59749 0.137445 
0.779192 0.601438 -0.0542679 
-0.109794 0.830964 0.506916 
-0.396784 0.847715 0.331915 
-0.0952657 0.871375 -0.47662 
-0.379459 0.823676 -0.350161 
-0.610072 0.720632 0.256007 
-0.630628 0.743911 -0.217795 
-0.79571 0.610785 -0.0894621 
-0.769782 0.611671 0.108167 
0.0162851 -0.89564 0.428386 
0.152915 -0.846259 0.457969 
0.0379479 -0.97259 0.137851 
0.379772 -0.812206 0.382629 
0.0224543 -0.977826 -0.130285 
-0.0378058 -0.903267 -0.408403 
0.119659 -0.856701 -0.516824 
0.401544 -0.825296 -0.360338 
0.613213 -0.755645 0.223425 
0.599447 -0.765454 -0.198324 
0.762269 -0.63004 -0.0641353 
0.790562 -0.607508 0.0532441 
-0.127848 -0.852442 -0.516534 
-0.374784 -0.850189 -0.323977 
-0.130381 -0.883894 0.469633 
-0.355766 -0.847628 0.394575 
-0.633844 -0.704451 -0.253264 
-0.642578 -0.728488 0.234563 
-0.743963 -0.633842 0.039338 
-0.747092 -0.619427 -0.0994342 
0.884033 0.380023 -0.0403897 
0.829957 0.503049 -0.168992 
0.986477 0.148274 0.00386979 
0.8509 0.378474 -0.342854 
0.996199 -0.135705 0.0346221 
0.911151 -0.402402 0.0498548 
0.860144 -0.459758 -0.131145 
0.871446 -0.32129 -0.4199 
0.78265 0.25009 -0.578238 
0.773219 -0.230793 -0.592486 
0.582666 -0.139938 -0.803438 
0.629578 0.0438544 -0.745882 
0.83662 -0.522162 0.102157 
0.836533 -0.34215 0.363117 
0.825642 0.50825 0.177325 
0.821381 0.365289 0.374002 
0.718318 -0.227788 0.608043 
0.755556 0.225959 0.575128 
0.600183 0.0503605 0.77693 
0.631185 -0.106404 0.746847 
-0.908248 0.379371 -0.040298 
-0.83698 0.543453 0.123453 
-0.983564 0.10892 0.0161891 
-0.815952 0.404259 0.372689 
-0.977268 -0.158226 0.00515693 
-0.908499 -0.432674 0.064842 
-0.877245 -0.481503 0.135637 
-0.830232 -0.327237 0.373178 
-0.747324 0.274862 0.556615 
-0.734891 -0.246791 0.593281 
-0.584961 -0.0674024 0.811352 
-0.573853 0.0661029 0.818901 
-0.873582 -0.476509 -0.117738 
-0.87742 -0.356053 -0.359461 
-0.829264 0.533005 -0.186933 
-0.844942 0.334803 -0.39175 
-0.739901 -0.260804 -0.632281 
-0.775638 0.275626 -0.56385 
-0.639775 0.0561958 -0.751815 
-0.641387 -0.0432777 -0.746459 
0.394134 -0.00839955 0.907295 
0.458423 -0.164817 0.845997 
0.0801228 -0.00174933 0.977203 
0.334081 -0.348732 0.869235 
-0.0955821 0.0056067 0.974878 
-0.410255 -0.0315795 0.914553 
-0.512713 -0.12251 0.857702 
-0.3516 -0.342341 0.88148 
0.217104 -0.611688 0.717967 
-0.248007 -0.623702 0.760239 
-0.0971919 -0.786557 0.592665 
0.0569206 -0.75171 0.632782 
-0.467089 0.159154 0.857108 
-0.380421 0.424339 0.788565 
0.474738 0.145902 0.856851 
0.350716 0.361836 0.868233 
-0.285302 0.629219 0.732771 
0.194086 0.654425 0.717132 
0.0220119 0.766145 0.645316 
-0.109076 0.739255 0.626045 
0.449638 -0.00300721 -0.867937 
0.447983 0.175373 -0.850659 
0.185369 0.00392873 -0.987081 
0.343239 0.3443 -0.860807 
-0.182307 0.0138596 -0.970294 
-0.356901 0.00358241 -0.920246 
-0.460601 0.147319 -0.867562 
-0.35505 0.402627 -0.833797 
0.266427 0.586242 -0.752043 
-0.188652 0.639868 -0.758456 
-0.0917279 0.769568 -0.663929 
0.127092 0.780652 -0.585307 
-0.49452 -0.163893 -0.847181 
-0.374111 -0.400945 -0.841753 
0.504313 -0.11982 -0.86681 
0.405898 -0.344952 -0.833722 
-0.240418 -0.60255 -0.764611 
0.213232 -0.607531 -0.749421 
0.0289179 -0.802197 -0.60302 
-0.0707817 -0.827309 -0.586202 
3 162 163 164 
3 165 166 167 
3 168 169 170 
3 171 172 173 
3 174 175 176 
3 177 178 179 
3 180 181 182 
3 183 184 185 
3 186 187 188 
3 189 190 191 
3 192 193 194 
3 195 196 197 
3 198 199 200 
3 201 202 203 
3 204 205 206 
3 207 208 209 
3 210 211 212 
3 213 214 215 
3 216 217 218 
3 219 220 221 
3 222 223 224 
3 225 226 227 
3 228 229 230 
3 231 232 233 
3 234 235 236 
3 237 238 239 
3 240 241 242 
3 243 244 245 
3 246 247 248 
3 249 250 251 
3 252 253 254 
3 255 256 257 
3 258 259 260 
3 261 262 263 
3 264 265 266 
3 267 268 269 
3 270 271 272 
3 273 274 275 
3 276 277 278 
3 279 280 281 
3 282 283 284 
3 285 286 287 
3 288 289 290 
3 291 292 293 
3 294 295 296 
3 297 298 299 
3 300 301 302 
3 303 304 305 
3 306 307 308 
3 309 310 311 
3 312 313 314 
3 315 316 317 
3 318 319 320 
3 321 322 323 
3 324 325 326 
3 327 328 329 
3 330 331 332 
3 333 334 335 
3 336 337 338 
3 339 340 341 
3 342 343 344 
3 345 346 347 
3 348 349 350 
3 351 352 353 
3 354 355 356 
3 357 358 359 
3 360 361 362 
3 363 364 365 
3 366 367 368 
3 369 370 371 
3 372 373 374 
3 375 376 377 
3 378 379 380 
3 381 382 383 
3 384 385 386 
3 387 388 389 
3 390 391 392 
3 393 394 395 
3 396 397 398 
3 399 400 401 
3 402 164 403 
3 404 405 162 
3 163 406 407 
3 408 167 409 
3 410 411 165 
3 166 412 413 
3 414 170 415 
3 416 417 168 
3 169 418 419 
3 420 173 421 
3 422 423 171 
3 172 424 425 
3 426 176 427 
3 428 429 174 
3 175 430 431 
3 432 179 433 
3 434 435 177 
3 178 436 437 
3 438 182 439 
3 440 441 180 
3 181 442 443 
3 444 185 445 
3 446 447 183 
3 184 448 449 
3 450 188 451 
3 452 453 186 
3 187 454 455 
3 456 191 457 
3 458 459 189 
3 190 460 461 
3 462 194 463 
3 464 465 192 
3 193 466 467 
3 468 197 469 
3 470 471 195 
3 196 472 473 
3 474 200 475 
3 476 477 198 
3 199 478 479 
3 480 203 481 
3 482 483 201 
3 202 484 485 
3 486 206 487 
3 488 489 204 
3 205 490 491 
3 492 209 493 
3 494 495 207 
3 208 496 497 
3 498 212 499 
3 500 501 210 
3 211 502 503 
3 504 215 505 
3 506 507 213 
3 214 508 509 
3 510 218 511 
3 512 513 216 
3 217 514 515 
3 516 221 517 
3 518 519 219 
3 220 520 521 
3 522 224 523 
3 524 403 222 
3 223 407 525 
3 526 227 402 
3 527 528 225 
3 226 529 404 
3 406 230 530 
3 405 531 228 
3 229 532 533 
3 527 233 534 
3 526 409 231 
3 232 413 535 
3 524 236 408 
3 522 536 234 
3 235 537 410 
3 412 239 538 
3 411 539 237 
3 238 540 541 
3 542 242 543 
3 544 415 240 
3 241 419 545 
3 546 245 414 
3 547 548 243 
3 244 549 416 
3 418 248 550 
3 417 551 246 
3 247 552 553 
3 547 251 554 
3 546 421 249 
3 250 425 555 
3 544 254 420 
3 542 556 252 
3 253 557 422 
3 424 257 558 
3 423 559 255 
3 256 560 561 
3 562 260 563 
3 564 427 258 
3 259 431 565 
3 566 263 426 
3 567 568 261 
3 262 569 428 
3 430 266 570 
3 429 571 264 
3 265 572 573 
3 567 269 574 
3 566 433 267 
3 268 437 575 
3 564 272 432 
3 562 576 270 
3 271 577 434 
3 436 275 578 
3 435 579 273 
3 274 580 581 
3 582 278 583 
3 584 439 276 
3 277 443 585 
3 586 281 438 
3 587 588 279 
3 280 589 440 
3 442 284 590 
3 441 591 282 
3 283 592 593 
3 587 287 594 
3 586 445 285 
3 286 449 595 
3 584 290 444 
3 582 596 288 
3 289 597 446 
3 448 293 598 
3 447 599 291 
3 292 600 601 
3 602 296 603 
3 604 451 294 
3 295 455 605 
3 606 299 450 
3 607 608 297 
3 298 609 452 
3 454 302 610 
3 453 611 300 
3 301 612 613 
3 607 305 614 
3 606 457 303 
3 304 461 615 
3 604 308 456 
3 602 616 306 
3 307 617 458 
3 460 311 618 
3 459 619 309 
3 310 620 621 
3 622 314 623 
3 624 463 312 
3 313 467 625 
3 626 317 462 
3 627 628 315 
3 316 629 464 
3 466 320 630 
3 465 631 318 
3 319 632 633 
3 627 323 634 
3 626 469 321 
3 322 473 635 
3 624 326 468 
3 622 636 324 
3 325 637 470 
3 472 329 638 
3 471 639 327 
3 328 640 641 
3 620 332 528 
3 619 475 330 
3 331 479 529 
3 617 335 474 
3 616 580 333 
3 334 579 476 
3 478 338 531 
3 477 577 336 
3 337 576 532 
3 534 341 621 
3 535 481 339 
3 340 485 618 
3 538 344 480 
3 541 583 342 
3 343 585 482 
3 484 347 615 
3 483 590 345 
3 346 593 614 
3 523 350 633 
3 525 487 348 
3 349 491 630 
3 530 353 486 
3 533 563 351 
3 352 565 488 
3 490 356 625 
3 489 570 354 
3 355 573 623 
3 632 359 536 
3 631 493 357 
3 358 497 537 
3 629 362 492 
3 628 600 360 
3 361 599 494 
3 496 365 539 
3 495 597 363 
3 364 596 540 
3 543 368 613 
3 545 499 366 
3 367 503 610 
3 550 371 498 
3 553 574 369 
3 370 575 500 
3 502 374 605 
3 501 578 372 
3 373 581 603 
3 612 377 556 
3 611 505 375 
3 376 509 557 
3 609 380 504 
3 608 592 378 
3 379 591 506 
3 508 383 559 
3 507 589 381 
3 382 588 560 
3 640 386 548 
3 639 511 384 
3 385 515 549 
3 637 389 510 
3 636 572 387 
3 388 571 512 
3 514 392 551 
3 513 569 390 
3 391 568 552 
3 554 395 641 
3 555 517 393 
3 394 521 638 
3 558 398 516 
3 561 594 396 
3 397 595 518 
3 520 401 635 
3 519 598 399 
3 400 601 634 
3 42 162 164 
3 162 43 163 
3 164 163 44 
3 45 165 167 
3 165 46 166 
3 167 166 47 
3 48 168 170 
3 168 49 169 
3 170 169 50 
3 51 171 173 
3 171 52 172 
3 173 172 53 
3 54 174 176 
3 174 55 175 
3 176 175 56 
3 57 177 179 
3 177 58 178 
3 179 178 59 
3 60 180 182 
3 180 61 181 
3 182 181 62 
3 63 183 185 
3 183 64 184 
3 185 184 65 
3 66 186 188 
3 186 67 187 
3 188 187 68 
3 69 189 191 
3 189 70 190 
3 191 190 71 
3 72 192 194 
3 192 73 193 
3 194 193 74 
3 75 195 197 
3 195 76 196 
3 197 196 77 
3 78 198 200 
3 198 79 199 
3 200 199 80 
3 81 201 203 
3 201 82 202 
3 203 202 83 
3 84 204 206 
3 204 85 205 
3 206 205 86 
3 87 207 209 
3 207 88 208 
3 209 208 89 
3 90 210 212 
3 210 91 211 
3 212 211 92 
3 93 213 215 
3 213 94 214 
3 215 214 95 
3 96 216 218 
3 216 97 217 
3 218 217 98 
3 99 219 221 
3 219 100 220 
3 221 220 101 
3 102 222 224 
3 222 44 223 
3 224 223 103 
3 104 225 227 
3 225 105 226 
3 227 226 42 
3 43 228 230 
3 228 106 229 
3 230 229 107 
3 104 231 233 
3 231 47 232 
3 233 232 108 
3 102 234 236 
3 234 109 235 
3 236 235 45 
3 46 237 239 
3 237 110 238 
3 239 238 111 
3 112 240 242 
3 240 50 241 
3 242 241 113 
3 114 243 245 
3 243 115 244 
3 245 244 48 
3 49 246 248 
3 246 116 247 
3 248 247 117 
3 114 249 251 
3 249 53 250 
3 251 250 118 
3 112 252 254 
3 252 119 253 
3 254 253 51 
3 52 255 257 
3 255 120 256 
3 257 256 121 
3 122 258 260 
3 258 56 259 
3 260 259 123 
3 124 261 263 
3 261 125 262 
3 263 262 54 
3 55 264 266 
3 264 126 265 
3 266 265 127 
3 124 267 269 
3 267 59 268 
3 269 268 128 
3 122 270 272 
3 270 129 271 
3 272 271 57 
3 58 273 275 
3 273 130 274 
3 275 274 131 
3 132 276 278 
3 276 62 277 
3 278 277 133 
3 134 279 281 
3 279 135 280 
3 281 280 60 
3 61 282 284 
3 282 136 283 
3 284 283 137 
3 134 285 287 
3 285 65 286 
3 287 286 138 
3 132 288 290 
3 288 139 289 
3 290 289 63 
3 64 291 293 
3 291 140 292 
3 293 292 141 
3 142 294 296 
3 294 68 295 
3 296 295 143 
3 144 297 299 
3 297 145 298 
3 299 298 66 
3 67 300 302 
3 300 146 301 
3 302 301 147 
3 144 303 305 
3 303 71 304 
3 305 304 148 
3 142 306 308 
3 306 149 307 
3 308 307 69 
3 70 309 311 
3 309 150 310 
3 311 310 151 
3 152 312 314 
3 312 74 313 
3 314 313 153 
3 154 315 317 
3 315 155 316 
3 317 316 72 
3 73 318 320 
3 318 156 319 
3 320 319 157 
3 154 321 323 
3 321 77 322 
3 323 322 158 
3 152 324 326 
3 324 159 325 
3 326 325 75 
3 76 327 329 
3 327 160 328 
3 329 328 161 
3 150 330 332 
3 330 80 331 
3 332 331 105 
3 149 333 335 
3 333 130 334 
3 335 334 78 
3 79 336 338 
3 336 129 337 
3 338 337 106 
3 108 339 341 
3 339 83 340 
3 341 340 151 
3 111 342 344 
3 342 133 343 
3 344 343 81 
3 82 345 347 
3 345 137 346 
3 347 346 148 
3 103 348 350 
3 348 86 349 
3 350 349 157 
3 107 351 353 
3 351 123 352 
3 353 352 84 
3 85 354 356 
3 354 127 355 
3 356 355 153 
3 156 357 359 
3 357 89 358 
3 359 358 109 
3 155 360 362 
3 360 140 361 
3 362 361 87 
3 88 363 365 
3 363 139 364 
3 365 364 110 
3 113 366 368 
3 366 92 367 
3 368 367 147 
3 117 369 371 
3 369 128 370 
3 371 370 90 
3 91 372 374 
3 372 131 373 
3 374 373 143 
3 146 375 377 
3 375 95 376 
3 377 376 119 
3 145 378 380 
3 378 136 379 
3 380 379 93 
3 94 381 383 
3 381 135 382 
3 383 382 120 
3 160 384 386 
3 384 98 385 
3 386 385 115 
3 159 387 389 
3 387 126 388 
3 389 388 96 
3 97 390 392 
3 390 125 391 
3 392 391 116 
3 118 393 395 
3 393 101 394 
3 395 394 161 
3 121 396 398 
3 396 138 397 
3 398 397 99 
3 100 399 401 
3 399 141 400 
3 401 400 158 
3 12 402 403 
3 402 42 164 
3 403 164 44 
3 42 404 162 
3 404 13 405 
3 162 405 43 
3 44 163 407 
3 163 43 406 
3 407 406 14 
3 12 408 409 
3 408 45 167 
3 409 167 47 
3 45 410 165 
3 410 15 411 
3 165 411 46 
3 47 166 413 
3 166 46 412 
3 413 412 16 
3 17 414 415 
3 414 48 170 
3 415 170 50 
3 48 416 168 
3 416 18 417 
3 168 417 49 
3 50 169 419 
3 169 49 418 
3 419 418 19 
3 17 420 421 
3 420 51 173 
3 421 173 53 
3 51 422 171 
3 422 20 423 
3 171 423 52 
3 53 172 425 
3 172 52 424 
3 425 424 21 
3 22 426 427 
3 426 54 176 
3 427 176 56 
3 54 428 174 
3 428 23 429 
3 174 429 55 
3 56 175 431 
3 175 55 430 
3 431 430 24 
3 22 432 433 
3 432 57 179 
3 433 179 59 
3 57 434 177 
3 434 25 435 
3 177 435 58 
3 59 178 437 
3 178 58 436 
3 437 436 26 
3 27 438 439 
3 438 60 182 
3 439 182 62 
3 60 440 180 
3 440 28 441 
3 180 441 61 
3 62 181 443 
3 181 61 442 
3 443 442 29 
3 27 444 445 
3 444 63 185 
3 445 185 65 
3 63 446 183 
3 446 30 447 
3 183 447 64 
3 65 184 449 
3 184 64 448 
3 449 448 31 
3 32 450 451 
3 450 66 188 
3 451 188 68 
3 66 452 186 
3 452 33 453 
3 186 453 67 
3 68 187 455 
3 187 67 454 
3 455 454 34 
3 32 456 457 
3 456 69 191 
3 457 191 71 
3 69 458 189 
3 458 35 459 
3 189 459 70 
3 71 190 461 
3 190 70 460 
3 461 460 36 
3 37 462 463 
3 462 72 194 
3 463 194 74 
3 72 464 192 
3 464 38 465 
3 192 465 73 
3 74 193 467 
3 193 73 466 
3 467 466 39 
3 37 468 469 
3 468 75 197 
3 469 197 77 
3 75 470 195 
3 470 40 471 
3 195 471 76 
3 77 196 473 
3 196 76 472 
3 473 472 41 
3 35 474 475 
3 474 78 200 
3 475 200 80 
3 78 476 198 
3 476 25 477 
3 198 477 79 
3 80 199 479 
3 199 79 478 
3 479 478 13 
3 16 480 481 
3 480 81 203 
3 481 203 83 
3 81 482 201 
3 482 29 483 
3 201 483 82 
3 83 202 485 
3 202 82 484 
3 485 484 36 
3 14 486 487 
3 486 84 206 
3 487 206 86 
3 84 488 204 
3 488 24 489 
3 204 489 85 
3 86 205 491 
3 205 85 490 
3 491 490 39 
3 38 492 493 
3 492 87 209 
3 493 209 89 
3 87 494 207 
3 494 30 495 
3 207 495 88 
3 89 208 497 
3 208 88 496 
3 497 496 15 
3 19 498 499 
3 498 90 212 
3 499 212 92 
3 90 500 210 
3 500 26 501 
3 210 501 91 
3 92 211 503 
3 211 91 502 
3 503 502 34 
3 33 504 505 
3 504 93 215 
3 505 215 95 
3 93 506 213 
3 506 28 507 
3 213 507 94 
3 95 214 509 
3 214 94 508 
3 509 508 20 
3 40 510 511 
3 510 96 218 
3 511 218 98 
3 96 512 216 
3 512 23 513 
3 216 513 97 
3 98 217 515 
3 217 97 514 
3 515 514 18 
3 21 516 517 
3 516 99 221 
3 517 221 101 
3 99 518 219 
3 518 31 519 
3 219 519 100 
3 101 220 521 
3 220 100 520 
3 521 520 41 
3 1 522 523 
3 522 102 224 
3 523 224 103 
3 102 524 222 
3 524 12 403 
3 222 403 44 
3 103 223 525 
3 223 44 407 
3 525 407 14 
3 12 526 402 
3 526 104 227 
3 402 227 42 
3 104 527 225 
3 527 0 528 
3 225 528 105 
3 42 226 404 
3 226 105 529 
3 404 529 13 
3 14 406 530 
3 406 43 230 
3 530 230 107 
3 43 405 228 
3 405 13 531 
3 228 531 106 
3 107 229 533 
3 229 106 532 
3 533 532 4 
3 0 527 534 
3 527 104 233 
3 534 233 108 
3 104 526 231 
3 526 12 409 
3 231 409 47 
3 108 232 535 
3 232 47 413 
3 535 413 16 
3 12 524 408 
3 524 102 236 
3 408 236 45 
3 102 522 234 
3 522 1 536 
3 234 536 109 
3 45 235 410 
3 235 109 537 
3 410 537 15 
3 16 412 538 
3 412 46 239 
3 538 239 111 
3 46 411 237 
3 411 15 539 
3 237 539 110 
3 111 238 541 
3 238 110 540 
3 541 540 6 
3 2 542 543 
3 542 112 242 
3 543 242 113 
3 112 544 240 
3 544 17 415 
3 240 415 50 
3 113 241 545 
3 241 50 419 
3 545 419 19 
3 17 546 414 
3 546 114 245 
3 414 245 48 
3 114 547 243 
3 547 3 548 
3 243 548 115 
3 48 244 416 
3 244 115 549 
3 416 549 18 
3 19 418 550 
3 418 49 248 
3 550 248 117 
3 49 417 246 
3 417 18 551 
3 246 551 116 
3 117 247 553 
3 247 116 552 
3 553 552 5 
3 3 547 554 
3 547 114 251 
3 554 251 118 
3 114 546 249 
3 546 17 421 
3 249 421 53 
3 118 250 555 
3 250 53 425 
3 555 425 21 
3 17 544 420 
3 544 112 254 
3 420 254 51 
3 112 542 252 
3 542 2 556 
3 252 556 119 
3 51 253 422 
3 253 119 557 
3 422 557 20 
3 21 424 558 
3 424 52 257 
3 558 257 121 
3 52 423 255 
3 423 20 559 
3 255 559 120 
3 121 256 561 
3 256 120 560 
3 561 560 7 
3 4 562 563 
3 562 122 260 
3 563 260 123 
3 122 564 258 
3 564 22 427 
3 258 427 56 
3 123 259 565 
3 259 56 431 
3 565 431 24 
3 22 566 426 
3 566 124 263 
3 426 263 54 
3 124 567 261 
3 567 5 568 
3 261 568 125 
3 54 262 428 
3 262 125 569 
3 428 569 23 
3 24 430 570 
3 430 55 266 
3 570 266 127 
3 55 429 264 
3 429 23 571 
3 264 571 126 
3 127 265 573 
3 265 126 572 
3 573 572 10 
3 5 567 574 
3 567 124 269 
3 574 269 128 
3 124 566 267 
3 566 22 433 
3 267 433 59 
3 128 268 575 
3 268 59 437 
3 575 437 26 
3 22 564 432 
3 564 122 272 
3 432 272 57 
3 122 562 270 
3 562 4 576 
3 270 576 129 
3 57 271 434 
3 271 129 577 
3 434 577 25 
3 26 436 578 
3 436 58 275 
3 578 275 131 
3 58 435 273 
3 435 25 579 
3 273 579 130 
3 131 274 581 
3 274 130 580 
3 581 580 8 
3 6 582 583 
3 582 132 278 
3 583 278 133 
3 132 584 276 
3 584 27 439 
3 276 439 62 
3 133 277 585 
3 277 62 443 
3 585 443 29 
3 27 586 438 
3 586 134 281 
3 438 281 60 
3 134 587 279 
3 587 7 588 
3 279 588 135 
3 60 280 440 
3 280 135 589 
3 440 589 28 
3 29 442 590 
3 442 61 284 
3 590 284 137 
3 61 441 282 
3 441 28 591 
3 282 591 136 
3 137 283 593 
3 283 136 592 
3 593 592 9 
3 7 587 594 
3 587 134 287 
3 594 287 138 
3 134 586 285 
3 586 27 445 
3 285 445 65 
3 138 286 595 
3 286 65 449 
3 595 449 31 
3 27 584 444 
3 584 132 290 
3 444 290 63 
3 132 582 288 
3 582 6 596 
3 288 596 139 
3 63 289 446 
3 289 139 597 
3 446 597 30 
3 31 448 598 
3 448 64 293 
3 598 293 141 
3 64 447 291 
3 447 30 599 
3 291 599 140 
3 141 292 601 
3 292 140 600 
3 601 600 11 
3 8 602 603 
3 602 142 296 
3 603 296 143 
3 142 604 294 
3 604 32 451 
3 294 451 68 
3 143 295 605 
3 295 68 455 
3 605 455 34 
3 32 606 450 
3 606 144 299 
3 450 299 66 
3 144 607 297 
3 607 9 608 
3 297 608 145 
3 66 298 452 
3 298 145 609 
3 452 609 33 
3 34 454 610 
3 454 67 302 
3 610 302 147 
3 67 453 300 
3 453 33 611 
3 300 611 146 
3 147 301 613 
3 301 146 612 
3 613 612 2 
3 9 607 614 
3 607 144 305 
3 614 305 148 
3 144 606 303 
3 606 32 457 
3 303 457 71 
3 148 304 615 
3 304 71 461 
3 615 461 36 
3 32 604 456 
3 604 142 308 
3 456 308 69 
3 142 602 306 
3 602 8 616 
3 306 616 149 
3 69 307 458 
3 307 149 617 
3 458 617 35 
3 36 460 618 
3 460 70 311 
3 618 311 151 
3 70 459 309 
3 459 35 619 
3 309 619 150 
3 151 310 621 
3 310 150 620 
3 621 620 0 
3 10 622 623 
3 622 152 314 
3 623 314 153 
3 152 624 312 
3 624 37 463 
3 312 463 74 
3 153 313 625 
3 313 74 467 
3 625 467 39 
3 37 626 462 
3 626 154 317 
3 462 317 72 
3 154 627 315 
3 627 11 628 
3 315 628 155 
3 72 316 464 
3 316 155 629 
3 464 629 38 
3 39 466 630 
3 466 73 320 
3 630 320 157 
3 73 465 318 
3 465 38 631 
3 318 631 156 
3 157 319 633 
3 319 156 632 
3 633 632 1 
3 11 627 634 
3 627 154 323 
3 634 323 158 
3 154 626 321 
3 626 37 469 
3 321 469 77 
3 158 322 635 
3 322 77 473 
3 635 473 41 
3 37 624 468 
3 624 152 326 
3 468 326 75 
3 152 622 324 
3 622 10 636 
3 324 636 159 
3 75 325 470 
3 325 159 637 
3 470 637 40 
3 41 472 638 
3 472 76 329 
3 638 329 161 
3 76 471 327 
3 471 40 639 
3 327 639 160 
3 161 328 641 
3 328 160 640 
3 641 640 3 
3 0 620 528 
3 620 150 332 
3 528 332 105 
3 150 619 330 
3 619 35 475 
3 330 475 80 
3 105 331 529 
3 331 80 479 
3 529 479 13 
3 35 617 474 
3 617 149 335 
3 474 335 78 
3 149 616 333 
3 616 8 580 
3 333 580 130 
3 78 334 476 
3 334 130 579 
3 476 579 25 
3 13 478 531 
3 478 79 338 
3 531 338 106 
3 79 477 336 
3 477 25 577 
3 336 577 129 
3 106 337 532 
3 337 129 576 
3 532 576 4 
3 0 534 621 
3 534 108 341 
3 621 341 151 
3 108 535 339 
3 535 16 481 
3 339 481 83 
3 151 340 618 
3 340 83 485 
3 618 485 36 
3 16 538 480 
3 538 111 344 
3 480 344 81 
3 111 541 342 
3 541 6 583 
3 342 583 133 
3 81 343 482 
3 343 133 585 
3 482 585 29 
3 36 484 615 
3 484 82 347 
3 615 347 148 
3 82 483 345 
3 483 29 590 
3 345 590 137 
3 148 346 614 
3 346 137 593 
3 614 593 9 
3 1 523 633 
3 523 103 350 
3 633 350 157 
3 103 525 348 
3 525 14 487 
3 348 487 86 
3 157 349 630 
3 349 86 491 
3 630 491 39 
3 14 530 486 
3 530 107 353 
3 486 353 84 
3 107 533 351 
3 533 4 563 
3 351 563 123 
3 84 352 488 
3 352 123 565 
3 488 565 24 
3 39 490 625 
3 490 85 356 
3 625 356 153 
3 85 489 354 
3 489 24 570 
3 354 570 127 
3 153 355 623 
3 355 127 573 
3 623 573 10 
3 1 632 536 
3 632 156 359 
3 536 359 109 
3 156 631 357 
3 631 38 493 
3 357 493 89 
3 109 358 537 
3 358 89 497 
3 537 497 15 
3 38 629 492 
3 629 155 362 
3 492 362 87 
3 155 628 360 
3 628 11 600 
3 360 600 140 
3 87 361 494 
3 361 140 599 
3 494 599 30 
3 15 496 539 
3 496 88 365 
3 539 365 110 
3 88 495 363 
3 495 30 597 
3 363 597 139 
3 110 364 540 
3 364 139 596 
3 540 596 6 
3 2 543 613 
3 543 113 368 
3 613 368 147 
3 113 545 366 
3 545 19 499 
3 366 499 92 
3 147 367 610 
3 367 92 503 
3 610 503 34 
3 19 550 498 
3 550 117 371 
3 498 371 90 
3 117 553 369 
3 553 5 574 
3 369 574 128 
3 90 370 500 
3 370 128 575 
3 500 575 26 
3 34 502 605 
3 502 91 374 
3 605 374 143 
3 91 501 372 
3 501 26 578 
3 372 578 131 
3 143 373 603 
3 373 131 581 
3 603 581 8 
3 2 612 556 
3 612 146 377 
3 556 377 119 
3 146 611 375 
3 611 33 505 
3 375 505 95 
3 119 376 557 
3 376 95 509 
3 557 509 20 
3 33 609 504 
3 609 145 380 
3 504 380 93 
3 145 608 378 
3 608 9 592 
3 378 592 136 
3 93 379 506 
3 379 136 591 
3 506 591 28 
3 20 508 559 
3 508 94 383 
3 559 383 120 
3 94 507 381 
3 507 28 589 
3 381 589 135 
3 120 382 560 
3 382 135 588 
3 560 588 7 
3 3 640 548 
3 640 160 386 
3 548 386 115 
3 160 639 384 
3 639 40 511 
3 384 511 98 
3 115 385 549 
3 385 98 515 
3 549 515 18 
3 40 637 510 
3 637 159 389 
3 510 389 96 
3 159 636 387 
3 636 10 572 
3 387 572 126 
3 96 388 512 
3 388 126 571 
3 512 571 23 
3 18 514 551 
3 514 97 392 
3 551 392 116 
3 97 513 390 
3 513 23 569 
3 390 569 125 
3 116 391 552 
3 391 125 568 
3 552 568 5 
3 3 554 641 
3 554 118 395 
3 641 395 161 
3 118 555 393 
3 555 21 517 
3 393 517 101 
3 161 394 638 
3 394 101 521 
3 638 521 41 
3 21 558 516 
3 558 121 398 
3 516 398 99 
3 121 561 396 
3 561 7 594 
3 396 594 138 
3 99 397 518 
3 397 138 595 
3 518 595 31 
3 41 520 635 
3 520 100 401 
3 635 401 158 
3 100 519 399 
3 519 31 598 
3 399 598 141 
3 158 400 634 
3 400 141 601 
3 634 601 11 
